<svg width="132" height="132" viewBox="0 0 132 132" fill="none" xmlns="http://www.w3.org/2000/svg">
<path d="M42.0397 129.286H14.9292C13.5931 129.286 8.00609 129.711 9.26023 130.643C10.4225 131.509 18.426 132 19.7622 132H44.1905C48.2517 132 51.852 131.389 50.5236 130.643C49.1953 129.897 46.4585 129.286 42.0397 129.286Z" fill="black" fill-opacity="0.15"/>
<g opacity="0.39">
<path fill-rule="evenodd" clip-rule="evenodd" d="M131.332 122.647H87.5938V84.5312L107.467 70.1162L130.699 83.964L131.332 122.647Z" fill="#CCCCCC"/>
<path fill-rule="evenodd" clip-rule="evenodd" d="M79.6193 122.684H25.6533V52.8186L52.6364 35.8418L79.6193 52.8186V122.684Z" fill="#CCCCCC"/>
<path fill-rule="evenodd" clip-rule="evenodd" d="M17.6416 54.6283L32.3243 31.5312H52.6366L87.3964 54.6283H17.6416Z" fill="#B0B0B0"/>
<path fill-rule="evenodd" clip-rule="evenodd" d="M0 54.6283L32.3242 31.5312V35.8419L59.3073 54.6283H0Z" fill="#B0B0B0"/>
<path fill-rule="evenodd" clip-rule="evenodd" d="M82.7334 84.4505L92.5731 67.957H104.95L132 83.7357L82.7334 84.4505Z" fill="#B0B0B0"/>
<path fill-rule="evenodd" clip-rule="evenodd" d="M69.6982 84.4505L92.5731 67.957L92.6076 70.1167L110.881 84.4505H69.6982Z" fill="#B0B0B0"/>
<path fill-rule="evenodd" clip-rule="evenodd" d="M59.3081 122.684H5.3418V54.6282L32.3249 35.8418L59.3081 54.6282V122.684Z" fill="#E3E3E3"/>
<path fill-rule="evenodd" clip-rule="evenodd" d="M12.9785 108.724H50.2807V85.5381H12.9785V108.724Z" fill="#F7F7F7"/>
<path fill-rule="evenodd" clip-rule="evenodd" d="M13.5586 108.142H49.7016V86.1201H13.5586V108.142ZM50.2812 109.306H12.979C12.6588 109.306 12.3994 109.045 12.3994 108.724V85.5381C12.3994 85.2165 12.6588 84.9561 12.979 84.9561H50.2812C50.6011 84.9561 50.8608 85.2165 50.8608 85.5381V108.724C50.8608 109.045 50.6011 109.306 50.2812 109.306Z" fill="white"/>
<path fill-rule="evenodd" clip-rule="evenodd" d="M12.9785 78.3087H49.7756V56.4697H12.9785V78.3087Z" fill="#F7F7F7"/>
<path fill-rule="evenodd" clip-rule="evenodd" d="M13.5586 77.7266H49.1965V57.0518H13.5586V77.7266ZM49.7761 78.8907H12.979C12.6588 78.8907 12.3994 78.63 12.3994 78.3087V56.4697C12.3994 56.1485 12.6588 55.8877 12.979 55.8877H49.7761C50.0963 55.8877 50.3557 56.1485 50.3557 56.4697V78.3087C50.3557 78.63 50.0963 78.8907 49.7761 78.8907Z" fill="#F7F7F7"/>
<path fill-rule="evenodd" clip-rule="evenodd" d="M116.472 122.647H72.7344V84.5312L92.6072 70.1162L115.84 83.964L116.472 122.647Z" fill="#E3E3E3"/>
<path fill-rule="evenodd" clip-rule="evenodd" d="M98.7256 117.708H113.164V98.5234H98.7256V117.708Z" fill="white"/>
<path fill-rule="evenodd" clip-rule="evenodd" d="M100.224 117.708H111.904V99.6738H100.224V117.708Z" fill="#F7F7F7"/>
<path fill-rule="evenodd" clip-rule="evenodd" d="M79.2969 118.07H92.6983V85.6738H79.2969V118.07Z" fill="#F7F7F7"/>
<path fill-rule="evenodd" clip-rule="evenodd" d="M79.7317 117.634H92.2637V86.1104H79.7317V117.634ZM92.6984 118.507H79.297C79.0571 118.507 78.8623 118.311 78.8623 118.07V85.6738C78.8623 85.4329 79.0571 85.2373 79.297 85.2373H92.6984C92.9384 85.2373 93.1331 85.4329 93.1331 85.6738V118.07C93.1331 118.311 92.9384 118.507 92.6984 118.507Z" fill="white"/>
<path fill-rule="evenodd" clip-rule="evenodd" d="M111.862 117.588H113.165V122.684H109.703V117.968L111.862 117.588Z" fill="#E3E3E3"/>
<path fill-rule="evenodd" clip-rule="evenodd" d="M98.1709 119.287H111.862V117.588H98.1709V119.287Z" fill="#F7F7F7"/>
<path fill-rule="evenodd" clip-rule="evenodd" d="M97.0928 120.985H110.783V119.286H97.0928V120.985Z" fill="#F7F7F7"/>
<path fill-rule="evenodd" clip-rule="evenodd" d="M96.0117 122.684H109.702V120.985H96.0117V122.684Z" fill="#F7F7F7"/>
</g>
<path d="M118.118 4.52095C118.151 4.10341 118.097 3.68353 117.959 3.28815C117.82 2.89277 117.601 2.53058 117.315 2.22471C117.029 1.91884 116.682 1.67602 116.297 1.51176C115.911 1.3475 115.496 1.26542 115.077 1.27075H65.0856C64.2063 1.28324 63.3633 1.62329 62.7215 2.22438C62.0796 2.82548 61.6851 3.64439 61.6151 4.52095L60.4667 21.8373L53.2693 75.0719C53.1991 75.4772 53.2197 75.893 53.3298 76.2893C53.4399 76.6857 53.6367 77.0526 53.9058 77.3636C54.175 77.6746 54.5099 77.9219 54.8864 78.0877C55.2628 78.2534 55.6714 78.3335 56.0825 78.3221H106.078C106.977 78.2982 107.838 77.9598 108.514 77.366C109.189 76.7721 109.634 75.9603 109.772 75.0719L116.97 21.8373L118.118 4.52095Z" fill="#2E7992"/>
<path opacity="0.2" d="M118.118 4.52095C118.151 4.10341 118.097 3.68353 117.959 3.28815C117.82 2.89277 117.601 2.53058 117.315 2.22471C117.029 1.91884 116.682 1.67602 116.297 1.51176C115.911 1.3475 115.496 1.26542 115.077 1.27075H65.0856C64.2063 1.28324 63.3633 1.62329 62.7215 2.22438C62.0796 2.82548 61.6851 3.64439 61.6151 4.52095L60.4667 21.8373L53.2693 75.0719C53.1991 75.4772 53.2197 75.893 53.3298 76.2893C53.4399 76.6857 53.6367 77.0526 53.9058 77.3636C54.175 77.6746 54.5099 77.9219 54.8864 78.0877C55.2628 78.2534 55.6714 78.3335 56.0825 78.3221H106.078C106.977 78.2982 107.838 77.9598 108.514 77.366C109.189 76.7721 109.634 75.9603 109.772 75.0719L116.97 21.8373L118.118 4.52095Z" fill="#333333"/>
<path d="M104.298 78.3264H54.3025C53.8916 78.3371 53.4833 78.2566 53.1072 78.0906C52.7311 77.9246 52.3965 77.6773 52.1274 77.3664C51.8584 77.0556 51.6616 76.6889 51.5513 76.2929C51.4409 75.8969 51.4198 75.4813 51.4893 75.0762L58.6867 21.8379H115.19L107.992 75.0725C107.855 75.9616 107.41 76.7742 106.735 77.3688C106.059 77.9634 105.197 78.3023 104.298 78.3264Z" fill="#2E7992"/>
<path d="M72.5179 0H65.0713V0.361133H72.5179V0Z" fill="#2E7992"/>
<path d="M61.5501 0.747546L61.3984 0.418916C61.9964 0.143405 62.6469 0.000497144 63.3052 0V0.361133C62.6991 0.361568 62.1003 0.4934 61.5501 0.747546Z" fill="#2E7992"/>
<path d="M113.301 1.25315H63.3054C62.4262 1.26564 61.5832 1.60569 60.9413 2.20678C60.2995 2.80788 59.905 3.62679 59.8349 4.50335L58.6865 21.8377H115.189L116.334 4.52141C116.371 4.10292 116.319 3.68146 116.182 3.28417C116.046 2.88687 115.828 2.52256 115.542 2.21468C115.256 1.9068 114.909 1.66218 114.523 1.49657C114.137 1.33097 113.721 1.24805 113.301 1.25315Z" fill="#2E7992"/>
<path opacity="0.9" d="M61.4777 17.5981L62.2794 5.48929C62.3162 5.02769 62.5239 4.59642 62.8619 4.27984C63.1998 3.96326 63.6437 3.78414 64.1068 3.77752H112.163C112.383 3.77425 112.602 3.81718 112.805 3.90356C113.008 3.98994 113.191 4.11784 113.342 4.27906C113.492 4.44028 113.608 4.63124 113.68 4.83966C113.753 5.04809 113.781 5.26937 113.763 5.48929L112.961 17.5981C112.923 18.0594 112.715 18.4902 112.378 18.8066C112.04 19.123 111.596 19.3024 111.134 19.3099H63.0775C62.857 19.3126 62.6384 19.2693 62.4356 19.1827C62.2328 19.0961 62.0503 18.9682 61.8998 18.8071C61.7492 18.646 61.6339 18.4553 61.5612 18.2471C61.4886 18.0389 61.4601 17.8179 61.4777 17.5981Z" fill="white"/>
<g opacity="0.4">
<path d="M108.7 5.76061L108.155 6.2698C108.141 6.28279 108.126 6.29299 108.108 6.29981C108.091 6.30663 108.072 6.30993 108.054 6.30953H105.165C105.144 6.31001 105.124 6.30606 105.105 6.29796C105.087 6.28985 105.07 6.27778 105.056 6.26258L104.587 5.757C104.567 5.7359 104.554 5.7095 104.549 5.68105C104.544 5.65259 104.548 5.62332 104.559 5.59684C104.571 5.57036 104.59 5.54782 104.614 5.532C104.638 5.51619 104.666 5.50778 104.695 5.50781H108.606C108.635 5.50814 108.664 5.51732 108.688 5.53413C108.712 5.55094 108.73 5.57459 108.74 5.60196C108.75 5.62934 108.752 5.65915 108.745 5.68747C108.738 5.71579 108.722 5.74129 108.7 5.76061Z" fill="#2E7992"/>
<path d="M107.934 15.1465H104.023C103.994 15.1465 103.964 15.1376 103.94 15.1209C103.915 15.1042 103.896 15.0804 103.885 15.0527C103.874 15.0251 103.872 14.9948 103.879 14.9657C103.885 14.9367 103.9 14.9104 103.922 14.8901L104.464 14.3845C104.492 14.3595 104.528 14.3454 104.565 14.3448H107.454C107.475 14.3442 107.495 14.3485 107.514 14.3573C107.533 14.366 107.549 14.3791 107.562 14.3953L108.035 14.9009C108.054 14.9217 108.066 14.9471 108.07 14.9744C108.075 15.0016 108.072 15.0296 108.061 15.0551C108.051 15.0807 108.033 15.1028 108.011 15.1189C107.988 15.1351 107.962 15.1446 107.934 15.1465Z" fill="#2E7992"/>
<path d="M108.314 10.4268L108.035 10.6904C108.008 10.7154 107.972 10.7295 107.934 10.7301H104.543C104.523 10.7297 104.503 10.7252 104.485 10.7169C104.467 10.7085 104.45 10.6966 104.437 10.6817C104.423 10.6669 104.413 10.6494 104.407 10.6304C104.4 10.6114 104.397 10.5913 104.399 10.5712L104.435 10.062C104.438 10.0247 104.454 9.98975 104.482 9.96429C104.509 9.93882 104.546 9.92471 104.583 9.92482H107.985C108.005 9.92457 108.025 9.92863 108.044 9.93672C108.063 9.94481 108.079 9.95675 108.093 9.97176L108.324 10.2209C108.337 10.2351 108.347 10.2517 108.354 10.2697C108.36 10.2878 108.363 10.307 108.362 10.3261C108.361 10.3453 108.356 10.3641 108.348 10.3814C108.34 10.3986 108.328 10.4141 108.314 10.4268Z" fill="#2E7992"/>
<path d="M108.775 10.704L108.49 14.615C108.487 14.6436 108.476 14.6707 108.459 14.6932C108.441 14.7157 108.417 14.7325 108.39 14.7417C108.363 14.7509 108.334 14.752 108.306 14.7449C108.278 14.7378 108.253 14.7228 108.234 14.7017L107.768 14.1961C107.754 14.1812 107.743 14.1636 107.736 14.1443C107.729 14.125 107.726 14.1046 107.728 14.0842L107.941 11.177C107.942 11.1584 107.946 11.1401 107.954 11.1233C107.962 11.1065 107.974 11.0916 107.988 11.0795L108.53 10.5739C108.552 10.5537 108.58 10.5409 108.61 10.5372C108.641 10.5335 108.671 10.5392 108.698 10.5533C108.725 10.5675 108.746 10.5895 108.76 10.6165C108.774 10.6434 108.779 10.6739 108.775 10.704Z" fill="#2E7992"/>
<path d="M109.111 6.06379L108.826 9.9857C108.824 10.0145 108.813 10.0421 108.796 10.0651C108.778 10.0881 108.755 10.1055 108.727 10.1151C108.7 10.1247 108.671 10.1261 108.643 10.1192C108.614 10.1122 108.589 10.0972 108.569 10.076L108.1 9.56679C108.087 9.55202 108.077 9.53484 108.071 9.51624C108.065 9.49764 108.062 9.47799 108.064 9.45844L108.273 6.55132C108.277 6.51424 108.293 6.47963 108.32 6.45381L108.862 5.94462C108.884 5.92412 108.911 5.91068 108.941 5.90607C108.97 5.90146 109 5.90589 109.027 5.91879C109.054 5.93168 109.077 5.95244 109.092 5.97832C109.107 6.0042 109.113 6.03399 109.111 6.06379Z" fill="#2E7992"/>
</g>
<path opacity="0.4" d="M102.437 16.7813C102.449 16.6465 102.51 16.5206 102.609 16.428C102.707 16.3353 102.837 16.2824 102.972 16.2793H109.111C109.183 16.2786 109.254 16.2928 109.32 16.321C109.386 16.3491 109.445 16.3906 109.495 16.4428C109.544 16.4951 109.582 16.5569 109.606 16.6245C109.63 16.6921 109.64 16.7639 109.635 16.8355C109.623 16.9709 109.562 17.0972 109.462 17.19C109.363 17.2827 109.233 17.3353 109.097 17.3374H102.972C102.899 17.3408 102.826 17.3285 102.758 17.3015C102.69 17.2744 102.629 17.2332 102.579 17.1805C102.528 17.1279 102.489 17.065 102.465 16.9962C102.441 16.9273 102.431 16.8541 102.437 16.7813Z" fill="#2E7992"/>
<path opacity="0.4" d="M94.7597 16.7813C94.7712 16.6465 94.8321 16.5206 94.9308 16.428C95.0294 16.3353 95.1588 16.2824 95.2941 16.2793H101.433C101.505 16.2786 101.576 16.2928 101.642 16.321C101.708 16.3491 101.768 16.3906 101.817 16.4428C101.866 16.4951 101.904 16.5569 101.928 16.6245C101.952 16.6921 101.962 16.7639 101.957 16.8355C101.945 16.9709 101.884 17.0972 101.785 17.19C101.685 17.2827 101.555 17.3353 101.419 17.3374H95.2797C95.2079 17.3387 95.1367 17.3249 95.0706 17.2969C95.0045 17.2689 94.9451 17.2274 94.896 17.175C94.847 17.1225 94.8096 17.0604 94.7861 16.9926C94.7626 16.9248 94.7536 16.8528 94.7597 16.7813Z" fill="#2E7992"/>
<path opacity="0.4" d="M87.0829 16.7813C87.0944 16.6464 87.1554 16.5206 87.254 16.428C87.3527 16.3353 87.4821 16.2824 87.6174 16.2793H93.7566C93.8281 16.2791 93.8988 16.2937 93.9643 16.322C94.0299 16.3504 94.0889 16.392 94.1377 16.4441C94.1865 16.4963 94.224 16.558 94.2479 16.6253C94.2719 16.6927 94.2816 16.7642 94.2767 16.8354C94.2659 16.9712 94.2046 17.098 94.1051 17.1909C94.0055 17.2838 93.8747 17.336 93.7386 17.3374H87.5993C87.5279 17.3382 87.457 17.324 87.3914 17.2958C87.3257 17.2676 87.2667 17.2259 87.2181 17.1736C87.1695 17.1212 87.1323 17.0593 87.109 16.9917C87.0858 16.9242 87.0768 16.8525 87.0829 16.7813Z" fill="#2E7992"/>
<path opacity="0.4" d="M79.4052 16.7813C79.4167 16.6464 79.4776 16.5206 79.5763 16.428C79.6749 16.3353 79.8043 16.2824 79.9396 16.2793H86.0789C86.1503 16.2791 86.221 16.2937 86.2866 16.322C86.3522 16.3504 86.4112 16.392 86.46 16.4441C86.5088 16.4963 86.5463 16.558 86.5702 16.6253C86.5941 16.6927 86.6039 16.7642 86.5989 16.8354C86.5881 16.9712 86.5269 17.098 86.4273 17.1909C86.3278 17.2838 86.197 17.336 86.0608 17.3374H79.9216C79.8501 17.3382 79.7793 17.324 79.7136 17.2958C79.648 17.2676 79.589 17.2259 79.5403 17.1736C79.4917 17.1212 79.4546 17.0593 79.4313 16.9917C79.408 16.9242 79.3991 16.8525 79.4052 16.7813Z" fill="#2E7992"/>
<path opacity="0.1" d="M62.4491 46.528L64.7098 29.8184C64.7942 29.2707 65.0682 28.7701 65.484 28.4038C65.8998 28.0375 66.431 27.8288 66.985 27.8141H83.6946C83.9481 27.8072 84.1999 27.8566 84.432 27.9589C84.664 28.0612 84.8704 28.2137 85.0363 28.4055C85.2022 28.5973 85.3233 28.8235 85.3911 29.0679C85.4588 29.3122 85.4715 29.5686 85.428 29.8184L83.1673 46.528C83.0837 47.0754 82.8104 47.576 82.3952 47.9423C81.98 48.3087 81.4493 48.5175 80.8958 48.5323H64.1826C63.9291 48.5393 63.6772 48.4898 63.4452 48.3876C63.2132 48.2853 63.0068 48.1328 62.8409 47.941C62.675 47.7492 62.5538 47.5229 62.4861 47.2786C62.4183 47.0342 62.4057 46.7779 62.4491 46.528Z" fill="#707070"/>
<path opacity="0.1" d="M86.2555 46.5282L88.527 29.8185C88.6114 29.2709 88.8854 28.7702 89.3012 28.4039C89.717 28.0376 90.2482 27.8289 90.8021 27.8142H107.512C107.765 27.8066 108.018 27.8556 108.25 27.9577C108.482 28.0597 108.689 28.2123 108.855 28.4042C109.021 28.5962 109.142 28.8227 109.21 29.0674C109.277 29.312 109.289 29.5686 109.245 29.8185L106.988 46.5282C106.903 47.0755 106.629 47.5758 106.213 47.942C105.798 48.3081 105.267 48.5171 104.713 48.5325H87.9853C87.7319 48.5395 87.4802 48.4901 87.2483 48.3878C87.0164 48.2855 86.8101 48.1329 86.6445 47.941C86.4789 47.7491 86.3581 47.5228 86.2908 47.2784C86.2235 47.0341 86.2114 46.7778 86.2555 46.5282Z" fill="#707070"/>
<path opacity="0.1" d="M59.2321 70.3341L61.4927 53.6172C61.5778 53.0699 61.852 52.5696 62.2677 52.2034C62.6833 51.8373 63.2142 51.6283 63.7679 51.6129H80.4775C80.731 51.606 80.9829 51.6554 81.2149 51.7577C81.4469 51.86 81.6533 52.0125 81.8192 52.2043C81.9851 52.3961 82.1063 52.6224 82.174 52.8667C82.2418 53.1111 82.2544 53.3674 82.211 53.6172L79.9503 70.3305C79.8659 70.8772 79.5923 71.3769 79.1771 71.7425C78.762 72.1082 78.2317 72.3165 77.6787 72.3312H60.9655C60.7127 72.3379 60.4616 72.2886 60.2302 72.1867C59.9988 72.0849 59.7928 71.933 59.6271 71.7421C59.4613 71.5511 59.3399 71.3258 59.2716 71.0824C59.2033 70.8389 59.1898 70.5834 59.2321 70.3341Z" fill="#707070"/>
<path opacity="0.1" d="M83.0374 70.3341L85.2945 53.6172C85.3796 53.0699 85.6538 52.5696 86.0694 52.2034C86.4851 51.8373 87.0159 51.6283 87.5696 51.6129H104.279C104.533 51.606 104.785 51.6554 105.017 51.7577C105.249 51.86 105.455 52.0125 105.621 52.2043C105.787 52.3961 105.908 52.6224 105.976 52.8667C106.044 53.1111 106.056 53.3674 106.013 53.6172L103.756 70.3305C103.67 70.8772 103.395 71.3766 102.98 71.7421C102.564 72.1075 102.034 72.3159 101.48 72.3312H84.7672C84.5146 72.338 84.2636 72.2887 84.0323 72.1869C83.801 72.085 83.5952 71.933 83.4297 71.742C83.2642 71.551 83.1432 71.3256 83.0754 71.0821C83.0075 70.8387 82.9946 70.5832 83.0374 70.3341Z" fill="#707070"/>
<path d="M61.3368 46.528L63.6083 29.8184C63.6927 29.2707 63.9667 28.7701 64.3825 28.4038C64.7983 28.0375 65.3295 27.8288 65.8835 27.8141H82.5931C82.8466 27.8072 83.0984 27.8566 83.3305 27.9589C83.5625 28.0612 83.7689 28.2137 83.9348 28.4055C84.1007 28.5973 84.2219 28.8235 84.2896 29.0679C84.3574 29.3122 84.37 29.5686 84.3266 29.8184L82.0659 46.528C81.9822 47.0754 81.709 47.576 81.2938 47.9423C80.8786 48.3087 80.3479 48.5175 79.7943 48.5323H63.0702C62.8168 48.5393 62.5649 48.4898 62.3329 48.3876C62.1009 48.2853 61.8944 48.1328 61.7286 47.941C61.5627 47.7492 61.4415 47.5229 61.3738 47.2786C61.306 47.0342 61.2934 46.7779 61.3368 46.528Z" fill="#2E7992"/>
<path opacity="0.2" d="M61.3368 46.528L63.6083 29.8184C63.6927 29.2707 63.9667 28.7701 64.3825 28.4038C64.7983 28.0375 65.3295 27.8288 65.8835 27.8141H82.5931C82.8466 27.8072 83.0984 27.8566 83.3305 27.9589C83.5625 28.0612 83.7689 28.2137 83.9348 28.4055C84.1007 28.5973 84.2219 28.8235 84.2896 29.0679C84.3574 29.3122 84.37 29.5686 84.3266 29.8184L82.0659 46.528C81.9822 47.0754 81.709 47.576 81.2938 47.9423C80.8786 48.3087 80.3479 48.5175 79.7943 48.5323H63.0702C62.8168 48.5393 62.5649 48.4898 62.3329 48.3876C62.1009 48.2853 61.8944 48.1328 61.7286 47.941C61.5627 47.7492 61.4415 47.5229 61.3738 47.2786C61.306 47.0342 61.2934 46.7779 61.3368 46.528Z" fill="white"/>
<path d="M85.1432 46.5282L87.4003 29.8185C87.4847 29.2709 87.7587 28.7702 88.1744 28.4039C88.5902 28.0376 89.1215 27.8289 89.6754 27.8142H106.385C106.639 27.8066 106.891 27.8556 107.123 27.9577C107.356 28.0597 107.562 28.2123 107.728 28.4042C107.894 28.5962 108.015 28.8227 108.083 29.0674C108.15 29.312 108.163 29.5686 108.118 29.8185L105.861 46.5282C105.776 47.0755 105.502 47.5758 105.086 47.942C104.671 48.3081 104.14 48.5171 103.586 48.5325H86.873C86.6196 48.5395 86.3679 48.4901 86.136 48.3878C85.904 48.2855 85.6978 48.1329 85.5322 47.941C85.3666 47.7491 85.2458 47.5228 85.1785 47.2784C85.1112 47.0341 85.0991 46.7778 85.1432 46.5282Z" fill="#2E7992"/>
<path opacity="0.2" d="M85.1432 46.5282L87.4003 29.8185C87.4847 29.2709 87.7587 28.7702 88.1744 28.4039C88.5902 28.0376 89.1215 27.8289 89.6754 27.8142H106.385C106.639 27.8066 106.891 27.8556 107.123 27.9577C107.356 28.0597 107.562 28.2123 107.728 28.4042C107.894 28.5962 108.015 28.8227 108.083 29.0674C108.15 29.312 108.163 29.5686 108.118 29.8185L105.861 46.5282C105.776 47.0755 105.502 47.5758 105.086 47.942C104.671 48.3081 104.14 48.5171 103.586 48.5325H86.873C86.6196 48.5395 86.3679 48.4901 86.136 48.3878C85.904 48.2855 85.6978 48.1329 85.5322 47.941C85.3666 47.7491 85.2458 47.5228 85.1785 47.2784C85.1112 47.0341 85.0991 46.7778 85.1432 46.5282Z" fill="white"/>
<path d="M58.1197 70.3341L60.3804 53.6172C60.4655 53.0699 60.7397 52.5696 61.1554 52.2034C61.571 51.8373 62.1019 51.6283 62.6556 51.6129H79.3652C79.6187 51.606 79.8706 51.6554 80.1026 51.7577C80.3346 51.86 80.541 52.0125 80.7069 52.2043C80.8728 52.3961 80.994 52.6224 81.0617 52.8667C81.1295 53.1111 81.1421 53.3674 81.0986 53.6172L78.838 70.3305C78.7536 70.8772 78.48 71.3769 78.0648 71.7425C77.6497 72.1082 77.1194 72.3165 76.5664 72.3312H59.8532C59.6004 72.3379 59.3493 72.2886 59.1179 72.1867C58.8865 72.0849 58.6805 71.933 58.5148 71.7421C58.349 71.5511 58.2276 71.3258 58.1593 71.0824C58.091 70.8389 58.0775 70.5834 58.1197 70.3341Z" fill="#2E7992"/>
<path opacity="0.2" d="M58.1197 70.3341L60.3804 53.6172C60.4655 53.0699 60.7397 52.5696 61.1554 52.2034C61.571 51.8373 62.1019 51.6283 62.6556 51.6129H79.3652C79.6187 51.606 79.8706 51.6554 80.1026 51.7577C80.3346 51.86 80.541 52.0125 80.7069 52.2043C80.8728 52.3961 80.994 52.6224 81.0617 52.8667C81.1295 53.1111 81.1421 53.3674 81.0986 53.6172L78.838 70.3305C78.7536 70.8772 78.48 71.3769 78.0648 71.7425C77.6497 72.1082 77.1194 72.3165 76.5664 72.3312H59.8532C59.6004 72.3379 59.3493 72.2886 59.1179 72.1867C58.8865 72.0849 58.6805 71.933 58.5148 71.7421C58.349 71.5511 58.2276 71.3258 58.1593 71.0824C58.091 70.8389 58.0775 70.5834 58.1197 70.3341Z" fill="white"/>
<path d="M81.9251 70.3341L84.193 53.6172C84.2781 53.0699 84.5523 52.5696 84.9679 52.2034C85.3836 51.8373 85.9144 51.6283 86.4682 51.6129H103.178C103.431 51.606 103.683 51.6554 103.915 51.7577C104.147 51.86 104.354 52.0125 104.519 52.2043C104.685 52.3961 104.807 52.6224 104.874 52.8667C104.942 53.1111 104.955 53.3674 104.911 53.6172L102.654 70.3305C102.568 70.8772 102.294 71.3766 101.878 71.7421C101.463 72.1075 100.932 72.3159 100.379 72.3312H83.6549C83.4023 72.338 83.1513 72.2887 82.92 72.1869C82.6887 72.085 82.4829 71.933 82.3174 71.742C82.1519 71.551 82.0309 71.3256 81.9631 71.0821C81.8952 70.8387 81.8823 70.5832 81.9251 70.3341Z" fill="#2E7992"/>
<path opacity="0.2" d="M81.9251 70.3341L84.193 53.6172C84.2781 53.0699 84.5523 52.5696 84.9679 52.2034C85.3836 51.8373 85.9144 51.6283 86.4682 51.6129H103.178C103.431 51.606 103.683 51.6554 103.915 51.7577C104.147 51.86 104.354 52.0125 104.519 52.2043C104.685 52.3961 104.807 52.6224 104.874 52.8667C104.942 53.1111 104.955 53.3674 104.911 53.6172L102.654 70.3305C102.568 70.8772 102.294 71.3766 101.878 71.7421C101.463 72.1075 100.932 72.3159 100.379 72.3312H83.6549C83.4023 72.338 83.1513 72.2887 82.92 72.1869C82.6887 72.085 82.4829 71.933 82.3174 71.742C82.1519 71.551 82.0309 71.3256 81.9631 71.0821C81.8952 70.8387 81.8823 70.5832 81.9251 70.3341Z" fill="white"/>
<path d="M71.8863 45.1275C71.6332 45.1332 71.3819 45.0828 71.1506 44.9801C70.9192 44.8774 70.7133 44.7249 70.5477 44.5334C70.3821 44.342 70.2609 44.1163 70.1926 43.8725C70.1243 43.6287 70.1107 43.3729 70.1528 43.1232L71.4926 33.2282C71.5783 32.6807 71.8525 32.1804 72.268 31.8138C72.6834 31.4471 73.2139 31.2372 73.7678 31.2203C74.0214 31.2139 74.2733 31.2638 74.5053 31.3665C74.7373 31.4692 74.9437 31.6221 75.1095 31.8141C75.2753 32.0062 75.3964 32.2326 75.4642 32.4772C75.5319 32.7217 75.5445 32.9782 75.5012 33.2282L74.165 43.1232C74.0785 43.6706 73.8034 44.1705 73.3873 44.5365C72.9712 44.9025 72.4402 45.1116 71.8863 45.1275Z" fill="white"/>
<path d="M65.8726 38.1753C65.959 37.6276 66.234 37.1272 66.65 36.7606C67.0661 36.394 67.5971 36.1842 68.1513 36.1674H78.0536C78.3071 36.1617 78.5587 36.2121 78.7904 36.315C79.022 36.4179 79.2281 36.5708 79.3938 36.7627C79.5594 36.9546 79.6806 37.1807 79.7486 37.425C79.8166 37.6692 79.8297 37.9254 79.7871 38.1753C79.7007 38.7221 79.4261 39.2216 79.0107 39.5875C78.5953 39.9534 78.0652 40.1629 77.5119 40.1796H67.6169C67.3629 40.1869 67.1104 40.1378 66.8777 40.0358C66.645 39.9338 66.4377 39.7815 66.2709 39.5898C66.1041 39.3981 65.9819 39.1719 65.913 38.9273C65.8441 38.6827 65.8303 38.4259 65.8726 38.1753Z" fill="white"/>
<path d="M64.0274 66.8923C63.352 66.1123 63.5254 64.8375 64.4102 64.0574L72.3551 57.0587C73.2399 56.2786 74.5219 56.2786 75.19 57.0587C75.8653 57.8387 75.692 59.1171 74.8072 59.8972L66.8623 66.8923C65.9775 67.6724 64.6918 67.6724 64.0274 66.8923Z" fill="white"/>
<path d="M65.3564 57.0587C66.2412 56.2786 67.5232 56.2786 68.195 57.0587L74.2439 64.0574C74.9193 64.8375 74.7459 66.1123 73.8611 66.8923C72.9764 67.6724 71.6943 67.6724 71.0262 66.8923L64.9736 59.8972C64.2983 59.1171 64.4717 57.8387 65.3564 57.0587Z" fill="white"/>
<path d="M89.6753 38.1754C89.7617 37.6277 90.0367 37.1273 90.4527 36.7607C90.8688 36.3941 91.3998 36.1843 91.9541 36.1675H101.849C102.103 36.1611 102.355 36.2111 102.587 36.3138C102.819 36.4165 103.025 36.5694 103.191 36.7614C103.357 36.9535 103.478 37.1799 103.546 37.4244C103.613 37.6689 103.626 37.9254 103.583 38.1754C103.496 38.7222 103.222 39.2217 102.806 39.5876C102.391 39.9535 101.861 40.163 101.307 40.1797H91.416C91.1623 40.1865 90.9102 40.1369 90.678 40.0347C90.4457 39.9325 90.2389 39.7801 90.0725 39.5885C89.9061 39.3969 89.7842 39.1708 89.7155 38.9265C89.6468 38.6822 89.6331 38.4257 89.6753 38.1754Z" fill="white"/>
<path d="M86.88 58.8573C86.9665 58.3099 87.2416 57.81 87.6577 57.444C88.0739 57.078 88.6048 56.8689 89.1587 56.853H99.0538C99.3069 56.8473 99.5581 56.8976 99.7895 57.0003C100.021 57.103 100.227 57.2556 100.392 57.447C100.558 57.6385 100.679 57.8642 100.747 58.108C100.816 58.3518 100.829 58.6076 100.787 58.8573C100.702 59.4047 100.427 59.905 100.012 60.2717C99.5965 60.6383 99.0659 60.8482 98.5121 60.8652H88.6134C88.36 60.8709 88.1084 60.8205 87.8767 60.7176C87.645 60.6147 87.4389 60.4618 87.2733 60.2699C87.1076 60.078 86.9864 59.8519 86.9184 59.6076C86.8505 59.3634 86.8373 59.1072 86.88 58.8573Z" fill="white"/>
<path d="M86.0389 65.0937C86.1253 64.5469 86.3999 64.0474 86.8153 63.6815C87.2306 63.3156 87.7607 63.1062 88.314 63.0894H98.2091C98.4625 63.0832 98.7141 63.1331 98.9459 63.2356C99.1778 63.338 99.3841 63.4905 99.5501 63.682C99.7161 63.8736 99.8377 64.0995 99.9062 64.3435C99.9746 64.5876 99.9883 64.8437 99.9461 65.0937C99.8597 65.6414 99.5847 66.1418 99.1687 66.5084C98.7526 66.875 98.2216 67.0848 97.6674 67.1016H87.7723C87.5187 67.108 87.2668 67.058 87.0348 66.9553C86.8028 66.8526 86.5964 66.6997 86.4306 66.5077C86.2648 66.3156 86.1437 66.0892 86.0759 65.8447C86.0082 65.6002 85.9955 65.3437 86.0389 65.0937Z" fill="white"/>
<path d="M41.0082 129.127C40.2412 129.242 39.8228 129.88 39.7479 130.155C39.6555 130.488 38.7943 130.27 38.2208 129.915C37.6473 129.559 37.52 129.054 36.9918 128.365C36.6658 127.94 36.3259 127.786 36.1132 127.73C36.033 128.043 35.9441 128.32 35.8482 128.492C35.4874 129.146 35.5902 130.283 36.1673 130.49C36.7443 130.697 41.8083 131.506 42.9101 131.023C43.576 130.732 42.2337 129.918 41.0082 129.129V129.127Z" fill="#EF5E4E"/>
<path d="M36.9914 128.364C37.5196 129.052 37.6451 129.558 38.2204 129.913C38.7939 130.269 39.6551 130.487 39.7475 130.154C39.8224 129.88 40.2425 129.242 41.0078 129.125C40.2059 128.609 39.4546 128.106 39.3448 127.766C39.0693 126.905 39.1042 125.63 38.7591 125.372C38.4139 125.114 36.58 125.06 36.4859 125.7C36.4859 125.7 36.3359 126.857 36.1128 127.729C36.3237 127.785 36.6637 127.938 36.9914 128.364Z" fill="#9388CD"/>
<path d="M14.605 128.524C15.3581 128.711 15.7137 129.386 15.7643 129.666C15.8253 130.006 16.7021 129.87 17.307 129.569C17.912 129.269 18.0845 128.777 18.6755 128.141C19.0398 127.747 19.3937 127.627 19.6081 127.592C19.6587 127.911 19.7214 128.193 19.7999 128.375C20.098 129.06 19.8888 130.182 19.2961 130.334C18.7016 130.486 13.5852 130.817 12.5323 130.233C11.896 129.881 13.3081 129.196 14.6033 128.524H14.605Z" fill="#EF5E4E"/>
<path d="M18.675 128.141C18.084 128.777 17.9115 129.269 17.3066 129.569C16.7017 129.869 15.8231 130.006 15.7638 129.666C15.715 129.386 15.3576 128.711 14.6046 128.525C15.4518 128.087 16.2467 127.655 16.3879 127.325C16.7435 126.494 16.8289 125.221 17.195 124.996C17.5628 124.771 19.3932 124.89 19.4281 125.535C19.4281 125.535 19.4682 126.701 19.6094 127.59C19.3932 127.625 19.0411 127.747 18.6767 128.139L18.675 128.141Z" fill="#9388CD"/>
<path d="M35.0938 39.8282C35.0938 39.8282 34.8445 39.2181 33.9659 39.11C33.0873 39.0019 32.1512 39.6801 31.6352 40.4122C31.1192 41.1444 31.7589 44.4129 33.3243 44.3327C34.8898 44.2508 35.0537 40.074 35.0938 39.83V39.8282Z" fill="#073C4B"/>
<path d="M52.0758 55.8103C50.8608 55.9462 49.4837 56.0142 48.1152 55.9724C45.8298 55.9009 43.5758 55.5174 42.1638 54.6179C41.9442 54.4785 41.7419 54.3285 41.5537 54.1682C39.2334 52.1983 39.0434 48.7641 38.3775 47.0104L52.944 49.7595C52.944 49.7595 68.0979 39.9556 69.3844 41.1567C70.6709 42.3578 59.4933 54.9805 52.0776 55.812L52.0758 55.8103Z" fill="#9388CD"/>
<path d="M50.5312 48.9767L49.3284 56.3453C49.3284 56.3453 45.0209 56.3453 42.8035 55.268C40.5861 54.1907 36.7475 49.1022 36.7458 48.3317C36.7458 47.5612 37.3001 46.6094 37.3001 46.6094L50.5312 48.9749V48.9767Z" fill="#F29892"/>
<path d="M30.3183 57.0567C30.6146 52.2001 28.2159 50.1064 30.5641 48.0163C32.6019 46.2016 33.1754 46.2801 35.2376 46.2312C36.9704 46.1912 40.5196 47.706 41.6127 49.1651C45.0939 53.8108 42.9776 53.6522 43.525 60.4944C43.5912 61.3154 43.701 62.2341 43.8405 63.1755C44.0009 64.523 44.0933 66.0117 44.3164 67.2616C39.3709 68.4365 30.8883 69.7492 28.2142 69.3203C28.3222 68.9124 30.2816 57.6511 30.3183 57.0602V57.0567Z" fill="#F6BFBB"/>
<path d="M43.1912 97.4987C43.0971 98.2169 42.4032 103.218 42.1208 105.08C41.2876 110.566 40.2277 125.647 40.2277 125.647C40.2277 125.647 38.9185 126.455 36.6593 126.447C32.9201 126.433 31.1542 125.647 31.1542 125.647C31.1542 125.647 33.1624 101.566 33.3036 99.8921C34.0079 91.4932 34.7138 83.1118 34.8045 81.9543L21.8035 125.647C21.8035 125.647 20.5971 126.259 17.9753 126.279C15.5261 126.299 14.3599 125.647 14.3599 125.647C14.3599 125.647 15.1844 121.939 15.4581 120.703L17.0968 113.331L17.9248 109.604L19.0091 104.721C22.6908 85.2455 26.9809 73.2503 28.6526 67.9649C29.3464 68.0799 30.4098 68.1671 31.6946 68.2107C31.855 68.2159 32.0188 68.2211 32.1879 68.2246C35.772 68.3135 40.7995 68.0834 44.3487 67.2432C44.4254 68.0276 44.7985 69.7604 44.8996 70.3461C45.3389 72.9261 45.2255 79.913 44.8734 83.1101C44.4742 86.7325 43.9582 91.6554 43.1929 97.4987H43.1912Z" fill="#79B9D3"/>
<path d="M36.9677 75.0507C36.3088 76.468 35.8921 77.9724 35.4319 79.4629C35.207 80.1915 34.9891 80.9359 34.6597 81.6245C34.3581 82.2538 34.0147 82.8709 34.0025 83.5856C33.9955 83.9622 34.5812 83.9622 34.5882 83.5856C34.6004 82.8901 35.0048 82.2939 35.2785 81.6768C35.5731 81.0143 35.784 80.3101 35.9985 79.6163C36.443 78.1764 36.8387 76.7155 37.475 75.3436C37.6319 75.0037 37.1281 74.7073 36.9695 75.049L36.9677 75.0507Z" fill="#579AB4"/>
<path d="M38.5727 76.1604C37.9451 76.8211 37.1729 77.6927 36.2629 77.9385C35.9003 78.0361 36.0537 78.6009 36.418 78.5033C37.4326 78.2279 38.285 77.3144 38.9858 76.5753C39.2456 76.3016 38.8324 75.8885 38.5727 76.1622V76.1604Z" fill="#579AB4"/>
<path d="M53.1585 49.3797C52.639 49.6726 52.1631 50.0352 51.6489 50.3368C51.4693 50.4431 51.6314 50.7238 51.8127 50.6174C52.327 50.3158 52.8029 49.9532 53.3224 49.6604C53.5054 49.5575 53.3415 49.2769 53.1585 49.3797Z" fill="#7363BA"/>
<path d="M33.3816 43.4344L33.1044 46.6559C33.0696 47.2364 34.4293 48.8035 35.3916 48.1167C35.6722 47.9162 35.3602 47.0986 35.1388 46.4833L34.6036 43.9852L33.3834 43.4326L33.3816 43.4344Z" fill="#9388CD"/>
<path d="M33.3884 41.4336C33.3884 41.4336 33.2123 42.3314 33.2559 42.9833C33.3204 43.9473 33.9846 44.364 34.9521 44.4302C35.8952 44.4947 36.2072 44.2751 36.3745 43.6179C36.4164 43.454 36.4513 43.2117 36.4373 42.9903C36.4146 42.6225 36.2368 42.0123 35.9527 41.6236C35.8237 41.4458 35.7261 41.1564 35.6494 41.0152C35.095 39.9867 33.7405 40.0756 33.3867 41.4336H33.3884Z" fill="#9388CD"/>
<path d="M33.1484 42.2544C33.0943 42.1515 33.0577 42.0417 33.0264 41.9301C32.9671 41.7175 32.8311 41.4159 32.5557 41.6582C32.1565 42.0121 32.533 43.126 33.0856 43.0667C33.4953 43.0214 33.2843 42.5141 33.1484 42.2544Z" fill="#9388CD"/>
<path d="M33.8017 43.8849C33.7302 44.0401 34.0823 45.3092 34.94 45.5637L34.797 44.7147C34.7744 44.5857 34.8197 44.4219 34.9505 44.4323H34.9522C35.7245 44.4846 36.0731 44.3486 36.2666 43.9355C36.0905 44.0244 35.6843 44.197 35.2416 44.183C34.6506 44.1639 33.8784 43.7211 33.8034 43.8849H33.8017Z" fill="#7363BA"/>
<path d="M34.8094 42.8276C35.2609 42.859 35.7804 42.7457 35.9738 42.6446C36.0401 42.6097 36.122 42.6568 36.1255 42.7265C36.2005 44.0444 35.0046 43.5075 34.7379 42.9775C34.6996 42.9008 34.7205 42.8207 34.8094 42.8276Z" fill="white"/>
<path d="M34.0263 41.3917C34.2338 41.2192 34.4168 41.0832 34.7027 41.1337C34.7829 41.1477 34.7881 41.2505 34.6853 41.2784C34.4028 41.3551 34.3122 41.3726 34.0821 41.5155C33.9792 41.58 33.906 41.4911 34.0263 41.3917Z" fill="#073C4B"/>
<path d="M35.8882 41.1131C35.7732 41.0364 35.6337 41.0451 35.5134 41.0591C35.4333 41.0678 35.388 41.1515 35.4908 41.1794C35.7732 41.2561 35.7697 41.2212 35.9022 41.2787C35.9963 41.3188 36.0207 41.2003 35.89 41.1131H35.8882Z" fill="#073C4B"/>
<path d="M66.5047 42.0703C68.03 41.2963 68.7221 40.3811 69.3096 39.8686C70.3503 38.9586 72.1475 37.6773 72.4526 38.0016C72.6757 38.2386 71.1312 39.1242 71.1312 39.1242C71.1312 39.1242 71.8547 40.0586 71.6019 40.6914C71.3491 41.3242 69.0324 43.3986 68.0666 43.1441C67.1009 42.8896 65.5215 42.5688 66.5029 42.072L66.5047 42.0703Z" fill="#9388CD"/>
<path d="M30.8943 48.396C30.1587 48.1136 16.1204 52.714 13.7601 62.9537C11.9785 70.685 25.75 77.2971 26.7576 75.7386C28.6595 72.7978 20.1142 67.9882 19.8753 63.9666C19.6365 59.9467 36.2669 50.4618 30.8961 48.3943L30.8943 48.396Z" fill="#9388CD"/>
<path d="M27.8537 74.0865C28.6207 74.015 29.5115 73.4764 29.3162 74.0726C29.121 74.6687 28.3226 74.6862 28.1465 75.0889C27.9705 75.4915 30.2018 76.8809 29.8549 77.2208C29.6248 77.4457 28.5736 76.4155 28.5388 76.5061C28.5021 76.5968 29.6388 77.5032 29.3389 77.7717C28.9711 78.1012 28.3941 78.1761 27.8415 77.9112C27.9478 78.0733 28.0088 78.2267 27.9339 78.3051C27.7316 78.516 24.036 75.448 26.0756 74.3358C26.5166 74.0952 26.6735 74.1963 27.8554 74.0848L27.8537 74.0865Z" fill="#9388CD"/>
<path d="M24.6241 58.5836L20.6809 53.2615C20.6809 53.2615 25.8182 48.6455 31.6267 47.1445C31.6267 47.1445 32.2386 47.4304 32.3519 49.3567C32.5593 52.8641 26.8607 57.1768 24.6241 58.5819V58.5836Z" fill="#F6BFBB"/>
<path d="M35.0936 39.8283C35.0936 39.8283 35.6654 40.5465 35.7055 40.6964C35.7456 40.8463 33.6415 41.1828 33.3887 41.4338C33.1377 41.6848 33.1534 41.1985 33.1935 40.9684C33.2336 40.7382 33.8036 39.056 35.0919 39.8283H35.0936Z" fill="#073C4B"/>
<path d="M32.5261 39.8256C32.5261 39.8256 31.2326 38.6402 30.0123 39.3009C28.7921 39.9616 29.0623 42.7455 28.7276 43.2615C28.3929 43.7775 27.3435 42.864 26.2958 43.6502C25.2464 44.4364 25.6717 46.1378 27.0558 46.7061C28.4399 47.2762 29.723 46.7148 30.2023 46.2546C30.6817 45.7927 31.0077 45.5382 31.1419 44.1924C31.1838 43.7775 31.44 41.452 31.8479 41.208C32.2541 40.9639 32.8015 40.0365 32.5261 39.8239V39.8256Z" fill="#073C4B"/>
<path d="M19.3345 65.5567C19.5158 65.5567 19.6692 65.419 19.6866 65.2342C19.8052 63.939 20.3944 62.8843 20.4014 62.8739C20.4973 62.7048 20.438 62.4886 20.2689 62.391C20.0981 62.2951 19.8836 62.3526 19.786 62.5235C19.7581 62.5723 19.1131 63.7158 18.9824 65.1697C18.9649 65.3649 19.1079 65.5358 19.3031 65.5532C19.3136 65.5532 19.3241 65.5532 19.3363 65.5532L19.3345 65.5567Z" fill="#7363BA"/>
<path d="M40.9681 48.2914C41.7944 49.4089 42.9746 50.3275 43.4261 51.6803C43.8549 52.9685 43.8845 54.4956 43.4819 55.7943C43.3947 56.0767 42.9502 55.9564 43.0391 55.6723C43.4365 54.3893 43.4017 52.8308 42.9031 51.5792C42.4359 50.4077 41.3115 49.5274 40.5724 48.525C40.3964 48.2862 40.7956 48.0579 40.9699 48.2932L40.9681 48.2914Z" fill="#EF5E4E"/>
<path d="M62.3903 49.7596C63.3665 48.8635 64.456 48.0547 65.3939 47.1238C66.2881 46.2382 67.029 45.2359 67.7647 44.2178C68.2632 43.5293 68.6276 42.886 69.3528 42.3927C70.2505 41.7843 71.931 40.5762 71.1256 39.3089C70.967 39.0579 71.3645 38.8278 71.5231 39.077C72.196 40.1369 71.5632 40.9789 70.8624 41.7808C70.451 42.2515 69.9297 42.506 69.4451 42.8825C68.9518 43.266 68.6555 43.7332 68.3242 44.244C67.7071 45.194 66.968 46.1842 66.1627 46.9878C65.0696 48.0791 63.8546 49.0396 62.7145 50.0873C62.4966 50.2878 62.1706 49.9635 62.3885 49.7613L62.3903 49.7596Z" fill="#7363BA"/>
<path d="M29.1103 54.3252C29.4904 53.9225 29.9575 53.6506 30.4178 53.3507C30.9616 52.9951 31.4707 52.5855 32.0111 52.2229C32.229 52.0764 32.5445 52.3205 32.4608 52.5698C32.4556 52.5872 32.4503 52.6029 32.4434 52.6203C32.4033 52.7406 32.3144 52.8034 32.2168 52.8243C31.7618 53.1363 31.326 53.4745 30.8693 53.7866C30.4108 54.1003 29.9262 54.3531 29.5427 54.761C29.2707 55.0486 28.8384 54.6146 29.1086 54.3269L29.1103 54.3252Z" fill="#EF5E4E"/>
<path d="M43.1396 56.8115C43.1518 56.7156 43.2007 56.611 43.3087 56.5901C43.3262 56.5866 43.3436 56.5831 43.361 56.5796C43.6086 56.5291 43.7341 56.8463 43.5824 56.9753C43.49 57.969 43.7428 59.0637 43.8334 60.0434C43.9084 60.8418 43.9607 61.6472 44.0252 62.4473C44.1786 64.3283 44.3303 66.3836 44.8881 68.1895C44.9753 68.4737 44.5325 68.594 44.4453 68.3116C43.8857 66.5021 43.7707 64.5288 43.5824 62.6513C43.4918 61.7535 43.4395 60.854 43.3575 59.958C43.2669 58.9487 43.0054 57.8208 43.1414 56.8115H43.1396Z" fill="#EF5E4E"/>
<path d="M41.0147 46.9824C42.9218 47.1375 44.8673 47.6256 46.7343 48.0353C47.6756 48.241 48.6274 48.3996 49.5653 48.6193C50.5293 48.8442 51.4602 49.2852 52.4364 49.4421C52.7275 49.4892 52.6037 49.9319 52.3143 49.8849C51.4305 49.7437 50.5816 49.3584 49.7169 49.13C48.7913 48.8842 47.8343 48.7448 46.8981 48.5408C44.9771 48.1242 42.9759 47.6012 41.0147 47.4426C40.7219 47.4182 40.7184 46.958 41.0147 46.9824Z" fill="#EF5E4E"/>
</svg>
