<svg width="344" height="172" viewBox="0 0 344 172" fill="none" xmlns="http://www.w3.org/2000/svg">
<g clip-path="url(#clip0_2924_3678)">
<path fill-rule="evenodd" clip-rule="evenodd" d="M153.786 141.656C153.786 143.197 138.886 144.446 120.506 144.446C102.126 144.446 87.2266 143.197 87.2266 141.656C87.2266 140.115 102.126 138.865 120.506 138.865C138.886 138.865 153.786 140.115 153.786 141.656Z" fill="#EFEBEA"/>
<path fill-rule="evenodd" clip-rule="evenodd" d="M253.253 164.254C253.253 165.795 246.404 167.044 237.955 167.044C229.505 167.044 222.655 165.795 222.655 164.254C222.655 162.712 229.505 161.463 237.955 161.463C246.404 161.463 253.253 162.712 253.253 164.254Z" fill="#EFEBEA"/>
<path fill-rule="evenodd" clip-rule="evenodd" d="M281.679 163.105C281.679 164.352 276.137 165.363 269.301 165.363C262.465 165.363 256.924 164.352 256.924 163.105C256.924 161.859 262.465 160.848 269.301 160.848C276.137 160.848 281.679 161.859 281.679 163.105Z" fill="#EFEBEA"/>
<path fill-rule="evenodd" clip-rule="evenodd" d="M266.398 134.764H217.982V92.5719L239.98 76.6152L265.697 91.944L266.398 134.764Z" fill="#D6C7C7"/>
<path fill-rule="evenodd" clip-rule="evenodd" d="M209.156 134.806H149.418V57.4683L179.287 38.6758L209.156 57.4683V134.806Z" fill="#D6C7C7"/>
<path fill-rule="evenodd" clip-rule="evenodd" d="M140.549 59.4715L156.802 33.9043H179.287L217.764 59.4715H140.549Z" fill="#EF5E4E"/>
<path fill-rule="evenodd" clip-rule="evenodd" d="M121.021 59.4715L156.802 33.9043V38.6759L186.671 59.4715H121.021Z" fill="#D55A4D"/>
<path fill-rule="evenodd" clip-rule="evenodd" d="M212.602 92.482L223.494 74.2246H237.194L267.138 91.6908L212.602 92.482Z" fill="#EF5E4E"/>
<path fill-rule="evenodd" clip-rule="evenodd" d="M198.173 92.482L223.494 74.2246L223.532 76.6153L243.76 92.482H198.173Z" fill="#D55A4D"/>
<path fill-rule="evenodd" clip-rule="evenodd" d="M186.671 134.806H126.933V59.4714L156.802 38.6758L186.671 59.4714V134.806Z" fill="#EFEBEA"/>
<path fill-rule="evenodd" clip-rule="evenodd" d="M135.387 119.353H176.679V93.6875H135.387V119.353Z" fill="#BCDCE5"/>
<path fill-rule="evenodd" clip-rule="evenodd" d="M138.141 119.084H176.364V96.3906H138.141V119.084Z" fill="#E8F4F6"/>
<path fill-rule="evenodd" clip-rule="evenodd" d="M136.029 118.709H176.037V94.3316H136.029V118.709ZM176.679 119.997H135.387C135.033 119.997 134.746 119.709 134.746 119.353V93.6873C134.746 93.3313 135.033 93.043 135.387 93.043H176.679C177.033 93.043 177.32 93.3313 177.32 93.6873V119.353C177.32 119.709 177.033 119.997 176.679 119.997Z" fill="white"/>
<path fill-rule="evenodd" clip-rule="evenodd" d="M148.634 119.835C148.368 119.835 148.152 119.619 148.152 119.352V93.6863C148.152 93.4196 148.368 93.2031 148.634 93.2031C148.899 93.2031 149.115 93.4196 149.115 93.6863V119.352C149.115 119.619 148.899 119.835 148.634 119.835Z" fill="white"/>
<path fill-rule="evenodd" clip-rule="evenodd" d="M162.413 119.986C162.147 119.986 161.932 119.77 161.932 119.503V93.8367C161.932 93.57 162.147 93.3535 162.413 93.3535C162.678 93.3535 162.894 93.57 162.894 93.8367V119.503C162.894 119.77 162.678 119.986 162.413 119.986Z" fill="white"/>
<path fill-rule="evenodd" clip-rule="evenodd" d="M135.387 85.6844H176.12V61.5098H135.387V85.6844Z" fill="#BCDCE5"/>
<path fill-rule="evenodd" clip-rule="evenodd" d="M138.646 85.2913H175.69V63.957H138.646V85.2913Z" fill="#E8F4F6"/>
<path fill-rule="evenodd" clip-rule="evenodd" d="M151.85 85.725C151.673 85.725 151.529 85.581 151.529 85.4028V61.5507C151.529 61.3728 151.673 61.2285 151.85 61.2285C152.027 61.2285 152.171 61.3728 152.171 61.5507V85.4028C152.171 85.581 152.027 85.725 151.85 85.725Z" fill="white"/>
<path fill-rule="evenodd" clip-rule="evenodd" d="M160.283 85.725C160.106 85.725 159.962 85.581 159.962 85.4028V61.5507C159.962 61.3728 160.106 61.2285 160.283 61.2285C160.46 61.2285 160.604 61.3728 160.604 61.5507V85.4028C160.604 85.581 160.46 85.725 160.283 85.725Z" fill="white"/>
<path fill-rule="evenodd" clip-rule="evenodd" d="M168.716 85.725C168.539 85.725 168.395 85.581 168.395 85.4028V61.5507C168.395 61.3728 168.539 61.2285 168.716 61.2285C168.893 61.2285 169.037 61.3728 169.037 61.5507V85.4028C169.037 85.581 168.893 85.725 168.716 85.725Z" fill="white"/>
<path fill-rule="evenodd" clip-rule="evenodd" d="M176.12 67.3845H168.716C168.539 67.3845 168.395 67.2402 168.395 67.0624C168.395 66.8846 168.539 66.7402 168.716 66.7402H176.12C176.297 66.7402 176.44 66.8846 176.44 67.0624C176.44 67.2402 176.297 67.3845 176.12 67.3845Z" fill="white"/>
<path fill-rule="evenodd" clip-rule="evenodd" d="M176.12 72.3025H168.897C168.72 72.3025 168.577 72.1582 168.577 71.9804C168.577 71.8025 168.72 71.6582 168.897 71.6582H176.12C176.297 71.6582 176.44 71.8025 176.44 71.9804C176.44 72.1582 176.297 72.3025 176.12 72.3025Z" fill="white"/>
<path fill-rule="evenodd" clip-rule="evenodd" d="M160.283 67.5779H151.85C151.673 67.5779 151.529 67.4336 151.529 67.2557C151.529 67.0779 151.673 66.9336 151.85 66.9336H160.283C160.46 66.9336 160.604 67.0779 160.604 67.2557C160.604 67.4336 160.46 67.5779 160.283 67.5779Z" fill="white"/>
<path fill-rule="evenodd" clip-rule="evenodd" d="M160.283 72.4959H152.057C151.88 72.4959 151.736 72.3515 151.736 72.1737C151.736 71.9956 151.88 71.8516 152.057 71.8516H160.283C160.46 71.8516 160.604 71.9956 160.604 72.1737C160.604 72.3515 160.46 72.4959 160.283 72.4959Z" fill="white"/>
<path fill-rule="evenodd" clip-rule="evenodd" d="M136.029 85.0398H175.478V62.1538H136.029V85.0398ZM176.12 86.3284H135.387C135.033 86.3284 134.746 86.0398 134.746 85.6841V61.5095C134.746 61.1539 135.033 60.8652 135.387 60.8652H176.12C176.474 60.8652 176.761 61.1539 176.761 61.5095V85.6841C176.761 86.0398 176.474 86.3284 176.12 86.3284Z" fill="#FCFCFC"/>
<path fill-rule="evenodd" clip-rule="evenodd" d="M249.95 134.764H201.534V92.5719L223.532 76.6152L249.25 91.944L249.95 134.764Z" fill="#EFEBEA"/>
<path fill-rule="evenodd" clip-rule="evenodd" d="M230.305 129.299H246.287V108.062H230.305V129.299Z" fill="white"/>
<path fill-rule="evenodd" clip-rule="evenodd" d="M231.963 129.299H244.892V109.336H231.963V129.299Z" fill="#D55A4D"/>
<path fill-rule="evenodd" clip-rule="evenodd" d="M233.006 129.299H242.903V109.336H233.006V129.299Z" fill="#EF5E4E"/>
<path fill-rule="evenodd" clip-rule="evenodd" d="M241.96 120.079C241.96 120.851 241.593 121.478 241.14 121.478C240.687 121.478 240.32 120.851 240.32 120.079C240.32 119.306 240.687 118.68 241.14 118.68C241.593 118.68 241.96 119.306 241.96 120.079Z" fill="#D55A4D"/>
<path fill-rule="evenodd" clip-rule="evenodd" d="M208.798 129.699H223.633V93.8379H208.798V129.699Z" fill="#BCDCE5"/>
<path fill-rule="evenodd" clip-rule="evenodd" d="M211.271 129.338H223.289V96.166H211.271V129.338Z" fill="#E8F4F6"/>
<path fill-rule="evenodd" clip-rule="evenodd" d="M209.279 129.215H223.152V94.32H209.279V129.215ZM223.633 130.181H208.798C208.532 130.181 208.317 129.965 208.317 129.698V93.8367C208.317 93.57 208.532 93.3535 208.798 93.3535H223.633C223.898 93.3535 224.114 93.57 224.114 93.8367V129.698C224.114 129.965 223.898 130.181 223.633 130.181Z" fill="white"/>
<path fill-rule="evenodd" clip-rule="evenodd" d="M223.375 100.859H209.097C208.919 100.859 208.776 100.715 208.776 100.537C208.776 100.359 208.919 100.215 209.097 100.215H223.375C223.552 100.215 223.696 100.359 223.696 100.537C223.696 100.715 223.552 100.859 223.375 100.859Z" fill="white"/>
<path fill-rule="evenodd" clip-rule="evenodd" d="M223.375 108.461H209.097C208.919 108.461 208.776 108.317 208.776 108.139C208.776 107.96 208.919 107.816 209.097 107.816H223.375C223.552 107.816 223.696 107.96 223.696 108.139C223.696 108.317 223.552 108.461 223.375 108.461Z" fill="white"/>
<path fill-rule="evenodd" clip-rule="evenodd" d="M244.845 129.164H246.288V134.805H242.456V129.585L244.845 129.164Z" fill="#DBCFFD"/>
<path fill-rule="evenodd" clip-rule="evenodd" d="M229.69 131.044H244.845V129.164H229.69V131.044Z" fill="#F8F7FD"/>
<path fill-rule="evenodd" clip-rule="evenodd" d="M228.498 132.925H243.653V131.045H228.498V132.925Z" fill="#EEEAFE"/>
<path fill-rule="evenodd" clip-rule="evenodd" d="M227.301 134.806H242.456V132.926H227.301V134.806Z" fill="#F8F7FD"/>
<path fill-rule="evenodd" clip-rule="evenodd" d="M229.546 42.713C231.014 43.695 231.493 45.3904 231.401 46.9912C225.769 47.2589 220.129 47.3877 214.489 47.3774C214.506 45.7812 213.291 44.4836 211.675 44.2333C212.735 41.456 214.613 38.5564 217.985 38.0654C221.813 37.5107 224.785 40.8005 224.171 44.1885C224.119 44.4726 224.749 44.3776 224.806 44.1357C225.279 42.0591 227.821 41.562 229.546 42.713Z" fill="#E8F4F6"/>
<path fill-rule="evenodd" clip-rule="evenodd" d="M231.573 47.408C225.839 47.6825 220.102 47.814 214.362 47.8043C210.357 47.9779 206.34 47.9483 202.33 47.9708C200.323 47.9831 198.318 47.9973 196.311 48.0037C195.309 48.0066 194.306 48.0098 193.302 48.0111C192.381 48.0134 191.417 48.0746 190.503 47.9402V47.918C190.631 47.8971 190.759 47.88 190.888 47.8671L190.884 47.8291C190.849 47.8291 190.819 47.8133 190.812 47.775C190.624 46.5708 191.371 45.3215 192.544 44.7838C193.653 44.2745 194.992 44.4443 195.967 45.1137C196.143 43.5323 196.6 41.9631 197.501 40.6001C198.959 38.3918 201.636 36.8406 204.484 37.34C207.01 37.7807 208.929 40.0334 208.384 42.4064C209.687 41.8014 211.185 42.7788 211.1 44.1383C212.292 41.1004 214.436 38.0738 218.164 37.6367C221.707 37.2192 224.678 39.7319 224.879 42.8442C225.716 41.9145 227.107 41.4599 228.455 41.7279C231.047 42.2469 232.167 44.6824 232.036 46.9358C232.032 47.0102 231.972 47.0711 231.892 47.112C231.919 47.2344 231.79 47.3964 231.573 47.408ZM231.401 46.9905C231.494 45.3898 231.014 43.6943 229.546 42.7124C227.821 41.5614 225.279 42.0585 224.806 44.135C224.749 44.377 224.119 44.472 224.171 44.1879C224.785 40.7998 221.813 37.5101 217.985 38.0648C214.613 38.5558 212.735 41.4554 211.675 44.2326C213.292 44.4829 214.506 45.7806 214.489 47.3768C220.13 47.3871 225.769 47.2583 231.401 46.9905Z" fill="#E8F4F6"/>
<path fill-rule="evenodd" clip-rule="evenodd" d="M116.59 65.2404C116.55 64.4969 115.969 63.6761 115.492 63.2351C114.958 62.7412 114.316 62.403 113.617 62.266L113.579 62.2393C113.402 60.8489 112.901 59.5416 111.522 58.9263C111.025 58.7047 110.449 58.6068 109.919 58.734L109.913 58.6683C109.858 58.1316 109.783 57.5965 109.656 57.0717C109.415 56.0757 108.97 55.0873 108.211 54.3802C106.945 53.2015 105.128 53.1444 103.612 53.8351C102.214 54.472 101.288 55.6678 100.717 57.0717C100.397 57.8613 100.184 58.6915 100.001 59.5226C99.9709 59.6586 99.9437 59.7949 99.9154 59.9311C99.8327 59.7868 99.7451 59.6457 99.6488 59.512C99.0528 58.6838 98.2065 58.044 97.2274 57.7521C96.232 57.4551 95.1605 57.5295 94.203 57.929C93.7317 58.1255 93.2848 58.4116 92.9015 58.753C92.8748 58.7041 92.8501 58.659 92.8303 58.6235C92.4309 57.9084 91.7829 57.4477 90.9818 57.3053L90.952 57.3018C90.9234 57.2956 90.8942 57.2918 90.8638 57.2902C90.4041 57.2663 89.9434 57.3369 89.5392 57.5553C89.5186 56.9883 89.5119 56.421 89.4911 55.854C89.4455 54.6121 89.3088 53.4047 88.9091 52.2237C88.256 50.5228 86.9981 48.8673 85.1603 48.3953C83.0186 47.8454 81.0954 49.3743 79.9351 51.0337C78.5294 53.0446 77.8079 55.5219 77.7703 57.968C77.7514 59.2063 77.9105 60.4391 78.2512 61.6295C78.2708 61.6978 78.3003 61.7761 78.3366 61.8576C78.2429 61.8395 78.1428 61.8241 78.0356 61.8083C77.4428 61.7226 76.8378 61.7902 76.2918 62.0441C74.9598 62.6629 74.4125 64.1045 74.9085 65.4679L74.9249 65.5001C74.9005 65.6702 74.9909 65.8622 75.126 65.9627C75.7734 66.4466 77.1457 66.2162 77.9368 66.2275C79.3272 66.2468 80.7175 66.2207 82.1075 66.2085C84.6508 66.1859 87.1948 66.203 89.7378 66.2037C95.0451 66.2053 100.353 66.2062 105.66 66.2062C108.333 66.2062 111.007 66.2636 113.68 66.2343C114.258 66.2278 114.836 66.2162 115.414 66.1959C115.741 66.1847 116.413 66.3045 116.677 66.0555C116.943 65.8042 116.84 65.4444 116.59 65.2404Z" fill="#E8F4F6"/>
<path fill-rule="evenodd" clip-rule="evenodd" d="M270.825 62.9877C271.168 62.5492 270.732 61.6434 270.449 61.2739C270.031 60.7301 269.406 60.4298 268.735 60.3802C268.606 59.5681 267.799 58.9972 266.991 59.0527C267.008 58.9747 267.019 58.8806 267.026 58.7605C267.054 58.2789 266.953 57.7905 266.748 57.3549C266.304 56.412 265.415 55.7729 264.416 55.548L264.392 55.5464L264.374 55.5406C262.859 55.28 261.387 55.8885 260.296 56.9378C259.71 57.5012 259.257 58.1825 258.937 58.9299C258.798 59.2546 258.446 60.109 258.366 60.7539C257.836 60.541 257.273 60.5284 256.727 60.703C256.487 60.7462 256.255 60.8341 256.041 60.972C255.851 61.0938 255.691 61.2487 255.558 61.4256C255.46 61.528 255.372 61.6385 255.293 61.759C255.178 61.9365 254.904 62.5093 254.903 62.8923L254.868 62.8965C254.829 62.9023 254.774 62.9226 254.774 62.9729V62.9883C254.774 63.1613 254.99 63.324 255.148 63.3459C256.404 63.5202 257.719 63.4181 258.985 63.4232C260.41 63.429 261.835 63.4274 263.261 63.431C264.607 63.4348 265.953 63.4461 267.299 63.4406C267.972 63.4374 268.645 63.4306 269.318 63.4161C269.635 63.4094 269.951 63.401 270.267 63.3907C270.437 63.3852 270.718 63.4435 270.851 63.3047C270.916 63.238 270.811 63.1124 270.764 63.0618L270.761 63.0534L270.825 62.9877Z" fill="#E8F4F6"/>
<path fill-rule="evenodd" clip-rule="evenodd" d="M137.427 44.2982C137.596 44.3111 137.803 44.2277 137.812 44.084C137.958 41.5761 136.125 39.3185 133.735 38.7119C131.745 38.2071 129.511 38.7814 128.023 40.1908C127.956 39.3745 127.476 38.6059 126.588 38.4809C126.142 38.4181 125.621 38.5379 125.236 38.8062C125.123 37.0792 124.836 35.2871 123.618 33.9937C122.529 32.8378 120.863 32.1897 119.308 32.6864C117.531 33.254 116.4 35.1044 115.72 36.7368C115.1 38.2248 114.814 39.8152 114.867 41.4127C113.985 40.5355 112.558 40.1937 111.375 40.6106C109.725 41.1918 108.831 43.1916 109.744 44.7476C109.789 44.823 109.906 44.8365 109.982 44.835C113.079 44.7744 116.176 44.7138 119.273 44.6532C124.208 44.5566 129.143 44.4603 134.078 44.3636C135.194 44.3417 136.311 44.3201 137.427 44.2982Z" fill="#E8F4F6"/>
<path fill-rule="evenodd" clip-rule="evenodd" d="M207.103 130.685C206.641 130.759 206.189 130.798 205.763 130.921C205.767 130.736 205.769 130.551 205.757 130.363C205.529 126.694 202.382 123.905 198.729 124.134C195.156 124.358 192.429 127.386 192.523 130.951C192.355 130.938 192.185 130.93 192.012 130.943C188.194 131.245 188.572 134.858 188.572 134.858L212.715 134.869C212.715 134.869 211.789 129.931 207.103 130.685Z" fill="#9BD3DD"/>
<path fill-rule="evenodd" clip-rule="evenodd" d="M274.917 132.239C274.611 132.236 274.323 132.33 274.055 132.442C273.74 131.726 273.255 131.109 272.653 130.636C272.709 130.367 272.733 130.088 272.715 129.8C272.606 128.09 271.137 126.792 269.434 126.901C268.802 126.942 268.227 127.172 267.758 127.531C266.509 126.068 264.619 125.187 262.557 125.32C259.9 125.49 257.736 127.287 256.954 129.68C256.804 129.675 256.652 129.676 256.498 129.686C254.958 129.785 253.659 130.68 252.967 131.945C252.406 131.586 251.732 131.403 251.017 131.439C247.887 131.599 247.978 134.907 247.978 134.907C247.978 134.907 253.785 134.952 260.957 134.911C268.666 134.867 277.781 134.769 277.781 134.769C277.781 134.769 277.552 132.258 274.917 132.239Z" fill="#D2E7ED"/>
<path fill-rule="evenodd" clip-rule="evenodd" d="M191.335 132.296C191.029 132.293 190.741 132.385 190.473 132.496C190.161 131.779 189.679 131.159 189.079 130.684C189.136 130.415 189.162 130.135 189.145 129.848C189.044 128.137 187.581 126.832 185.878 126.934C185.245 126.971 184.669 127.199 184.198 127.556C182.956 126.087 181.07 125.197 179.007 125.32C176.35 125.478 174.178 127.264 173.385 129.655C173.234 129.648 173.083 129.649 172.929 129.658C171.388 129.749 170.085 130.639 169.387 131.9C168.827 131.539 168.155 131.352 167.439 131.386C164.308 131.531 164.385 134.839 164.385 134.839C164.385 134.839 170.191 134.911 177.363 134.903C185.072 134.895 194.188 134.841 194.188 134.841C194.188 134.841 193.97 132.328 191.335 132.296Z" fill="#D2E7ED"/>
<path fill-rule="evenodd" clip-rule="evenodd" d="M92.4719 139.355C90.4525 139.359 88.6971 138.056 88.212 136.146C88.0574 135.537 87.9862 134.851 88.0105 134.096C88.0699 132.254 88.7647 130.863 89.7348 129.945C90.5019 129.22 91.5336 128.834 92.5816 128.834H94.4801L94.141 139.352L92.4719 139.355Z" fill="#403B45"/>
<path fill-rule="evenodd" clip-rule="evenodd" d="M98.2145 134.096C98.1208 137.002 96.2297 139.357 93.9905 139.357C91.7514 139.357 90.012 137.002 90.1057 134.096C90.1993 131.19 92.0904 128.834 94.3296 128.834C96.5688 128.834 98.3082 131.19 98.2145 134.096Z" fill="#77757A"/>
<path fill-rule="evenodd" clip-rule="evenodd" d="M96.5588 134.058C96.5036 135.771 95.4139 137.158 94.1249 137.158C92.8359 137.158 91.8354 135.771 91.8909 134.058C91.9461 132.345 93.0358 130.957 94.3248 130.957C95.6137 130.957 96.614 132.345 96.5588 134.058Z" fill="#403B45"/>
<path fill-rule="evenodd" clip-rule="evenodd" d="M95.2463 134.057C95.2248 134.718 94.8042 135.254 94.3064 135.254C93.8085 135.254 93.4222 134.718 93.4437 134.057C93.4649 133.395 93.8858 132.859 94.3837 132.859C94.8815 132.859 95.2678 133.395 95.2463 134.057Z" fill="#DBCFFD"/>
<path fill-rule="evenodd" clip-rule="evenodd" d="M137.316 139.355C135.297 139.359 133.541 138.056 133.056 136.146C132.902 135.537 132.83 134.851 132.855 134.096C132.914 132.254 133.609 130.863 134.579 129.945C135.346 129.22 136.378 128.834 137.426 128.834H139.324L138.985 139.352L137.316 139.355Z" fill="#403B45"/>
<path fill-rule="evenodd" clip-rule="evenodd" d="M143.058 134.096C142.965 137.002 141.074 139.357 138.834 139.357C136.595 139.357 134.856 137.002 134.95 134.096C135.044 131.19 136.935 128.834 139.174 128.834C141.413 128.834 143.152 131.19 143.058 134.096Z" fill="#77757A"/>
<path fill-rule="evenodd" clip-rule="evenodd" d="M141.403 134.058C141.348 135.771 140.258 137.158 138.969 137.158C137.68 137.158 136.68 135.771 136.735 134.058C136.79 132.345 137.88 130.957 139.169 130.957C140.458 130.957 141.459 132.345 141.403 134.058Z" fill="#403B45"/>
<path fill-rule="evenodd" clip-rule="evenodd" d="M140.091 134.057C140.069 134.718 139.648 135.254 139.151 135.254C138.653 135.254 138.266 134.718 138.288 134.057C138.309 133.395 138.73 132.859 139.228 132.859C139.725 132.859 140.112 133.395 140.091 134.057Z" fill="#DBCFFD"/>
<path fill-rule="evenodd" clip-rule="evenodd" d="M158.163 110.89H157.417C156.988 110.89 156.64 110.54 156.64 110.11V104.486H158.163C158.818 104.486 159.349 105.019 159.349 105.677V109.7C159.349 110.357 158.818 110.89 158.163 110.89Z" fill="#EF5E4E"/>
<path fill-rule="evenodd" clip-rule="evenodd" d="M156.675 116.271L163.182 121.439V134.717H142.009V117.027L156.675 116.271Z" fill="#D55A4D"/>
<path fill-rule="evenodd" clip-rule="evenodd" d="M149.697 135.883H120.201C119.658 135.883 119.219 135.442 119.219 134.898V134.539C119.219 133.994 119.658 133.553 120.201 133.553H149.697C150.239 133.553 150.679 133.994 150.679 134.539V134.898C150.679 135.442 150.239 135.883 149.697 135.883Z" fill="#D55A4D"/>
<path fill-rule="evenodd" clip-rule="evenodd" d="M112.519 134.718H84.2335C83.4806 134.718 82.8701 134.105 82.8701 133.349V100.54C82.8701 98.1155 84.827 96.1504 87.241 96.1504H112.519V134.718Z" fill="#EF5E4E"/>
<path fill-rule="evenodd" clip-rule="evenodd" d="M141.227 134.718H113.247C111.475 134.718 110.039 133.275 110.039 131.496V99.3719C110.039 97.5926 111.475 96.1504 113.247 96.1504H141.227C142.999 96.1504 144.435 97.5926 144.435 99.3719V131.496C144.435 133.275 142.999 134.718 141.227 134.718Z" fill="#EF5E4E"/>
<path fill-rule="evenodd" clip-rule="evenodd" d="M108.826 133.288H84.3477V99.048C84.3477 98.0918 85.1195 97.3164 86.072 97.3164H107.102C108.054 97.3164 108.826 98.0918 108.826 99.048V133.288Z" fill="#D55A4D"/>
<path fill-rule="evenodd" clip-rule="evenodd" d="M157.836 120.309H144.436V101.131H152.263C153.533 101.131 154.62 102.046 154.842 103.302L157.836 120.309Z" fill="#D55A4D"/>
<path fill-rule="evenodd" clip-rule="evenodd" d="M153.747 116.273H145.549V103.744H150.754C151.599 103.744 152.322 104.342 152.469 105.163L154.349 115.653C154.407 115.979 154.122 116.273 153.747 116.273Z" fill="#F5D8D4"/>
<path fill-rule="evenodd" clip-rule="evenodd" d="M157.809 110.89H157.31C156.94 110.89 156.64 110.588 156.64 110.216V104.91H158.005C158.378 104.91 158.68 105.213 158.68 105.587V110.015C158.68 110.498 158.29 110.89 157.809 110.89Z" fill="#BCDCE5"/>
<path fill-rule="evenodd" clip-rule="evenodd" d="M154.002 104.91H157.659V104.486H154.002V104.91Z" fill="#EF5E4E"/>
<path fill-rule="evenodd" clip-rule="evenodd" d="M154.245 108.071H154.119C153.928 108.071 153.773 107.916 153.773 107.724V104.774C153.773 104.615 153.902 104.486 154.06 104.486H154.591V107.724C154.591 107.916 154.437 108.071 154.245 108.071Z" fill="#EF5E4E"/>
<path fill-rule="evenodd" clip-rule="evenodd" d="M149.431 129.729C147.609 131.594 148.129 133.632 148.129 133.632H145.549V118.922H154.46V128.34C154.46 128.34 151.383 127.731 149.431 129.729Z" fill="#EF5E4E"/>
<path fill-rule="evenodd" clip-rule="evenodd" d="M159.082 125.499H157.46C157.173 125.499 156.939 125.265 156.939 124.976V124.539C156.939 124.25 157.173 124.016 157.46 124.016H159.082C159.37 124.016 159.603 124.25 159.603 124.539V124.976C159.603 125.265 159.37 125.499 159.082 125.499Z" fill="#EF5E4E"/>
<path fill-rule="evenodd" clip-rule="evenodd" d="M162.475 129.976H161.914C161.76 129.976 161.634 129.85 161.634 129.694V125.278C161.634 125.122 161.76 124.996 161.914 124.996H162.475C163.161 124.996 163.718 125.555 163.718 126.244V128.728C163.718 129.417 163.161 129.976 162.475 129.976Z" fill="#EF5E4E"/>
<path fill-rule="evenodd" clip-rule="evenodd" d="M162.836 134.877H160.002C159.515 134.877 159.12 134.481 159.12 133.991V131.896C159.12 131.406 159.515 131.01 160.002 131.01H162.836C163.323 131.01 163.718 131.406 163.718 131.896V133.991C163.718 134.481 163.323 134.877 162.836 134.877Z" fill="#EF5E4E"/>
<path fill-rule="evenodd" clip-rule="evenodd" d="M153.103 139.789C150.988 139.793 149.149 138.428 148.641 136.428C148.479 135.789 148.404 135.071 148.43 134.28C148.492 132.35 149.219 130.893 150.236 129.932C151.04 129.172 152.12 128.768 153.218 128.768H155.207L154.851 139.785L153.103 139.789Z" fill="#403B45"/>
<path fill-rule="evenodd" clip-rule="evenodd" d="M159.118 134.28C159.02 137.323 157.039 139.791 154.694 139.791C152.348 139.791 150.526 137.323 150.624 134.28C150.722 131.235 152.703 128.768 155.049 128.768C157.395 128.768 159.216 131.235 159.118 134.28Z" fill="#77757A"/>
<path fill-rule="evenodd" clip-rule="evenodd" d="M157.384 134.238C157.326 136.032 156.185 137.486 154.835 137.486C153.484 137.486 152.436 136.032 152.494 134.238C152.552 132.444 153.693 130.99 155.044 130.99C156.394 130.99 157.442 132.444 157.384 134.238Z" fill="#EF5E4E"/>
<path fill-rule="evenodd" clip-rule="evenodd" d="M156.009 134.239C155.987 134.931 155.546 135.493 155.025 135.493C154.503 135.493 154.099 134.931 154.121 134.239C154.143 133.546 154.584 132.984 155.106 132.984C155.627 132.984 156.032 133.546 156.009 134.239Z" fill="#DBCFFD"/>
<path fill-rule="evenodd" clip-rule="evenodd" d="M115.791 140.453C113.676 140.457 111.837 139.092 111.329 137.091C111.167 136.453 111.092 135.735 111.118 134.943C111.18 133.014 111.908 131.557 112.924 130.596C113.727 129.836 114.808 129.432 115.906 129.432H117.895L117.539 140.449L115.791 140.453Z" fill="#403B45"/>
<path fill-rule="evenodd" clip-rule="evenodd" d="M121.806 134.943C121.709 137.987 119.727 140.455 117.382 140.455C115.036 140.455 113.215 137.987 113.312 134.943C113.411 131.899 115.392 129.432 117.737 129.432C120.083 129.432 121.905 131.899 121.806 134.943Z" fill="#77757A"/>
<path fill-rule="evenodd" clip-rule="evenodd" d="M120.072 134.903C120.015 136.696 118.873 138.15 117.523 138.15C116.172 138.15 115.125 136.696 115.182 134.903C115.24 133.109 116.382 131.654 117.732 131.654C119.082 131.654 120.13 133.109 120.072 134.903Z" fill="#CBB3FC"/>
<path fill-rule="evenodd" clip-rule="evenodd" d="M118.697 134.903C118.675 135.595 118.234 136.157 117.712 136.157C117.191 136.157 116.787 135.595 116.809 134.903C116.831 134.21 117.272 133.648 117.794 133.648C118.315 133.648 118.719 134.21 118.697 134.903Z" fill="#DBCFFD"/>
<path fill-rule="evenodd" clip-rule="evenodd" d="M149.792 120.759H146.535C146.289 120.759 146.089 120.558 146.089 120.31V120.147C146.089 119.9 146.289 119.699 146.535 119.699H149.792C150.039 119.699 150.239 119.9 150.239 120.147V120.31C150.239 120.558 150.039 120.759 149.792 120.759Z" fill="#D55A4D"/>
<path fill-rule="evenodd" clip-rule="evenodd" d="M110.922 136.108H84.1949C83.6527 136.108 83.2129 135.667 83.2129 135.123V134.763C83.2129 134.219 83.6527 133.777 84.1949 133.777H110.922C111.464 133.777 111.904 134.219 111.904 134.763V135.123C111.904 135.667 111.464 136.108 110.922 136.108Z" fill="#D55A4D"/>
<path fill-rule="evenodd" clip-rule="evenodd" d="M82.6231 134.719H70.6759C69.6603 134.719 68.8374 133.892 68.8374 132.872V99.163C68.8374 98.1434 69.6603 97.3164 70.6759 97.3164H82.6231C83.5752 97.3164 84.3474 98.0918 84.3474 99.048V132.987C84.3474 133.943 83.5752 134.719 82.6231 134.719Z" fill="#EF5E4E"/>
<path fill-rule="evenodd" clip-rule="evenodd" d="M70.4727 107.699H82.501V99.6465H70.4727V107.699Z" fill="#F5D8D4"/>
<path fill-rule="evenodd" clip-rule="evenodd" d="M123.658 134.719H111.711C110.696 134.719 109.873 133.892 109.873 132.872V99.163C109.873 98.1434 110.696 97.3164 111.711 97.3164H123.658C124.61 97.3164 125.383 98.0918 125.383 99.048V132.987C125.383 133.943 124.61 134.719 123.658 134.719Z" fill="#D55A4D"/>
<path fill-rule="evenodd" clip-rule="evenodd" d="M94.8145 133.304H106.633V121.436H94.8145V133.304Z" fill="#FFE5B0"/>
<path fill-rule="evenodd" clip-rule="evenodd" d="M106.57 133.304H111.68V121.436H106.57V133.304Z" fill="#FCD4A4"/>
<path fill-rule="evenodd" clip-rule="evenodd" d="M95.5273 124.733H99.6047V122.396H95.5273V124.733Z" fill="#F4C490"/>
<path fill-rule="evenodd" clip-rule="evenodd" d="M95.7217 122.997H98.7718V122.713H95.7217V122.997Z" fill="#DFB281"/>
<path fill-rule="evenodd" clip-rule="evenodd" d="M95.7217 123.566H98.7718V123.281H95.7217V123.566Z" fill="#DFB281"/>
<path fill-rule="evenodd" clip-rule="evenodd" d="M95.7217 124.134H98.7718V123.85H95.7217V124.134Z" fill="#DFB281"/>
<path fill-rule="evenodd" clip-rule="evenodd" d="M85.1807 133.297H89.9975V124.281H85.1807V133.297Z" fill="#FFE5B0"/>
<path fill-rule="evenodd" clip-rule="evenodd" d="M85.7383 132.541H89.4403V125.037H85.7383V132.541Z" fill="#FCD4A4"/>
<path fill-rule="evenodd" clip-rule="evenodd" d="M85.7383 132.187L88.9091 125.037H89.4403V125.794L86.343 132.541H85.7383V132.187Z" fill="#FFE5B0"/>
<path fill-rule="evenodd" clip-rule="evenodd" d="M89.9971 133.297H94.8142V124.281H89.9971V133.297Z" fill="#FCD4A4"/>
<path fill-rule="evenodd" clip-rule="evenodd" d="M90.5547 132.541H94.257V125.037H90.5547V132.541Z" fill="#F4C490"/>
<path fill-rule="evenodd" clip-rule="evenodd" d="M90.5547 132.187L93.7258 125.037H94.257V125.794L91.1594 132.541H90.5547V132.187Z" fill="#FCD4A4"/>
<path fill-rule="evenodd" clip-rule="evenodd" d="M97.894 121.436H103.452V114.93H97.894V121.436Z" fill="#FFE5B0"/>
<path fill-rule="evenodd" clip-rule="evenodd" d="M103.452 121.436H108.826V114.93H103.452V121.436Z" fill="#FCD4A4"/>
<path fill-rule="evenodd" clip-rule="evenodd" d="M105.663 116.278H106.768V114.93H105.663V116.278Z" fill="#DFB281"/>
<path fill-rule="evenodd" clip-rule="evenodd" d="M122.612 134.719H110.665C109.649 134.719 108.826 133.892 108.826 132.872V99.163C108.826 98.1434 109.649 97.3164 110.665 97.3164H122.612C123.564 97.3164 124.336 98.0918 124.336 99.048V132.987C124.336 133.943 123.564 134.719 122.612 134.719Z" fill="#EF5E4E"/>
<path fill-rule="evenodd" clip-rule="evenodd" d="M110.461 107.699H122.489V99.6465H110.461V107.699Z" fill="#F5D8D4"/>
<path fill-rule="evenodd" clip-rule="evenodd" d="M280.018 134.927H282.11V122.439H280.018V134.927Z" fill="#128046"/>
<path fill-rule="evenodd" clip-rule="evenodd" d="M290.521 109.094C290.521 123.259 286.223 130.527 281.126 130.527C276.03 130.527 271.689 123.763 271.689 109.598C271.689 95.4335 281.126 72.1719 281.126 72.1719C281.126 72.1719 290.521 94.9294 290.521 109.094Z" fill="#39A76D"/>
<mask id="mask0_2924_3678" style="mask-type:alpha" maskUnits="userSpaceOnUse" x="273" y="76" width="10" height="36">
<path d="M276.892 111.442C276.831 111.442 276.771 111.439 276.711 111.432C274.554 111.186 273.178 106.897 274.143 98.353C275.108 89.809 280.689 76.2324 280.689 76.2324C280.689 76.2324 283.115 90.413 282.149 98.957C281.211 107.263 278.996 111.442 276.892 111.442Z" fill="white"/>
</mask>
<g mask="url(#mask0_2924_3678)">
<path fill-rule="evenodd" clip-rule="evenodd" d="M273.178 111.442H283.115V76.2324H273.178V111.442Z" fill="#67CD6A"/>
</g>
<path fill-rule="evenodd" clip-rule="evenodd" d="M244.902 154.662C244.902 154.662 242.129 157.28 244.546 159.822L244.318 162.051C244.318 162.051 243.053 162.625 243.581 163.537L244.889 163.019L246.484 160.388C246.484 160.388 246.265 158.888 246.901 158.481C247.538 158.074 249.158 157.635 249.433 156.286L244.902 154.662Z" fill="#F98115"/>
<path fill-rule="evenodd" clip-rule="evenodd" d="M243.653 145.285C243.653 145.285 244.64 143.29 246.082 143.042C246.15 143.031 246.208 143.091 246.191 143.159L245.583 145.557L243.653 145.285Z" fill="#F98115"/>
<path fill-rule="evenodd" clip-rule="evenodd" d="M242.805 145.716L241.99 145.57C241.728 145.523 241.472 145.558 241.233 145.734C241.024 145.888 240.887 146.182 240.953 146.406C240.982 146.506 240.887 146.686 240.927 146.801C241.104 147.316 241.679 147.633 242.137 147.765C242.726 147.933 243.812 148.26 243.812 148.26L242.805 145.716Z" fill="#FF9A2E"/>
<path fill-rule="evenodd" clip-rule="evenodd" d="M245.639 145.327C245.639 145.327 243.635 144.817 243.248 145.188C242.862 145.559 242.519 146.152 242.519 146.152C242.519 146.152 241.795 147.143 241.932 147.847C242.07 148.552 242.1 148.668 241.919 148.917C241.739 149.165 241.22 150.061 240.967 150.361C240.713 150.661 244.992 151.247 244.992 151.247L245.027 150.061C245.027 150.061 246.493 148.569 246.723 148.025C246.953 147.481 246.753 146.289 246.753 146.289L245.639 145.327Z" fill="#FF9A2E"/>
<path fill-rule="evenodd" clip-rule="evenodd" d="M246.062 145.919L248.545 145.066C248.611 145.043 248.677 145.096 248.669 145.165C248.622 145.583 248.435 146.786 247.801 147.252C247.027 147.821 246.295 147.742 246.295 147.742L246.062 145.919Z" fill="#FF9A2E"/>
<path fill-rule="evenodd" clip-rule="evenodd" d="M244.335 146.883C244.249 146.998 244.086 147.02 243.972 146.933C243.858 146.846 243.836 146.683 243.922 146.568C244.009 146.453 244.172 146.431 244.286 146.518C244.4 146.605 244.422 146.768 244.335 146.883Z" fill="#3B2B5B"/>
<path fill-rule="evenodd" clip-rule="evenodd" d="M243.795 148.381C243.795 148.381 245.359 148.9 245.447 149.191C245.536 149.483 244.983 150.542 244.68 151.585C244.432 152.439 241.927 152.801 241.588 153.112C241.25 153.423 241.165 154.816 241.165 154.816C241.165 154.816 239.674 152.532 239.92 152.15C240.165 151.769 241.229 149.547 241.229 149.547C241.229 149.547 242.024 148.706 241.899 148.022C241.773 147.337 243.795 148.381 243.795 148.381Z" fill="#FF9A2E"/>
<path fill-rule="evenodd" clip-rule="evenodd" d="M241.362 149.83L236.016 153.969C236.016 153.969 235.161 154.118 234.919 154.872C234.813 155.202 235.064 155.512 235.064 155.512L236.209 155.146L240.631 153.65L241.362 149.83Z" fill="#F98115"/>
<path fill-rule="evenodd" clip-rule="evenodd" d="M244.959 150.807C244.959 150.807 245.742 152.066 246.807 153.292C247.872 154.518 249.853 155.5 249.619 156.245C249.386 156.99 244.772 156.851 244.772 156.851C244.772 156.851 241.333 155.97 240.784 154.085C240.234 152.2 244.959 150.807 244.959 150.807Z" fill="#FF9A2E"/>
<path fill-rule="evenodd" clip-rule="evenodd" d="M248.253 155.974C248.253 155.974 249.869 155.654 250.207 153.931C250.545 152.208 249.199 152.144 248.883 152.535C248.883 152.535 250.089 151.106 251.421 152.812C252.754 154.519 250.416 157.666 248.569 156.889C246.722 156.113 248.253 155.974 248.253 155.974Z" fill="#FF9A2E"/>
<path fill-rule="evenodd" clip-rule="evenodd" d="M244.405 145.391C244.405 145.391 243.938 145.414 243.143 145.768L241.722 145.504C241.722 145.504 240.772 145.653 240.953 146.406C240.953 146.406 240.505 147.153 241.903 147.791C241.903 147.791 241.948 148.273 241.382 149.027C241.325 149.104 241.278 149.188 241.239 149.276L240.233 151.25C240.233 151.25 240.141 152.488 240.252 152.874C240.423 153.466 240.887 154.407 240.887 154.407L241.244 152.704L243.935 150.589L244.11 148.347C244.126 148.144 244.03 147.948 243.859 147.838C243.254 147.449 241.882 146.541 241.989 146.376C242.075 146.244 242.217 146.158 242.374 146.143L243.404 146.02L244.405 145.391Z" fill="#FFE5B0"/>
<path fill-rule="evenodd" clip-rule="evenodd" d="M241.24 146.2C241.24 146.2 241.17 145.648 241.399 145.485C241.571 145.362 241.905 145.743 242.062 145.942C242.112 146.005 242.064 146.134 241.97 146.185C241.815 146.27 241.533 146.32 241.24 146.2Z" fill="#3B2B5B"/>
<path fill-rule="evenodd" clip-rule="evenodd" d="M244.755 146.497C244.719 146.544 244.555 146.479 244.389 146.351C244.222 146.224 244.115 146.083 244.15 146.037C244.186 145.99 244.349 146.055 244.516 146.183C244.683 146.31 244.789 146.451 244.755 146.497Z" fill="#FFE5B0"/>
<path fill-rule="evenodd" clip-rule="evenodd" d="M240.912 154.5L242.245 154.15C242.245 154.15 245.323 156.695 245.497 156.961C245.497 156.961 245.228 157.112 245.122 157.271C245.122 157.271 242.537 156.034 241.847 155.555C241.272 155.156 240.912 154.5 240.912 154.5Z" fill="#FFE5B0"/>
<path fill-rule="evenodd" clip-rule="evenodd" d="M246.471 146.309C246.471 146.309 247.72 145.609 248.218 145.67C248.218 145.67 248.246 146.204 247.97 146.665C247.625 147.241 247.355 147.368 246.744 147.422L246.471 146.309Z" fill="#F98115"/>
<path fill-rule="evenodd" clip-rule="evenodd" d="M244.961 155.881C244.961 155.881 242.977 159.142 245.976 160.952L246.443 163.411C246.443 163.411 245.013 163.662 245.756 164.518L247.235 164.419L247.994 160.982C247.994 160.982 247.388 159.594 247.895 159.032C248.402 158.471 249.849 157.617 249.759 156.243L244.961 155.881Z" fill="#FF9A2E"/>
<path fill-rule="evenodd" clip-rule="evenodd" d="M241.699 148.523C241.699 148.523 243.352 149.821 245.315 149.825L245.152 150.269C245.152 150.269 243.12 150.299 241.457 148.924L241.699 148.523Z" fill="#FF5E4D"/>
<path fill-rule="evenodd" clip-rule="evenodd" d="M242.965 154.32L243.006 151.794L241.077 152.266L238.893 149.798C238.893 149.798 238.464 149.275 238.143 149.306C237.822 149.337 237.14 149.949 237.14 149.949C237.14 149.949 237.529 150.613 238.019 150.542L239.444 153.764C239.729 154.428 240.615 154.829 241.307 154.627C241.712 154.509 242.965 154.32 242.965 154.32Z" fill="#FF9A2E"/>
<path fill-rule="evenodd" clip-rule="evenodd" d="M241.024 146.221C241.024 146.221 240.649 146.941 240.688 147.376C240.755 148.138 242.499 147.955 242.499 147.955L241.024 146.221Z" fill="#FFE5B0"/>
<path fill-rule="evenodd" clip-rule="evenodd" d="M263.502 21.0089C263.502 29.7964 256.408 36.9197 247.657 36.9197C238.907 36.9197 231.812 29.7964 231.812 21.0089C231.812 12.2213 238.907 5.09766 247.657 5.09766C256.408 5.09766 263.502 12.2213 263.502 21.0089Z" fill="#FFDB8C"/>
<path fill-rule="evenodd" clip-rule="evenodd" d="M91.9351 148.599C91.9351 149.85 85.4421 150.865 77.4327 150.865C69.4236 150.865 62.9307 149.85 62.9307 148.599C62.9307 147.347 69.4236 146.332 77.4327 146.332C85.4421 146.332 91.9351 147.347 91.9351 148.599Z" fill="#EFEBEA"/>
<path fill-rule="evenodd" clip-rule="evenodd" d="M69.3086 148.792C69.3064 148.039 70.142 148.179 70.6778 148.062C70.5337 148.151 70.3589 148.279 70.5889 148.337C70.9254 148.422 71.6588 148.31 71.8721 148.078C71.9568 148.247 71.9815 148.483 71.9821 148.646C71.9831 148.855 69.3092 148.972 69.3086 148.792Z" fill="#30193B"/>
<path fill-rule="evenodd" clip-rule="evenodd" d="M70.5889 148.337C70.3589 148.279 70.2857 148.129 70.6345 148.07C70.9456 148.018 71.1981 147.906 71.2539 147.882C71.4002 147.818 71.4506 147.595 71.4506 147.595L71.7316 147.584C71.7316 147.584 71.8474 148.029 71.8721 148.078C71.6588 148.31 70.9254 148.422 70.5889 148.337Z" fill="#7E74B2"/>
<path fill-rule="evenodd" clip-rule="evenodd" d="M84.8903 148.837C84.8903 147.989 84.0255 148.202 83.4695 148.08C83.619 148.173 83.8006 148.305 83.5619 148.365C83.2129 148.453 82.4519 148.337 82.2306 148.097C82.143 148.272 82.1173 148.517 82.1167 148.685C82.1157 148.903 84.8903 149.023 84.8903 148.837Z" fill="#30193B"/>
<path fill-rule="evenodd" clip-rule="evenodd" d="M83.5618 148.365C83.8005 148.305 83.8762 148.15 83.5146 148.088C83.1919 148.034 82.9298 147.918 82.8718 147.893C82.7203 147.826 82.6677 147.596 82.6677 147.596L82.3761 147.584C82.3761 147.584 82.2561 148.046 82.2305 148.097C82.4518 148.337 83.2128 148.453 83.5618 148.365Z" fill="#7E74B2"/>
<path fill-rule="evenodd" clip-rule="evenodd" d="M83.4727 107.857C83.4727 107.857 85.5534 107.845 86.7454 109.876C86.8401 110.037 87.0107 110.399 87.0107 110.399L85.5155 112.171L83.4727 107.857Z" fill="#E99B76"/>
<path fill-rule="evenodd" clip-rule="evenodd" d="M77.1006 110.505L77.7878 114.195L78.1436 117.304C78.1436 117.304 79.6504 117.902 81.3631 117.663C83.5635 117.357 85.1037 116.722 85.188 116.713C85.3382 116.696 86.1232 109.028 84.7232 108.272C83.6318 107.683 82.2155 107.568 79.7162 107.976C78.4423 108.183 77.0911 109.241 77.1006 110.505Z" fill="#E99B76"/>
<path fill-rule="evenodd" clip-rule="evenodd" d="M77.0381 110.442L77.7875 114.195L78.1432 117.303C78.1432 117.303 78.7358 117.622 79.1955 117.68C80.6015 117.861 81.5123 117.641 81.5123 117.641C81.5123 117.641 81.7234 115.373 81.6499 112.671C81.5642 109.51 81.0712 107.592 81.0712 107.592C81.0712 107.592 80.2204 107.671 78.8686 108.058C78.0184 108.301 77.4295 108.869 77.4295 108.869C77.4295 108.869 77.0381 109.859 77.0381 110.442Z" fill="#F1A786"/>
<path fill-rule="evenodd" clip-rule="evenodd" d="M89.5847 111.412C89.5847 111.412 89.4243 111.259 89.3387 111.279C89.253 111.299 89.603 111.72 89.603 111.72L89.5847 111.412Z" fill="#FF97A6"/>
<path fill-rule="evenodd" clip-rule="evenodd" d="M80.1455 107.743C80.1455 107.743 80.4095 108.642 81.3244 108.547C82.239 108.452 82.3446 107.745 82.3446 107.745C82.3446 107.745 81.694 107.636 80.9003 107.592L80.1455 107.743Z" fill="#7E74B2"/>
<path fill-rule="evenodd" clip-rule="evenodd" d="M80.9035 106.363C80.9035 106.363 80.6533 107.675 80.7669 107.877C80.8801 108.079 81.2102 108.271 81.4867 108.087C81.8919 107.818 81.5679 106.501 81.5679 106.501L80.9035 106.363Z" fill="#7E74B2"/>
<path fill-rule="evenodd" clip-rule="evenodd" d="M81.6854 107.591C81.4336 107.684 80.9299 107.569 80.7686 107.231C80.7987 106.96 80.7987 106.96 80.8241 106.721L81.6902 106.847C81.7159 107.018 81.6931 107.184 81.6973 107.391C81.6992 107.483 81.6953 107.52 81.6854 107.591Z" fill="#5745A0"/>
<path fill-rule="evenodd" clip-rule="evenodd" d="M82.6434 106.642C82.7386 106.51 82.8227 105.959 82.8785 105.497C82.925 105.113 82.6401 104.76 82.2501 104.716C81.6457 104.648 80.9736 104.607 80.7773 104.693C80.4693 104.829 80.4026 105.226 80.3461 105.52C80.2897 105.814 80.2961 106.362 80.4388 106.642C80.5687 106.897 81.0195 107.181 81.2938 107.223C82.1169 107.35 82.3829 107.181 82.6434 106.642Z" fill="#7E74B2"/>
<path fill-rule="evenodd" clip-rule="evenodd" d="M80.0539 107.763C80.0539 107.763 76.7372 107.619 73.3447 108.173C72.7872 108.264 71.5675 108.414 70.5371 109.16C69.7666 109.719 70.7726 110.484 70.7726 110.484C70.7726 110.484 74.5551 110.02 75.7334 110.018C77.1007 110.014 78.8394 110.014 78.8394 110.014L80.0539 107.763Z" fill="#7E74B2"/>
<path fill-rule="evenodd" clip-rule="evenodd" d="M75.3232 116.098C75.3232 116.098 75.7871 115.949 75.9177 115.955C76.0479 115.961 75.6206 116.223 75.6206 116.223L75.3232 116.098Z" fill="#FF97A6"/>
<path fill-rule="evenodd" clip-rule="evenodd" d="M80.1451 107.743C80.1451 107.743 77.7994 107.68 76.0449 107.858C76.0449 107.858 76.1601 109.999 76.231 110.225L79.2856 110.178L80.1451 107.743Z" fill="#F1A786"/>
<path fill-rule="evenodd" clip-rule="evenodd" d="M80.9178 110.666L82.7848 110.593C83.7764 110.555 84.6307 111.342 84.7526 112.406L85.2418 116.684C85.2418 116.684 81.2036 119.156 78.0957 117.466L79.1158 112.301C79.2987 111.374 80.0417 110.7 80.9178 110.666Z" fill="#62A0D3"/>
<path fill-rule="evenodd" clip-rule="evenodd" d="M77.9258 107.748C77.9258 107.748 79.1952 110.788 79.4374 112.418L80.054 112.171L78.8737 107.732L77.9258 107.748Z" fill="#62A0D3"/>
<path fill-rule="evenodd" clip-rule="evenodd" d="M83.4728 111.364L82.9502 107.746L83.5947 107.864L83.8744 111.503L83.4728 111.364Z" fill="#528CC6"/>
<path fill-rule="evenodd" clip-rule="evenodd" d="M76.4577 116.294L80.4209 115.637L80.2483 110.34L76.2852 110.823L76.4577 116.294Z" fill="#FCD4A4"/>
<path fill-rule="evenodd" clip-rule="evenodd" d="M76.2851 110.822L80.2483 110.339L74.24 109.91L70.2769 110.394L76.2851 110.822Z" fill="#F4C490"/>
<path fill-rule="evenodd" clip-rule="evenodd" d="M70.2769 110.395L70.4494 115.634L76.4577 116.294L76.2851 110.823L70.2769 110.395Z" fill="#FFE5B0"/>
<path fill-rule="evenodd" clip-rule="evenodd" d="M79.4268 111.133C79.4245 110.982 79.5634 110.836 79.7364 110.808C79.9096 110.779 80.0517 110.877 80.0536 111.028L79.4268 111.133Z" fill="white"/>
<path fill-rule="evenodd" clip-rule="evenodd" d="M79.8044 111.502L79.8198 111.501C79.8724 111.492 79.9129 111.441 79.9119 111.384L79.9113 111.331L79.8824 111.303H79.8821L79.8535 111.332L79.8545 111.385L79.8105 111.444L79.7865 111.438L79.7736 111.407L79.7682 111.007L79.739 110.979L79.7104 111.008L79.7162 111.408C79.7165 111.438 79.7287 111.465 79.7496 111.482L79.8044 111.502Z" fill="white"/>
<path fill-rule="evenodd" clip-rule="evenodd" d="M79.1435 111.314C79.2275 111.3 79.2949 111.213 79.2936 111.12L79.2895 110.822L78.9844 110.873L78.9889 111.171C78.9898 111.264 79.0591 111.328 79.1435 111.314Z" fill="white"/>
<path fill-rule="evenodd" clip-rule="evenodd" d="M79.1473 111.594H79.1476L79.1762 111.565L79.171 111.208L79.1422 111.18H79.1418L79.1133 111.209L79.1184 111.566L79.1473 111.594Z" fill="white"/>
<path fill-rule="evenodd" clip-rule="evenodd" d="M79.0365 111.614L79.0413 111.613L79.2617 111.577L79.2855 111.543L79.2524 111.52L79.0317 111.556L79.0083 111.589L79.0365 111.614Z" fill="white"/>
<path fill-rule="evenodd" clip-rule="evenodd" d="M78.8096 111.075L78.6309 111.105L78.7185 110.959L78.8096 111.075Z" fill="white"/>
<path fill-rule="evenodd" clip-rule="evenodd" d="M78.7267 111.536H78.727L78.7552 111.506L78.7492 111.052L78.7203 111.023H78.72L78.6914 111.053L78.6978 111.507L78.7267 111.536Z" fill="white"/>
<path fill-rule="evenodd" clip-rule="evenodd" d="M78.5918 111.112L78.4131 111.142L78.5007 110.996L78.5918 111.112Z" fill="white"/>
<path fill-rule="evenodd" clip-rule="evenodd" d="M78.5084 111.571H78.5088L78.5373 111.541L78.5309 111.087L78.5014 111.059L78.4731 111.088L78.4796 111.542L78.5084 111.571Z" fill="white"/>
<path fill-rule="evenodd" clip-rule="evenodd" d="M78.4482 111.711L78.4533 111.71L78.7863 111.655L78.8097 111.622L78.7767 111.598L78.4437 111.653L78.4199 111.687L78.4482 111.711Z" fill="white"/>
<path fill-rule="evenodd" clip-rule="evenodd" d="M76.5538 112.341L78.1886 112.115L78.1411 110.967L76.5063 111.193L76.5538 112.341Z" fill="white"/>
<path fill-rule="evenodd" clip-rule="evenodd" d="M76.7374 111.364L78.0267 111.186L78.0241 111.125L76.7349 111.303L76.7374 111.364Z" fill="#DBCFFD"/>
<path fill-rule="evenodd" clip-rule="evenodd" d="M76.7444 111.528L78.0337 111.35L78.0312 111.289L76.7422 111.468L76.7444 111.528Z" fill="#DBCFFD"/>
<path fill-rule="evenodd" clip-rule="evenodd" d="M77.173 111.636L78.0401 111.516L78.0375 111.455L77.1704 111.575L77.173 111.636Z" fill="#DBCFFD"/>
<path fill-rule="evenodd" clip-rule="evenodd" d="M77.1798 111.8L78.0469 111.68L78.0444 111.619L77.1772 111.739L77.1798 111.8Z" fill="#DBCFFD"/>
<path fill-rule="evenodd" clip-rule="evenodd" d="M77.1932 112.13L78.0603 112.01L78.058 111.949L77.1909 112.069L77.1932 112.13Z" fill="#DBCFFD"/>
<path fill-rule="evenodd" clip-rule="evenodd" d="M75.3231 116.178L75.1018 116.294C75.1018 116.294 71.2547 112.131 70.3247 109.972C70.1319 109.524 70.5471 108.733 71.5528 108.781C72.1546 108.81 72.9556 110.075 73.2414 110.57C74.4772 112.708 75.3231 116.178 75.3231 116.178Z" fill="#7E74B2"/>
<path fill-rule="evenodd" clip-rule="evenodd" d="M74.9507 116.128C74.9507 116.128 75.2006 116.533 75.4377 116.572C75.6744 116.612 76.2034 116.266 76.2034 116.266L75.2301 116.051L75.0193 116.098" fill="#7E74B2"/>
<path fill-rule="evenodd" clip-rule="evenodd" d="M87.2008 119.592C86.1823 117.56 84.3868 115.666 83.9781 115.49C82.7892 115.546 79.0012 116.294 78.5264 116.312C78.1363 116.522 77.6314 117.571 76.8021 119.798C74.8052 125.163 71.0771 147.585 71.0771 147.585L72.3212 147.851C72.3212 147.851 76.3283 137.595 78.8386 130.872C80.2953 126.971 80.6751 126.44 81.4967 125.107C82.1482 127.055 81.4146 146.235 81.4572 147.585C81.4759 148.178 82.7969 148.062 82.8434 147.585C83.1729 144.206 89.7833 124.746 87.2008 119.592Z" fill="#62A0D3"/>
<path fill-rule="evenodd" clip-rule="evenodd" d="M87.2156 119.3C86.6943 118.057 85.5426 116.05 85.5426 116.05L84.7521 112.406C84.6302 111.342 83.7759 110.555 82.7844 110.593L81.6632 110.637C81.6632 110.637 82.4899 113.097 82.3442 116.781C82.1902 120.677 81.8755 123.807 81.4963 125.108C82.1479 127.055 81.4142 146.235 81.4569 147.585C81.4755 148.178 82.7965 148.062 82.8431 147.585C83.0801 145.151 86.548 134.438 87.5527 126.574C87.9425 123.524 87.8385 120.787 87.2156 119.3Z" fill="#528CC6"/>
<path fill-rule="evenodd" clip-rule="evenodd" d="M89.9966 112.462C89.9966 112.462 90.9603 115.373 89.715 116.644C89.715 116.644 86.9805 117.914 85.4336 112.72L88.1328 114.935C88.1328 114.935 89.2578 113.001 89.8228 112.518C90.039 112.333 89.9966 112.462 89.9966 112.462Z" fill="#7E74B2"/>
<path fill-rule="evenodd" clip-rule="evenodd" d="M84.6232 116.163L89.0166 115.346C89.0791 115.334 89.1436 115.269 89.1609 115.2L90.9234 108.164C90.9404 108.095 90.9038 108.049 90.8413 108.06L86.4479 108.877C86.3857 108.889 86.3209 108.954 86.3036 109.023L84.5414 116.059C84.5241 116.128 84.5607 116.174 84.6232 116.163Z" fill="#30193B"/>
<path fill-rule="evenodd" clip-rule="evenodd" d="M84.7765 116.134L89.012 115.347C89.0762 115.335 89.1423 115.27 89.1599 115.201L90.8861 108.312C90.9035 108.243 90.8653 108.197 90.8008 108.209L86.5656 108.996C86.5011 109.008 86.435 109.073 86.4177 109.142L84.6912 116.031C84.6739 116.1 84.712 116.146 84.7765 116.134Z" fill="#3B2B5B"/>
<path fill-rule="evenodd" clip-rule="evenodd" d="M90.0363 108.314L89.5644 109.324L87.2848 109.729L87.2637 108.865L90.0363 108.314Z" fill="#30193B"/>
<path fill-rule="evenodd" clip-rule="evenodd" d="M89.2461 108.972C89.2461 109.038 89.3013 109.067 89.3693 109.037C89.4373 109.007 89.4925 108.929 89.4925 108.863C89.4925 108.796 89.4373 108.767 89.3693 108.797C89.3013 108.827 89.2461 108.905 89.2461 108.972Z" fill="#AACBE8"/>
<path fill-rule="evenodd" clip-rule="evenodd" d="M87.6913 109.176C87.6489 109.247 87.6579 109.318 87.7112 109.336C87.7644 109.354 87.8421 109.311 87.8841 109.24C87.9264 109.17 87.9174 109.098 87.8642 109.08C87.8109 109.062 87.7336 109.105 87.6913 109.176Z" fill="#AACBE8"/>
<path fill-rule="evenodd" clip-rule="evenodd" d="M89.4522 111.27C89.3963 111.2 89.3299 111.097 89.3713 111.055L89.431 111.06L89.4316 111.051C89.4384 111.017 89.3963 110.88 89.4303 110.867C89.4753 110.85 89.5458 110.864 89.6161 110.889L89.6341 110.867C89.7617 110.865 89.8737 110.952 89.9478 111.029C89.9799 111.051 90.0078 111.085 90.0318 111.127L90.0392 111.138L90.037 111.137C90.2032 111.446 90.1862 112.176 90.0928 112.345C90.0248 112.467 90.0078 112.583 89.959 112.657C89.8708 112.791 89.8047 112.716 89.8047 112.716L89.7611 112.08C89.7611 112.08 89.5282 111.597 89.4522 111.27Z" fill="#7E74B2"/>
<path fill-rule="evenodd" clip-rule="evenodd" d="M82.9156 104.211C82.9156 104.211 82.2538 103.381 81.582 103.304C80.9103 103.228 79.5398 103.929 79.9665 105.319C79.9665 105.319 80.0451 105.791 80.296 105.973C80.296 105.973 80.1927 105.428 81.0701 104.607C81.4358 104.265 82.9156 104.211 82.9156 104.211Z" fill="#F1A786"/>
<path fill-rule="evenodd" clip-rule="evenodd" d="M80.7393 104.952C80.7393 104.952 82.4318 102.706 84.2571 103.986C85.4848 104.847 82.7555 105.99 82.7555 105.99C82.7555 105.99 82.8366 104.807 81.429 104.78C81.2095 104.775 81.0071 104.834 80.7393 104.952Z" fill="#E99B76"/>
<path fill-rule="evenodd" clip-rule="evenodd" d="M168.014 160.751C168.014 162.909 153.652 164.658 135.934 164.658C118.217 164.658 103.854 162.909 103.854 160.751C103.854 158.593 118.217 156.844 135.934 156.844C153.652 156.844 168.014 158.593 168.014 160.751Z" fill="#EFEBEA"/>
<path fill-rule="evenodd" clip-rule="evenodd" d="M112.197 162.345C112.861 161.865 111.944 161.318 111.601 160.89C111.656 161.053 111.71 161.267 111.491 161.173C111.173 161.036 110.671 160.489 110.655 160.164C110.478 160.253 110.305 160.434 110.198 160.569C110.061 160.744 112.044 162.456 112.197 162.345Z" fill="#30193B"/>
<path fill-rule="evenodd" clip-rule="evenodd" d="M111.491 161.172C111.71 161.266 111.864 161.187 111.63 160.922C111.42 160.685 111.295 160.437 111.267 160.382C111.195 160.238 111.358 159.884 111.358 159.884L111.087 159.838C111.087 159.838 110.706 160.137 110.655 160.163C110.671 160.488 111.173 161.035 111.491 161.172Z" fill="#7E74B2"/>
<path fill-rule="evenodd" clip-rule="evenodd" d="M147.141 158.916C147.141 160.35 145.983 161.513 144.554 161.513C143.125 161.513 141.967 160.35 141.967 158.916C141.967 157.481 143.125 156.318 144.554 156.318C145.983 156.318 147.141 157.481 147.141 158.916Z" fill="#403B45"/>
<path fill-rule="evenodd" clip-rule="evenodd" d="M145.843 158.915C145.843 159.63 145.266 160.21 144.554 160.21C143.842 160.21 143.265 159.63 143.265 158.915C143.265 158.2 143.842 157.621 144.554 157.621C145.266 157.621 145.843 158.2 145.843 158.915Z" fill="#EF5E4E"/>
<path fill-rule="evenodd" clip-rule="evenodd" d="M145.061 158.915C145.061 159.196 144.834 159.424 144.554 159.424C144.274 159.424 144.047 159.196 144.047 158.915C144.047 158.634 144.274 158.406 144.554 158.406C144.834 158.406 145.061 158.634 145.061 158.915Z" fill="#ECB1A8"/>
<path fill-rule="evenodd" clip-rule="evenodd" d="M142.589 155.086C142.589 155.086 143.963 159.066 144.412 159.066C145.395 159.066 145.648 155.205 145.648 155.205L142.589 155.086Z" fill="#EF5E4E"/>
<path fill-rule="evenodd" clip-rule="evenodd" d="M163.002 159.023C163.002 160.457 161.844 161.621 160.416 161.621C158.987 161.621 157.829 160.457 157.829 159.023C157.829 157.588 158.987 156.426 160.416 156.426C161.844 156.426 163.002 157.588 163.002 159.023Z" fill="#403B45"/>
<path fill-rule="evenodd" clip-rule="evenodd" d="M161.705 159.023C161.705 159.737 161.128 160.317 160.416 160.317C159.704 160.317 159.127 159.737 159.127 159.023C159.127 158.308 159.704 157.729 160.416 157.729C161.128 157.729 161.705 158.308 161.705 159.023Z" fill="#EF5E4E"/>
<path fill-rule="evenodd" clip-rule="evenodd" d="M160.923 159.023C160.923 159.304 160.696 159.532 160.416 159.532C160.136 159.532 159.909 159.304 159.909 159.023C159.909 158.742 160.136 158.514 160.416 158.514C160.696 158.514 160.923 158.742 160.923 159.023Z" fill="#ECB1A8"/>
<path fill-rule="evenodd" clip-rule="evenodd" d="M158.451 155.193C158.451 155.193 159.825 159.174 160.275 159.174C161.257 159.174 161.51 155.314 161.51 155.314L158.451 155.193Z" fill="#EF5E4E"/>
<path fill-rule="evenodd" clip-rule="evenodd" d="M129.993 129.757C129.814 129.893 130.562 131.72 130.562 131.72C131.043 131.978 131.368 132.16 131.511 132.054C131.708 131.906 131.906 131.37 131.893 131.073C131.887 130.956 131.846 130.833 131.632 130.619C131.513 130.5 130.339 129.493 129.993 129.757Z" fill="#7E74B2"/>
<path fill-rule="evenodd" clip-rule="evenodd" d="M122.96 122.857C122.749 124.808 130.113 130.274 130.113 130.274L130.629 129.881L124.761 122.7C121.845 119.546 123.236 120.305 122.96 122.857Z" fill="#7E74B2"/>
<path fill-rule="evenodd" clip-rule="evenodd" d="M128.562 131.328C128.562 131.328 129.645 131.522 129.723 131.782C129.801 132.042 129.814 132.206 129.814 132.206L128.973 131.99L128.562 131.328Z" fill="#7E74B2"/>
<path fill-rule="evenodd" clip-rule="evenodd" d="M115.747 132.35C113.695 134.549 115.507 144.438 115.507 144.438C115.507 144.438 110.56 159.638 110.655 159.838L111.962 160.471C111.991 160.532 118.806 149.604 120.355 145.827C121.137 143.921 123.42 138.865 123.8 133.879C123.925 132.231 123.482 127.531 123.538 126.683C123.666 124.757 117.1 130.899 115.747 132.35Z" fill="#528CC6"/>
<path fill-rule="evenodd" clip-rule="evenodd" d="M134.561 161.119C134.406 160.472 133.548 160.831 133.007 160.918C133.175 160.951 133.388 161.01 133.198 161.154C132.921 161.364 132.2 161.53 131.91 161.383C131.899 161.581 131.971 161.823 132.034 161.982C132.117 162.188 134.605 161.304 134.561 161.119Z" fill="#30193B"/>
<path fill-rule="evenodd" clip-rule="evenodd" d="M133.198 161.154C133.387 161.01 133.395 160.836 133.05 160.909C132.742 160.975 132.464 160.96 132.403 160.957C132.242 160.949 132.108 160.75 132.108 160.75L131.843 160.845C131.843 160.845 131.914 161.326 131.91 161.383C132.199 161.53 132.921 161.364 133.198 161.154Z" fill="#7E74B2"/>
<path fill-rule="evenodd" clip-rule="evenodd" d="M114.544 136.674C115.344 140.679 122.585 145.4 122.585 145.4L131.542 160.644C131.758 160.975 131.834 161.016 132.038 160.932L132.668 160.67C132.73 160.645 132.781 160.599 132.813 160.539C133.401 159.438 128.317 147.257 127.187 142.637C126.784 140.991 120.982 131.863 120.982 131.863C120.982 131.863 121.363 127.006 121.02 126.63C120.237 126.608 119.234 125.635 117.363 127.906C116.477 128.98 113.666 132.286 114.544 136.674Z" fill="#62A0D3"/>
<path fill-rule="evenodd" clip-rule="evenodd" d="M116.322 118.538C117.286 118 118.642 117.889 118.92 117.836C120.081 117.616 121.434 117.681 122.864 119.897C123.398 120.724 123.742 123.315 123.822 123.885C124.207 126.6 123.753 131.011 123.753 131.011C123.753 131.011 123.133 131.189 120.988 131.552C117.769 132.095 115.091 131.753 115.122 131.396C115.422 127.979 115.092 128.919 115.064 122.394C115.061 121.845 115.188 119.17 116.322 118.538Z" fill="#E99B76"/>
<path fill-rule="evenodd" clip-rule="evenodd" d="M131.41 133.877C131.337 133.877 131.263 133.862 131.193 133.829L128.441 132.552C128.181 132.43 128.067 132.121 128.188 131.86C128.308 131.598 128.616 131.484 128.877 131.605L131.628 132.882C131.889 133.004 132.002 133.313 131.882 133.574C131.794 133.765 131.606 133.877 131.41 133.877Z" fill="#403B45"/>
<path fill-rule="evenodd" clip-rule="evenodd" d="M142.391 155.355C142.301 155.355 142.219 155.297 142.192 155.207L137.039 137.941C136.568 136.649 135.619 135.603 134.372 135.005L131.111 133.446C131.007 133.396 130.963 133.272 131.012 133.168C131.062 133.064 131.185 133.019 131.289 133.069L134.55 134.629C135.897 135.273 136.921 136.402 137.433 137.809L142.589 155.087C142.622 155.197 142.56 155.314 142.45 155.347L142.391 155.355Z" fill="#403B45"/>
<path fill-rule="evenodd" clip-rule="evenodd" d="M136.11 134.085C136.078 134.085 136.046 134.077 136.015 134.062L133.081 132.55C132.979 132.498 132.938 132.372 132.991 132.27C133.043 132.167 133.169 132.127 133.27 132.179L136.205 133.69C136.307 133.743 136.347 133.869 136.295 133.971C136.258 134.043 136.185 134.085 136.11 134.085Z" fill="#403B45"/>
<path fill-rule="evenodd" clip-rule="evenodd" d="M133.175 132.885C133.092 132.885 133.007 132.865 132.929 132.823L130.385 131.441C130.132 131.304 130.039 130.988 130.175 130.734C130.312 130.481 130.627 130.387 130.879 130.524L133.423 131.905C133.674 132.042 133.768 132.359 133.632 132.612C133.538 132.786 133.359 132.885 133.175 132.885Z" fill="#403B45"/>
<path fill-rule="evenodd" clip-rule="evenodd" d="M127.5 131.082C127.345 131.246 128.371 132.931 128.371 132.931C128.886 133.109 129.236 133.238 129.36 133.11C129.531 132.932 129.643 132.373 129.583 132.081C129.559 131.966 129.498 131.851 129.253 131.674C129.117 131.575 127.8 130.767 127.5 131.082Z" fill="#7E74B2"/>
<path fill-rule="evenodd" clip-rule="evenodd" d="M131.003 130.17C131.003 130.17 132.042 130.533 132.078 130.802C132.114 131.071 132.101 131.235 132.101 131.235C132.101 131.235 132.138 131.855 131.979 131.863C131.782 131.872 131.754 131.107 131.754 131.107L131.003 130.17Z" fill="#7E74B2"/>
<path fill-rule="evenodd" clip-rule="evenodd" d="M130.543 131.673C130.543 131.673 130.681 131.009 130.794 131.062C130.906 131.114 130.929 131.327 130.929 131.327C130.929 131.327 131.045 131.131 131.166 131.175C131.287 131.218 131.391 131.555 131.391 131.555C131.391 131.555 131.512 131.449 131.59 131.555C131.668 131.661 131.468 132.085 131.468 132.085L130.543 131.673Z" fill="#7E74B2"/>
<path fill-rule="evenodd" clip-rule="evenodd" d="M118.742 115.678C118.742 115.678 118.523 117.888 118.637 118.137C118.751 118.387 119.165 118.717 119.4 118.166C119.635 117.615 119.383 115.681 119.383 115.681L118.742 115.678Z" fill="#7E74B2"/>
<path fill-rule="evenodd" clip-rule="evenodd" d="M118.725 114.969C118.725 114.969 118.617 116.877 118.627 117.151C118.635 117.361 119.453 117.766 119.5 117.494C119.605 116.896 119.367 114.972 119.367 114.972L118.725 114.969Z" fill="#5745A0"/>
<path fill-rule="evenodd" clip-rule="evenodd" d="M120.728 116.621C120.833 116.479 120.939 115.883 121.011 115.382C121.071 114.966 120.777 114.583 120.362 114.533C119.718 114.455 119.001 114.408 118.789 114.499C118.456 114.644 118.374 115.074 118.305 115.393C118.237 115.711 118.228 116.305 118.372 116.608C118.504 116.885 118.978 117.196 119.269 117.244C120.145 117.385 120.434 117.204 120.728 116.621Z" fill="#7E74B2"/>
<path fill-rule="evenodd" clip-rule="evenodd" d="M121.019 115.658C121.019 115.658 120.849 114.189 119.753 113.71C118.979 113.371 117.893 113.754 117.599 114.796C117.336 115.726 118.293 116.341 118.293 116.341C118.293 116.341 117.936 114.692 120.04 114.774C120.04 114.774 120.935 115.108 121.019 115.658Z" fill="#F1A786"/>
<path fill-rule="evenodd" clip-rule="evenodd" d="M118.977 114.937C118.977 114.937 120.307 113.884 122.02 114.284C123.733 114.683 120.966 115.678 120.966 115.678C120.966 115.678 120.989 114.806 118.977 114.937Z" fill="#E99B76"/>
<path fill-rule="evenodd" clip-rule="evenodd" d="M143.234 152.371C143.136 152.371 143.046 152.306 143.018 152.207L138.798 137.28C138.428 135.969 137.523 134.862 136.315 134.242L135.832 133.994C135.722 133.938 135.678 133.801 135.734 133.691C135.792 133.58 135.927 133.537 136.037 133.593L136.519 133.841C137.838 134.517 138.826 135.726 139.231 137.156L143.45 152.084C143.484 152.204 143.415 152.328 143.295 152.363L143.234 152.371Z" fill="#403B45"/>
<path fill-rule="evenodd" clip-rule="evenodd" d="M142.703 155.087H152.203V132.295H142.703V155.087Z" fill="#FFE5B0"/>
<path fill-rule="evenodd" clip-rule="evenodd" d="M143.802 153.177H151.104V134.207H143.802V153.177Z" fill="#FCD4A4"/>
<path fill-rule="evenodd" clip-rule="evenodd" d="M143.802 152.281L150.057 134.207H151.104V136.12L144.995 153.177H143.802V152.281Z" fill="#FFE5B0"/>
<path fill-rule="evenodd" clip-rule="evenodd" d="M152.204 155.087H161.704V132.295H152.204V155.087Z" fill="#FCD4A4"/>
<path fill-rule="evenodd" clip-rule="evenodd" d="M153.303 153.177H160.605V134.207H153.303V153.177Z" fill="#F4C490"/>
<path fill-rule="evenodd" clip-rule="evenodd" d="M153.303 152.281L159.557 134.207H160.605V136.12L154.496 153.177H153.303V152.281Z" fill="#FCD4A4"/>
<path fill-rule="evenodd" clip-rule="evenodd" d="M162.661 155.432H142.41C142.286 155.432 142.186 155.331 142.186 155.206C142.186 155.082 142.286 154.98 142.41 154.98H162.661C162.785 154.98 162.885 155.082 162.885 155.206C162.885 155.331 162.785 155.432 162.661 155.432Z" fill="#403B45"/>
<path fill-rule="evenodd" clip-rule="evenodd" d="M115.064 131.572L115.247 129.066C115.247 129.066 117.976 128.465 118.977 126.403C119.978 124.342 119.286 121.172 119.286 121.172L123.072 120.396C123.072 120.396 124.016 122.024 123.977 126.541C123.938 131.058 123.691 131.341 123.691 131.341C123.691 131.341 118.959 132.398 116.227 132.085L115.064 131.572Z" fill="#62A0D3"/>
<path fill-rule="evenodd" clip-rule="evenodd" d="M116.111 118.91C115.426 119.287 115.371 120.69 115.897 121.966C116.372 123.12 118.622 125.975 120.171 126.501C121.255 126.868 120.771 124.633 120.771 124.633L118.114 121.06C118.114 121.06 116.524 118.683 116.111 118.91Z" fill="#7E74B2"/>
<path fill-rule="evenodd" clip-rule="evenodd" d="M120.981 131.861C120.981 131.861 121.97 128.998 122.182 125.267C122.21 124.763 122.292 123.791 122.22 123.291C122.124 122.631 121.77 120.663 121.77 120.663L123.071 120.396C123.071 120.396 123.813 121.553 123.9 124.499C123.986 127.445 123.801 132.085 123.801 132.085L120.981 131.861Z" fill="#528CC6"/>
<path fill-rule="evenodd" clip-rule="evenodd" d="M118.734 124.756C118.33 127.216 127.731 131.673 127.731 131.673L128.139 131.205L121.223 124.943C121.223 124.943 119.093 122.573 118.734 124.756Z" fill="#7E74B2"/>
<path fill-rule="evenodd" clip-rule="evenodd" d="M119.43 122.082C119.43 122.082 117.821 118.803 116.322 118.538C116.322 118.538 116.703 118.334 117.057 118.231C117.412 118.128 120.325 121.346 120.325 121.346L119.43 122.082Z" fill="#62A0D3"/>
<path fill-rule="evenodd" clip-rule="evenodd" d="M116.198 118.781C116.198 118.781 115.188 119.275 115.398 121.22C115.608 123.165 117.377 124.794 117.377 124.794L119.308 122.489C119.308 122.489 117.251 118.937 116.198 118.781Z" fill="#F1A786"/>
<path fill-rule="evenodd" clip-rule="evenodd" d="M214.959 158.905C214.959 160.318 206.774 161.463 196.677 161.463C186.58 161.463 178.396 160.318 178.396 158.905C178.396 157.493 186.58 156.348 196.677 156.348C206.774 156.348 214.959 157.493 214.959 158.905Z" fill="#EFEBEA"/>
<path fill-rule="evenodd" clip-rule="evenodd" d="M188.168 112.765C188.168 112.765 187.475 112.805 186.891 111.823C186.129 110.543 187.18 110.083 187.18 110.083C187.18 110.083 186.42 108.796 188.337 108.303C190.254 107.81 188.882 106.066 190.125 107.09C190.538 107.431 191.581 109.38 190.273 110.376C190.273 110.376 190.545 112.297 189.949 112.554C189.352 112.811 188.168 112.765 188.168 112.765Z" fill="#403B45"/>
<path fill-rule="evenodd" clip-rule="evenodd" d="M188.169 112.765C187.859 112.778 187.562 112.625 187.321 112.43C187.079 112.23 186.891 111.973 186.741 111.698C186.599 111.423 186.473 111.1 186.541 110.762C186.6 110.423 186.834 110.144 187.139 109.989L187.092 110.137C186.974 109.919 186.915 109.686 186.927 109.439C186.936 109.193 187.051 108.953 187.216 108.779C187.547 108.42 188.019 108.295 188.432 108.177C188.838 108.069 189.224 107.826 189.36 107.416C189.396 107.316 189.418 107.212 189.438 107.104C189.467 106.997 189.451 106.884 189.544 106.768C189.616 106.719 189.685 106.757 189.733 106.779C189.784 106.807 189.83 106.84 189.874 106.873C189.963 106.94 190.044 107.017 190.125 107.091C190.036 107.026 189.946 106.962 189.852 106.905C189.807 106.876 189.759 106.848 189.711 106.828C189.664 106.807 189.61 106.797 189.588 106.819C189.544 106.882 189.547 107.012 189.534 107.117C189.525 107.229 189.508 107.342 189.474 107.453C189.41 107.676 189.276 107.883 189.095 108.033C188.917 108.187 188.704 108.287 188.488 108.358C188.269 108.429 188.068 108.475 187.876 108.571C187.683 108.656 187.506 108.773 187.372 108.922C187.093 109.213 187.081 109.678 187.269 110.031C187.297 110.084 187.277 110.149 187.225 110.177L187.221 110.179C186.983 110.295 186.774 110.528 186.728 110.798C186.667 111.069 186.748 111.365 186.873 111.631C186.997 111.901 187.173 112.15 187.381 112.363C187.593 112.57 187.863 112.736 188.169 112.765Z" fill="black"/>
<path fill-rule="evenodd" clip-rule="evenodd" d="M195.95 158.867C195.951 158.146 195.121 158.353 194.571 158.189C194.736 158.293 194.9 158.442 194.643 158.52C194.268 158.635 193.439 158.524 193.19 158.249C193.101 158.458 193.082 158.746 193.087 158.944C193.093 159.199 195.95 159.36 195.95 158.867Z" fill="#3B2B5B"/>
<path fill-rule="evenodd" clip-rule="evenodd" d="M194.643 158.521C194.899 158.442 194.736 158.294 194.57 158.19C194.229 158.089 193.942 158.017 193.878 157.989C193.712 157.917 193.663 157.761 193.663 157.761L193.49 157.727C193.49 157.727 193.216 158.189 193.19 158.25C193.438 158.525 194.267 158.636 194.643 158.521Z" fill="#7E74B2"/>
<path fill-rule="evenodd" clip-rule="evenodd" d="M183.38 158.837C183.307 158.291 184.188 158.281 184.733 158.09C184.572 158.202 184.414 158.359 184.676 158.426C185.058 158.523 185.884 158.372 186.121 158.084C186.22 158.29 186.253 158.578 186.257 158.778C186.262 159.034 183.444 159.328 183.38 158.837Z" fill="#3B2B5B"/>
<path fill-rule="evenodd" clip-rule="evenodd" d="M184.676 158.426C184.414 158.36 184.572 158.202 184.733 158.09C185.071 157.972 185.356 157.887 185.419 157.855C185.582 157.774 185.624 157.615 185.624 157.615L185.796 157.572C185.796 157.572 186.093 158.025 186.121 158.084C185.885 158.372 185.058 158.523 184.676 158.426Z" fill="#7E74B2"/>
<path fill-rule="evenodd" clip-rule="evenodd" d="M184.428 123.63C184.42 123.715 182.822 126.867 182.367 129.154C180.996 136.048 184.963 153.906 185.434 157.559C185.498 158.052 186.503 157.47 186.532 156.857C186.711 153.008 188.156 131.893 188.156 131.893L192.691 158.091L193.811 157.882C193.811 157.882 195.648 142.572 194.528 135.475C193.874 131.334 195.441 129.98 191.976 124.312C190.86 124.066 186.16 123.493 184.428 123.63Z" fill="#BCDCE5"/>
<path fill-rule="evenodd" clip-rule="evenodd" d="M181.449 131.275C181.521 131.28 181.585 131.332 181.606 131.403C181.66 131.586 181.816 131.811 181.835 132.353C181.845 132.631 181.727 133.445 181.599 133.478C181.471 133.511 181.43 133.311 181.43 133.311C181.43 133.311 181.366 133.403 181.272 133.331C181.178 133.258 181.029 132.411 181.063 132.125C181.063 132.125 180.817 132.459 180.726 132.407C180.635 132.355 180.915 131.847 181.039 131.701C181.039 131.701 181.12 131.492 181.133 131.376C181.141 131.298 181.318 131.266 181.449 131.275Z" fill="#7E74B2"/>
<path fill-rule="evenodd" clip-rule="evenodd" d="M187.703 130.629L188.156 131.893L192.691 158.092L193.81 157.882C193.81 157.882 195.506 143.31 194.776 135.493C194.386 131.32 195.441 129.98 191.976 124.312C191.313 124.166 189.388 123.905 187.571 123.745C186.326 123.637 187.703 130.629 187.703 130.629Z" fill="#9BD3DD"/>
<path fill-rule="evenodd" clip-rule="evenodd" d="M184.395 117.38C184.395 117.38 183.899 120.618 183.199 124.047C182.889 125.569 183.778 124.909 181.575 131.565C181.447 131.951 181.14 131.375 181.14 131.375C181.14 131.375 181.013 127.216 181.307 125.844C181.415 125.341 181.657 123.84 181.657 123.84C181.657 123.84 182.451 116.502 183.46 115.705C184.053 115.236 184.809 114.854 184.809 114.854L184.395 117.38Z" fill="#7E74B2"/>
<path fill-rule="evenodd" clip-rule="evenodd" d="M184.061 115.307C184.867 114.6 187.281 113.786 191.688 114.55C192.125 114.626 192.552 114.766 192.983 114.987C192.746 116.495 193.398 118.467 193.398 118.467C193.001 119.405 191.842 121.492 192.524 123.624C193.834 127.717 194.511 129.77 194.528 130.051C193.792 130.351 190.708 131.088 187.814 131.204C185.06 131.313 182.562 130.218 182.217 130.032C182.31 129.233 183.498 121.973 183.551 119.714C183.608 117.293 184.061 115.307 184.061 115.307Z" fill="white"/>
<path fill-rule="evenodd" clip-rule="evenodd" d="M193.672 124.823C193.672 124.823 193.061 119.627 192.697 118.587C191.994 116.577 191.556 116.802 191.556 116.802L191.97 114.705C191.97 114.705 193.61 114.874 194.149 115.934C195.151 117.903 195.484 125.068 195.513 125.305L193.672 124.823Z" fill="#7E74B2"/>
<path fill-rule="evenodd" clip-rule="evenodd" d="M189.21 112.639C189.21 112.639 189.291 114.237 189.16 114.402C189.028 114.566 188.587 114.754 188.384 114.335C188.181 113.917 188.559 112.568 188.559 112.568L189.21 112.639Z" fill="#7E74B2"/>
<path fill-rule="evenodd" clip-rule="evenodd" d="M189.235 113.668C188.971 113.777 188.467 113.595 188.389 113.281C188.411 112.994 188.417 113.16 188.471 112.922L189.225 113.004C189.232 113.233 189.24 113.402 189.235 113.668Z" fill="#5745A0"/>
<path fill-rule="evenodd" clip-rule="evenodd" d="M187.92 112.615C187.781 112.384 187.79 111.397 187.79 111.397C187.954 110.691 189.488 110.858 189.733 110.993C190.002 111.143 190.036 111.511 190.067 111.784C190.098 112.057 190.056 112.557 189.909 112.8C189.774 113.021 189.349 113.243 189.099 113.259C188.348 113.305 188.119 113.128 187.92 112.615Z" fill="#7E74B2"/>
<path fill-rule="evenodd" clip-rule="evenodd" d="M191.753 114.551C191.753 114.551 194.322 114.55 194.895 117.672L195.332 118.994L195.499 118.931L195.688 119.68C195.688 119.68 193.541 120.576 192.834 120.793C192.834 120.793 190.352 117.979 190.753 117.276C191.153 116.574 191.753 114.551 191.753 114.551Z" fill="#E4E4E4"/>
<path fill-rule="evenodd" clip-rule="evenodd" d="M185.181 114.705C185.181 114.705 183.553 114.999 182.961 116.156C182.725 116.617 182.44 118.173 182.305 118.737L182.119 118.73L181.924 119.605C181.924 119.605 182.961 120.049 183.703 120.359L184.418 119.087L185.181 114.705Z" fill="white"/>
<path fill-rule="evenodd" clip-rule="evenodd" d="M189.028 114.257C190.003 114.247 190.363 114.321 191.688 114.551C192.125 114.627 192.552 114.767 192.983 114.988C192.746 116.496 193.397 118.468 193.397 118.468C193.001 119.406 191.842 121.493 192.524 123.625C193.834 127.719 194.511 129.771 194.528 130.052C193.828 130.337 191.005 131.018 188.242 131.183C188.099 131.192 187.814 131.205 187.814 131.205C187.814 131.205 186.76 114.28 189.028 114.257Z" fill="#E4E4E4"/>
<path fill-rule="evenodd" clip-rule="evenodd" d="M186.509 114.38C186.509 114.38 186.559 115.794 188.191 115.982C189.698 116.155 190.967 114.437 190.967 114.437C190.967 114.437 188.209 113.907 186.509 114.38Z" fill="#7E74B2"/>
<path fill-rule="evenodd" clip-rule="evenodd" d="M195.067 129.944C195.016 132.239 194.563 130.955 194.44 129.717C194.317 128.482 193.11 123.122 193.613 121.721C194.042 120.527 195.063 120.804 195.313 122.522C195.687 125.1 195.107 128.154 195.067 129.944Z" fill="#7E74B2"/>
<path fill-rule="evenodd" clip-rule="evenodd" d="M195.736 130.564C195.814 130.597 196.064 131.585 195.954 131.988C195.869 132.3 195.828 132.409 195.674 132.396C195.559 132.387 195.068 132.123 195.129 131.813C195.167 131.623 195.131 131.697 195.186 131.583C195.186 131.583 194.926 131.887 194.846 131.795C194.764 131.704 195.097 131.085 195.264 130.937C195.376 130.837 195.596 130.504 195.736 130.564Z" fill="#5745A0"/>
<path fill-rule="evenodd" clip-rule="evenodd" d="M198.827 115.692C198.827 115.692 198.921 112.178 200.988 110.992C200.988 110.992 201.062 109.637 202.87 109.782C204.677 109.928 205.327 111.356 205.54 111.834C205.754 112.31 206.305 113.653 206.537 113.48C206.663 113.386 209.677 113.853 210.395 117.419C210.395 117.419 212.355 123.007 207.703 124.603C203.05 126.199 199.184 120.134 198.827 115.692Z" fill="#F3BF4F"/>
<path fill-rule="evenodd" clip-rule="evenodd" d="M203.655 159.139C203.642 158.914 204.572 158.559 205.188 158.365C205.005 158.482 204.825 158.647 205.117 158.723C205.545 158.833 206.476 158.687 206.746 158.383C206.854 158.605 206.885 158.914 206.887 159.126C206.888 159.401 203.686 159.668 203.655 159.139Z" fill="#3B2B5B"/>
<path fill-rule="evenodd" clip-rule="evenodd" d="M205.117 158.724C204.825 158.648 205.005 158.483 205.188 158.366C205.57 158.246 205.89 158.16 205.961 158.128C206.146 158.044 206.196 157.875 206.196 157.875L206.389 157.832C206.389 157.832 206.269 158.095 206.632 158.218C206.693 158.239 206.715 158.32 206.746 158.385C206.476 158.688 205.545 158.835 205.117 158.724Z" fill="#7E74B2"/>
<path fill-rule="evenodd" clip-rule="evenodd" d="M199.596 159.059C199.581 158.92 200.499 158.458 201.11 158.248C200.93 158.37 200.754 158.539 201.048 158.608C201.478 158.708 202.405 158.539 202.669 158.229C202.782 158.448 202.82 158.756 202.827 158.968C202.835 159.243 199.655 159.585 199.596 159.059Z" fill="#3B2B5B"/>
<path fill-rule="evenodd" clip-rule="evenodd" d="M201.048 158.608C200.754 158.539 200.93 158.37 201.11 158.249C201.489 158.119 201.807 158.025 201.878 157.991C202.061 157.903 202.107 157.733 202.107 157.733L202.299 157.686C202.299 157.686 202.185 157.951 202.551 158.065C202.612 158.084 202.636 158.166 202.669 158.229C202.405 158.539 201.478 158.708 201.048 158.608Z" fill="#7E74B2"/>
<path fill-rule="evenodd" clip-rule="evenodd" d="M201.117 124.756C201.089 124.843 200.568 125.033 199.206 127.156C196.818 130.878 198.26 140.023 199.64 144.855C200.892 149.236 200.903 154.291 202.071 157.837C202.237 158.34 202.307 158.426 202.294 157.767C202.252 155.579 202.59 143.468 202.59 143.468L202.95 133.033L206.113 158.02C206.113 158.02 206.307 158.474 206.375 157.807C206.827 153.338 209.053 135.574 209.091 133.343C209.189 127.618 207.446 126.748 206.898 125.381C206.031 125.59 202.515 125.736 201.117 124.756Z" fill="#7E74B2"/>
<path fill-rule="evenodd" clip-rule="evenodd" d="M210.473 131.925C210.548 131.941 210.588 132.008 210.619 132.077C210.712 132.285 210.768 132.607 210.828 132.97C210.828 132.97 210.868 133.646 210.652 133.845C210.652 133.845 210.547 133.856 210.567 133.687C210.567 133.687 210.448 134.113 210.308 134.129C210.169 134.145 210.155 133.936 210.155 133.936C210.155 133.936 210.075 134.021 209.986 133.934C209.898 133.847 209.864 133.154 209.941 132.869C209.941 132.869 209.844 133.176 209.756 133.111C209.667 133.046 209.828 132.429 209.981 132.299C209.981 132.299 210.095 132.098 210.126 131.983C210.147 131.905 210.337 131.897 210.473 131.925Z" fill="#7E74B2"/>
<path fill-rule="evenodd" clip-rule="evenodd" d="M208.243 125.725C208.394 126.858 209.238 131.077 209.238 131.077C209.727 133.047 211.751 132.15 211.989 131.09C212.432 129.109 210.002 123.936 209.094 122.681C208.151 121.379 208.123 124.826 208.243 125.725Z" fill="#F1A786"/>
<path fill-rule="evenodd" clip-rule="evenodd" d="M208.484 128.598C207.592 126.149 206.597 124.641 206.153 124.038C206.147 122.692 206.375 121.719 206.615 120.379C206.737 119.697 206.673 117.809 206.624 116.735C206.603 116.282 206.202 115.927 205.693 115.911C205.281 115.899 204.717 115.892 203.982 115.906C199.125 115.997 199.31 116.346 199.31 116.346C199.31 116.346 198.82 118.876 199.151 121.31C199.395 123.107 199.608 123.732 199.825 124.447C199.106 125.403 198.408 126.446 197.877 128.132C197.152 130.431 196.818 135.281 198.468 141.776C198.468 141.776 203.931 142.428 207.471 141.225C207.471 141.225 209.823 140.49 210.22 140.039C210.22 140.039 209.675 131.868 208.484 128.598Z" fill="#F5BCA4"/>
<path fill-rule="evenodd" clip-rule="evenodd" d="M208.243 125.727C208.243 125.727 207.383 120.959 206.891 120.118C205.919 118.456 205.311 117.996 205.311 117.996C205.311 117.996 204.402 115.97 205.871 115.959C207.812 115.946 210.001 121.686 210.2 126.372L208.243 125.727Z" fill="#F1A786"/>
<path fill-rule="evenodd" clip-rule="evenodd" d="M196.053 125.483C196.053 125.483 197.006 121.927 197.279 120.992C197.542 120.093 197.888 118.932 198.029 118.428C198.255 117.622 198.632 116.615 199.351 116.3C199.825 116.093 200.291 115.952 200.712 116.397C201.333 117.052 200.065 119.585 199.592 121.278C199.023 123.315 198.679 124.046 198.611 125.206L196.053 125.483Z" fill="#F5BCA4"/>
<path fill-rule="evenodd" clip-rule="evenodd" d="M202.159 114.465C202.159 114.465 201.945 116.105 202.043 116.288C202.14 116.47 202.502 116.709 202.714 116.297C202.926 115.886 202.724 114.457 202.724 114.457L202.159 114.465Z" fill="#7E74B2"/>
<path fill-rule="evenodd" clip-rule="evenodd" d="M202.071 115.277C202.167 115.537 202.548 115.706 202.81 115.55C202.817 115.251 202.792 115.082 202.767 114.831L202.17 114.418C202.143 114.654 202.091 115.003 202.071 115.277Z" fill="#5745A0"/>
<path fill-rule="evenodd" clip-rule="evenodd" d="M203.339 114.347C203.486 114.081 203.436 112.967 203.436 112.967C203.369 112.294 202.31 112.32 202.052 112.342C201.748 112.37 201.506 112.43 201.237 112.594C200.941 112.773 200.918 113.19 200.894 113.5C200.87 113.809 200.938 114.371 201.114 114.639C201.274 114.884 201.761 115.116 202.042 115.123C202.887 115.144 203.137 114.935 203.339 114.347Z" fill="#7E74B2"/>
<path fill-rule="evenodd" clip-rule="evenodd" d="M201.178 111.635C201.178 111.635 201.054 113.14 203.598 114.7C206.143 116.26 206.439 116.502 206.439 116.502C206.439 116.502 205.823 112.742 204.135 111.558C202.446 110.375 201.488 110.866 201.178 111.635Z" fill="#F3BF4F"/>
<path fill-rule="evenodd" clip-rule="evenodd" d="M198.858 115.276C198.832 114.858 198.87 114.438 198.935 114.022C199.009 113.607 199.121 113.196 199.275 112.799C199.44 112.406 199.655 112.03 199.927 111.695C200.2 111.358 200.545 111.085 200.918 110.865L200.846 110.969C200.922 110.611 201.103 110.308 201.369 110.076C201.631 109.842 201.978 109.728 202.309 109.707C202.476 109.683 202.641 109.711 202.805 109.717C202.966 109.747 203.128 109.77 203.283 109.818C203.435 109.873 203.591 109.916 203.739 109.98C203.886 110.044 204.031 110.113 204.174 110.182C204.021 110.137 203.867 110.094 203.716 110.046C203.565 110.001 203.407 109.977 203.254 109.942C203.099 109.918 202.944 109.904 202.791 109.887C202.637 109.893 202.481 109.877 202.333 109.912C202.034 109.954 201.754 110.075 201.543 110.273C201.334 110.466 201.185 110.746 201.129 111.014C201.12 111.059 201.093 111.095 201.057 111.118C200.72 111.327 200.404 111.572 200.145 111.88C199.893 112.19 199.671 112.529 199.5 112.899C199.326 113.266 199.189 113.655 199.087 114.054C198.98 114.453 198.903 114.861 198.858 115.276Z" fill="#FFDB8C"/>
<path fill-rule="evenodd" clip-rule="evenodd" d="M194.506 129.929C194.506 129.929 194.381 131.41 194.652 131.57C194.923 131.73 195.699 132.88 195.798 132.784C195.896 132.687 195.892 132.312 195.685 131.846C195.659 131.786 195.348 131.33 195.242 131.234C195.135 131.139 195.003 130.432 194.841 130.097C194.795 130.001 194.573 129.679 194.506 129.929Z" fill="#7E74B2"/>
<path fill-rule="evenodd" clip-rule="evenodd" d="M194.857 131.568C194.887 131.569 195.193 132.249 195.282 132.549C195.317 132.666 195.198 132.598 195.198 132.598C195.198 132.598 194.418 131.606 194.517 131.251C194.616 130.898 194.857 131.568 194.857 131.568Z" fill="#7E74B2"/>
<path fill-rule="evenodd" clip-rule="evenodd" d="M196.244 124.907C195.92 125.867 194.725 129.549 194.725 129.549C194.337 131.286 196.363 131.571 196.963 130.787C198.082 129.323 198.861 124.856 198.642 123.571C198.415 122.236 196.502 124.145 196.244 124.907Z" fill="#F5BCA4"/>
<path fill-rule="evenodd" clip-rule="evenodd" d="M208.531 128.496C207.638 126.047 206.597 124.641 206.153 124.038C206.147 122.692 206.375 121.719 206.615 120.379C206.737 119.697 206.673 117.809 206.624 116.735C206.603 116.282 206.202 115.927 205.693 115.911C205.281 115.899 204.717 115.892 203.981 115.906C203.456 115.916 202.99 115.929 202.575 115.944C201.209 115.994 202.765 124.466 202.765 124.466C202.765 124.466 202.769 128.43 202.964 130.903C203.383 136.226 203.7 141.894 203.7 141.894C203.7 141.894 203.895 141.88 203.993 141.872C205.193 141.777 206.417 141.583 207.47 141.225C207.47 141.225 209.823 140.49 210.22 140.039C210.22 140.039 209.722 131.766 208.531 128.496Z" fill="#F1A786"/>
<path fill-rule="evenodd" clip-rule="evenodd" d="M200.481 116.074C200.481 116.074 200.967 116.821 202.5 117.067C204.033 117.313 205.445 115.99 205.445 115.99C205.445 115.99 203.117 115.777 200.481 116.074Z" fill="#7E74B2"/>
<path fill-rule="evenodd" clip-rule="evenodd" d="M203.29 115.191C203.29 115.191 203.452 117.441 205.184 118.391C206.917 119.341 209.468 120.149 209.808 121.045C209.808 121.045 211.056 119.891 209.549 117.775C208.043 115.659 203.29 115.191 203.29 115.191Z" fill="#F3BF4F"/>
<path fill-rule="evenodd" clip-rule="evenodd" d="M195.076 132.012C195.076 132.012 195.159 131.626 195.288 131.693C195.417 131.76 195.746 132.303 195.736 132.447C195.725 132.592 195.617 132.66 195.617 132.66C195.617 132.66 195.35 132.593 195.076 132.012Z" fill="#5745A0"/>
<path fill-rule="evenodd" clip-rule="evenodd" d="M258.899 162.854C259.005 162.66 259.523 162.5 259.933 162.395C259.809 162.466 259.684 162.569 259.872 162.632C260.147 162.724 260.761 162.664 260.95 162.47C261.011 162.624 261.019 162.833 261.011 162.977C261 163.162 258.728 163.166 258.899 162.854Z" fill="#3B2B5B"/>
<path fill-rule="evenodd" clip-rule="evenodd" d="M259.872 162.633C259.684 162.57 259.809 162.466 259.933 162.395C260.187 162.329 260.401 162.285 260.448 162.266C260.573 162.217 260.613 162.105 260.613 162.105L260.741 162.084C260.741 162.084 260.651 162.256 260.883 162.354C260.922 162.37 260.932 162.426 260.95 162.471C260.761 162.665 260.147 162.725 259.872 162.633Z" fill="#7E74B2"/>
<path fill-rule="evenodd" clip-rule="evenodd" d="M281.801 155.83C281.615 155.712 281.487 155.184 281.406 154.766C281.469 154.895 281.565 155.026 281.639 154.842C281.747 154.572 281.723 153.953 281.542 153.751C281.699 153.699 281.908 153.704 282.049 153.721C282.233 153.742 282.102 156.02 281.801 155.83Z" fill="#3B2B5B"/>
<path fill-rule="evenodd" clip-rule="evenodd" d="M281.639 154.843C281.565 155.027 281.469 154.896 281.406 154.767C281.356 154.508 281.324 154.292 281.308 154.243C281.267 154.115 281.158 154.069 281.158 154.069L281.145 153.939C281.145 153.939 281.311 154.039 281.422 153.813C281.44 153.775 281.497 153.767 281.542 153.752C281.723 153.954 281.747 154.573 281.639 154.843Z" fill="#7E74B2"/>
<path fill-rule="evenodd" clip-rule="evenodd" d="M267.243 136.074C267.532 135.172 267.491 134.269 267.579 133.012C267.683 131.511 267.896 128.142 267.037 127.43C266.022 126.589 265.689 128.416 265.699 129.027C265.712 129.776 265.896 130.791 265.689 132.606C265.618 133.229 265.517 134.193 265.517 134.193C265.517 134.193 266.451 135.288 267.243 136.074Z" fill="#EFEBEA"/>
<path fill-rule="evenodd" clip-rule="evenodd" d="M267.681 129.774C268.024 128.193 266.53 123.27 264.561 123.529C263.829 123.626 263.783 124.692 263.783 124.692L266.047 129.745C266.047 129.745 267.391 131.105 267.681 129.774Z" fill="#EFEBEA"/>
<path fill-rule="evenodd" clip-rule="evenodd" d="M263.239 135.093C262.942 136.001 262.224 137.188 261.329 138.098C260.262 139.182 258.234 141.494 257.119 141.313C255.802 141.1 256.893 139.501 257.363 139.1C257.939 138.609 258.184 138.349 259.596 136.899C259.904 136.583 261.39 135.247 261.39 135.247C261.39 135.247 262.113 135.013 263.239 135.093Z" fill="#E8E1E0"/>
<path fill-rule="evenodd" clip-rule="evenodd" d="M267.749 142.446C269.585 143.591 271.409 150.609 271.409 150.609C271.409 150.609 281.096 153.684 281.57 153.765L281.639 154.097C281.63 154.145 272.108 154.67 269.231 153.11C267.93 152.405 264.868 148.218 263.676 144.822C263.283 143.699 262.699 141.846 262.501 141.266C262.055 139.951 266.537 141.691 267.749 142.446Z" fill="#7E74B2"/>
<path fill-rule="evenodd" clip-rule="evenodd" d="M262.928 142.658L264.431 147.348L267.225 151.322L271.135 148.767L269.544 144.036L262.928 142.658Z" fill="#D55A4D"/>
<path fill-rule="evenodd" clip-rule="evenodd" d="M270.632 144.667C270.821 147.602 265.025 152.03 265.025 152.03L260.583 162.322C260.583 162.322 260.388 162.135 260.373 162.089C260.212 161.595 260.931 154.302 261.416 150.912C261.589 149.704 265.484 143.789 265.484 143.789C265.484 143.789 264.997 142.403 264.263 140.746C264.803 140.583 264.92 139.547 266.895 140.306C268.814 141.043 270.426 141.45 270.632 144.667Z" fill="#7E74B2"/>
<path fill-rule="evenodd" clip-rule="evenodd" d="M264.774 142.39L265.308 143.545C265.308 143.545 264.13 144.808 262.422 147.894L266.53 151.289C266.53 151.289 271.882 146.499 270.746 143.562C269.61 140.625 267.996 140.664 267.996 140.664L264.774 142.39Z" fill="#EF5E4E"/>
<path fill-rule="evenodd" clip-rule="evenodd" d="M265.706 133.985C263.043 134.045 261.181 134.97 260.824 137.009C260.614 138.206 261.779 141.118 261.923 142.518L262.275 143.438C262.257 143.678 262.435 143.887 262.674 143.903C263.369 143.946 264.385 143.856 265.752 143.43C267.948 142.747 269.587 141.509 269.259 141.084C265.719 134.811 268.219 133.928 265.706 133.985Z" fill="#EFEBEA"/>
<path fill-rule="evenodd" clip-rule="evenodd" d="M262.585 134.598C262.585 134.598 262.408 134.675 262.322 134.717C261.227 135.243 260.651 135.685 260.46 136.774C260.25 137.971 262.268 143.538 262.268 143.538C262.254 143.721 262.612 144.286 264.095 143.867C264.409 143.779 265.309 143.545 265.309 143.545C265.309 143.545 264.64 142.164 263.656 140.221C262.515 137.968 262.585 134.598 262.585 134.598Z" fill="#E8E1E0"/>
<path fill-rule="evenodd" clip-rule="evenodd" d="M262.896 133.241C262.97 133.233 264.473 131.816 264.257 131.285C263.988 130.624 263.077 130.481 263.077 130.481C263.077 130.481 263.108 128.798 261.005 128.823C259.853 128.837 260.037 128.189 259.765 127.974L259.721 127.933C259.493 127.677 258.651 130.372 260.302 132.704C261.093 133.821 262.896 133.241 262.896 133.241Z" fill="#FF5E4D"/>
<path fill-rule="evenodd" clip-rule="evenodd" d="M262.174 132.98C262.174 132.98 262.981 134.522 262.933 134.748C262.886 134.973 262.558 135.37 262.176 135.054C261.794 134.737 261.531 133.223 261.531 133.223L262.174 132.98Z" fill="#7E74B2"/>
<path fill-rule="evenodd" clip-rule="evenodd" d="M262.108 132.764C262.108 132.764 262.711 133.99 262.754 134.205C262.792 134.391 262.309 134.868 261.956 134.593C261.604 134.318 261.5 132.992 261.5 132.992L262.108 132.764Z" fill="#5745A0"/>
<path fill-rule="evenodd" clip-rule="evenodd" d="M260.09 133.023C260.042 132.829 260.181 132.151 260.314 131.586C260.425 131.118 260.876 130.829 261.311 130.943C261.986 131.12 262.722 131.359 262.896 131.542C263.169 131.831 263.075 132.324 263.013 132.691C262.951 133.058 262.716 133.695 262.447 133.961C262.202 134.203 261.602 134.344 261.291 134.276C260.358 134.074 260.143 133.763 260.09 133.023Z" fill="#7E74B2"/>
<path fill-rule="evenodd" clip-rule="evenodd" d="M262.896 133.241C263.151 133.035 263.365 132.781 263.575 132.531C263.78 132.277 263.988 132.019 264.122 131.728C264.188 131.589 264.243 131.423 264.191 131.306C264.132 131.164 264.035 131.041 263.917 130.939C263.681 130.738 263.369 130.617 263.065 130.559C263.028 130.551 263.002 130.52 263 130.483L262.999 130.48C262.98 130.119 262.852 129.736 262.599 129.465C262.355 129.18 261.997 129.019 261.627 128.943C261.259 128.845 260.862 128.919 260.468 128.807C260.276 128.75 260.093 128.622 260.002 128.441C259.904 128.268 259.883 128.058 259.721 127.934C259.892 128.046 259.934 128.263 260.038 128.419C260.138 128.585 260.31 128.681 260.49 128.727C260.856 128.818 261.257 128.729 261.652 128.814C262.043 128.883 262.435 129.055 262.71 129.364C262.991 129.665 263.143 130.068 263.155 130.483L263.089 130.404C263.425 130.474 263.746 130.603 264.01 130.832C264.14 130.946 264.251 131.089 264.316 131.254C264.385 131.457 264.298 131.631 264.226 131.779C264.069 132.082 263.851 132.335 263.629 132.578C263.398 132.815 263.167 133.053 262.896 133.241Z" fill="#FF7B71"/>
<path fill-rule="evenodd" clip-rule="evenodd" d="M266.627 122.294L266.123 124.015L253.989 121.922L266.627 122.294Z" fill="#DBCFFD"/>
<path fill-rule="evenodd" clip-rule="evenodd" d="M266.051 119.668L265.553 121.43L253.425 121.931L254.486 121.688L266.051 119.668Z" fill="#DBCFFD"/>
<path fill-rule="evenodd" clip-rule="evenodd" d="M264.713 118.621L253.425 121.931L266.054 119.666L264.713 118.621Z" fill="#EEEAFE"/>
<path fill-rule="evenodd" clip-rule="evenodd" d="M266.866 120.436L253.425 121.932L269.03 122.549L266.866 120.436Z" fill="#EEEAFE"/>
<path fill-rule="evenodd" clip-rule="evenodd" d="M263.45 123.121C263.347 123.144 263.059 123.334 263.108 123.404C263.13 123.435 263.259 123.382 263.238 123.423C263.208 123.483 263.173 123.52 263.2 123.575C263.276 123.725 263.484 123.698 263.484 123.698C263.484 123.698 263.403 123.843 263.483 123.863C263.564 123.883 264.792 123.784 264.792 123.784C264.792 123.784 264.421 122.902 263.45 123.121Z" fill="#7E74B2"/>
<path fill-rule="evenodd" clip-rule="evenodd" d="M253.564 136.403C253.51 136.454 253.434 136.469 253.375 136.443C253.224 136.376 252.904 136.23 252.698 135.996C252.507 135.778 252.928 135.518 252.928 135.518C252.928 135.518 252.982 135.555 253.256 135.724C253.256 135.724 253.26 135.358 253.356 135.321C253.451 135.285 253.454 135.595 253.584 135.855C253.616 135.921 253.673 136.052 253.75 136.181C253.784 136.239 253.66 136.313 253.564 136.403Z" fill="#7E74B2"/>
<path fill-rule="evenodd" clip-rule="evenodd" d="M253.162 135.665C253.162 135.665 252.77 135.348 252.667 135.315C252.564 135.282 252.792 135.592 253.029 135.767C253.267 135.941 253.162 135.665 253.162 135.665Z" fill="#7E74B2"/>
<path fill-rule="evenodd" clip-rule="evenodd" d="M252.953 135.836C252.953 135.836 252.552 135.532 252.447 135.502C252.342 135.472 252.58 135.774 252.823 135.941C253.065 136.107 252.953 135.836 252.953 135.836Z" fill="#7E74B2"/>
<path fill-rule="evenodd" clip-rule="evenodd" d="M252.984 136.029C252.984 136.029 252.583 135.725 252.478 135.695C252.374 135.666 252.611 135.968 252.854 136.134C253.097 136.301 252.984 136.029 252.984 136.029Z" fill="#7E74B2"/>
<path fill-rule="evenodd" clip-rule="evenodd" d="M253.047 135.723C253.047 135.723 252.55 135.262 252.443 135.306C252.332 135.352 252.67 135.685 252.922 135.835C253.174 135.986 253.047 135.723 253.047 135.723Z" fill="#7E74B2"/>
<path fill-rule="evenodd" clip-rule="evenodd" d="M257.189 141.311C255.86 141.426 252.189 138.691 253.053 136.865C253.375 136.186 253.872 136.191 253.872 136.191L258.558 140.248C258.558 140.248 258.559 141.192 257.189 141.311Z" fill="#E8E1E0"/>
<path fill-rule="evenodd" clip-rule="evenodd" d="M223.355 157.731C223.456 157.589 223.391 157.165 223.324 156.836C223.317 156.949 223.286 157.074 223.177 156.962C223.018 156.798 222.85 156.339 222.921 156.137C222.792 156.146 222.641 156.213 222.542 156.268C222.415 156.339 223.193 157.961 223.355 157.731Z" fill="#3B2B5B"/>
<path fill-rule="evenodd" clip-rule="evenodd" d="M223.177 156.961C223.286 157.073 223.317 156.949 223.324 156.836C223.283 156.632 223.242 156.464 223.239 156.424C223.231 156.318 223.296 156.252 223.296 156.252L223.267 156.153C223.267 156.153 223.176 156.276 223.027 156.145C223.002 156.122 222.959 156.134 222.921 156.136C222.85 156.338 223.018 156.797 223.177 156.961Z" fill="#FF97A6"/>
<path fill-rule="evenodd" clip-rule="evenodd" d="M231.441 163.361C231.532 163.213 231.441 162.794 231.355 162.47C231.354 162.583 231.331 162.709 231.216 162.604C231.046 162.45 230.85 162.002 230.909 161.797C230.781 161.814 230.634 161.89 230.539 161.951C230.417 162.03 231.293 163.601 231.441 163.361Z" fill="#3B2B5B"/>
<path fill-rule="evenodd" clip-rule="evenodd" d="M231.216 162.604C231.331 162.71 231.355 162.584 231.355 162.47C231.302 162.269 231.274 162.046 231.276 162.006C231.282 161.902 231.358 161.583 231.358 161.583L231.259 161.543C231.259 161.543 231.192 161.726 231.03 161.776C230.997 161.786 230.946 161.792 230.909 161.797C230.85 162.003 231.046 162.451 231.216 162.604Z" fill="#FF97A6"/>
<path fill-rule="evenodd" clip-rule="evenodd" d="M234.113 141.654C234.121 141.722 235.143 141.941 235.81 143.689C236.978 146.754 232.13 146.792 232.13 146.792L230.679 151.715C230.397 152.672 229.726 153.464 228.831 153.897L223.859 156.3C223.859 156.3 223.08 156.458 223.128 155.958C223.323 153.943 227.186 152.353 227.186 152.353C227.186 152.353 227.365 147.937 227.824 145.953C228.614 142.533 228.923 142.602 229.084 141.675C229.673 141.946 232.972 142.185 234.113 141.654Z" fill="#7F65C1"/>
<path fill-rule="evenodd" clip-rule="evenodd" d="M231.952 147.107C231.952 147.107 231.702 150.969 231.649 153.078C231.581 155.845 231.028 160.181 231.037 161.697L231.594 161.788C231.594 161.788 236.771 147.018 236.2 144.243C235.843 142.509 233.937 141.075 233.649 142.858C233.303 145.008 231.952 147.107 231.952 147.107Z" fill="#6E57B5"/>
<path fill-rule="evenodd" clip-rule="evenodd" d="M232.701 130.848C232.701 130.848 231.982 129.539 230.683 130.116C229.385 130.693 229.128 131.497 229.128 131.497C229.128 131.497 226.543 131.538 225.357 133.312C225.007 133.836 223.635 136.941 226.284 138.128C227.497 138.673 228.784 139.027 230.045 138.394C231.304 137.761 233.57 135.109 233.57 135.109C233.57 135.109 235.434 131.742 232.701 130.848Z" fill="#3B2B5B"/>
<path fill-rule="evenodd" clip-rule="evenodd" d="M234.643 135.121C234.643 135.121 234.655 134.066 230.553 134.158C228.643 134.2 228.762 136.38 228.708 137.288C228.615 138.861 229.056 140.367 227.94 143.544C228.816 144.216 235.68 144.625 236.244 144.576C236.247 144.535 236.4 143.055 236.18 140.626C236.026 138.921 234.643 135.121 234.643 135.121Z" fill="#BCDCE5"/>
<path fill-rule="evenodd" clip-rule="evenodd" d="M234.603 134.949C234.603 134.949 234.514 134.38 232.44 134.195C232.357 134.187 232.181 134.154 232.181 134.154C232.181 134.154 233.459 136.516 233.659 138.692C233.935 141.694 233.287 144.396 233.287 144.396C233.287 144.396 235.478 144.606 236.244 144.575C236.248 144.535 236.4 143.054 236.181 140.626C236.026 138.921 234.603 134.949 234.603 134.949Z" fill="#A0BEC9"/>
<path fill-rule="evenodd" clip-rule="evenodd" d="M240.011 129.099C240.011 129.099 241.598 128.964 241.303 130.517C240.946 132.398 239.337 134.062 238.383 134.804C238.017 135.089 237.41 135.22 237.41 135.22C237.41 135.22 238.611 129.043 240.011 129.099Z" fill="#A0BEC9"/>
<path fill-rule="evenodd" clip-rule="evenodd" d="M231.92 133.15C231.92 133.15 231.644 134.427 231.695 134.578C231.746 134.73 231.972 134.946 232.149 134.638C232.326 134.33 232.304 133.189 232.304 133.189L231.92 133.15Z" fill="#7E74B2"/>
<path fill-rule="evenodd" clip-rule="evenodd" d="M232.278 134.025C232.284 133.778 232.319 133.553 232.319 133.553H231.84C231.84 133.553 231.805 133.716 231.76 133.94C231.864 134.084 232.086 134.218 232.278 134.025Z" fill="#5745A0"/>
<path fill-rule="evenodd" clip-rule="evenodd" d="M229.706 134.523C229.058 134.636 229.136 135.753 229.609 136.211C229.895 136.489 230.233 136.848 230.935 137.182C232.891 138.113 234.59 138.243 234.59 138.243L234.525 136.43C234.525 136.43 231.637 135.066 230.514 134.619C230.29 134.529 229.896 134.49 229.706 134.523Z" fill="#D2E7ED"/>
<path fill-rule="evenodd" clip-rule="evenodd" d="M232.926 134.294C232.926 134.294 233.339 134.319 234.918 133.968C237.031 133.498 237.98 133.008 237.98 133.008L238.036 134.989C238.036 134.989 235.017 135.598 234.089 135.651C233.287 135.696 232.926 134.294 232.926 134.294Z" fill="#A0BEC9"/>
<path fill-rule="evenodd" clip-rule="evenodd" d="M233.154 133.001C233.236 132.796 233.099 131.997 233.099 131.997C232.99 131.517 232.227 131.632 232.044 131.672C231.827 131.719 231.658 131.785 231.478 131.928C231.281 132.084 231.302 132.387 231.313 132.613C231.324 132.838 231.424 133.238 231.575 133.415C231.712 133.577 232.085 133.7 232.288 133.679C232.9 133.617 233.061 133.444 233.154 133.001Z" fill="#7E74B2"/>
<path fill-rule="evenodd" clip-rule="evenodd" d="M232.906 131.338L233.012 131.728C233.012 131.728 232.753 132.217 231.837 132.445C230.922 132.674 230.778 133.502 230.778 133.502C230.778 133.502 230.02 132.271 231.005 131.669C231.991 131.067 232.906 131.338 232.906 131.338Z" fill="#3B2B5B"/>
<path fill-rule="evenodd" clip-rule="evenodd" d="M240.513 129.207C240.513 129.207 240.869 128.923 240.861 128.568C240.854 128.235 240.615 128.073 240.569 128.052C240.435 127.994 240.658 128.516 240.658 128.516C240.658 128.516 240.403 127.875 240.261 127.918C240.195 127.938 240.272 128.166 240.272 128.166C240.272 128.166 240.276 128.066 240.163 128.113C240.051 128.16 240.212 128.625 240.222 128.776C240.232 128.926 240.225 129.048 240.122 129.375C240.088 129.482 240.28 129.346 240.513 129.207Z" fill="#FF97A6"/>
<path fill-rule="evenodd" clip-rule="evenodd" d="M232.701 130.849C232.5 130.528 232.208 130.259 231.862 130.135C231.515 130.007 231.137 130.055 230.801 130.189C230.466 130.336 230.135 130.524 229.856 130.76C229.578 130.988 229.328 131.289 229.205 131.587L229.203 131.593C229.181 131.647 229.13 131.68 229.076 131.683C228.284 131.73 227.476 131.932 226.771 132.296C226.075 132.66 225.431 133.21 225.167 133.96C224.88 134.704 224.703 135.526 224.862 136.314C224.94 136.705 225.114 137.075 225.368 137.389C225.624 137.701 225.963 137.944 226.327 138.137C225.943 137.988 225.578 137.768 225.284 137.464C224.989 137.162 224.776 136.773 224.675 136.358C224.466 135.522 224.6 134.642 224.902 133.854C224.981 133.656 225.061 133.463 225.185 133.27C225.305 133.09 225.442 132.922 225.592 132.767C225.893 132.459 226.246 132.204 226.626 132.013C227.393 131.636 228.221 131.443 229.071 131.406L228.942 131.502C229.112 131.093 229.399 130.817 229.711 130.576C230.026 130.336 230.373 130.162 230.739 130.021C231.108 129.887 231.539 129.874 231.9 130.041C232.261 130.203 232.537 130.506 232.701 130.849Z" fill="#7F65C1"/>
<path fill-rule="evenodd" clip-rule="evenodd" d="M230.883 132.919C230.891 132.984 230.593 132.004 231.136 131.351C231.679 130.697 233 130.82 233.191 131.907C233.191 131.907 232.652 131.033 231.772 131.255C231.28 131.379 230.759 131.936 230.883 132.919Z" fill="#C43B72"/>
<path fill-rule="evenodd" clip-rule="evenodd" d="M230.888 130.684C230.795 130.619 230.689 130.576 230.603 130.679C230.533 130.762 230.556 130.869 230.58 130.965C230.613 131.097 230.648 131.233 230.716 131.351C230.638 131.38 230.579 131.451 230.595 131.537C230.43 131.516 230.22 131.588 230.111 131.68C230.061 131.722 229.97 131.789 229.97 131.865C229.97 131.94 230.053 131.98 230.106 132.014C230.201 132.076 230.302 132.125 230.408 132.163C230.473 132.187 230.564 132.232 230.632 132.195C230.753 132.128 230.771 131.91 230.796 131.754L230.825 131.741C230.9 131.74 230.974 131.708 231.014 131.641C231.058 131.569 231.028 131.491 230.973 131.431L230.98 131.424C231.038 131.293 231.191 131.223 231.272 131.103C231.294 131.07 231.279 131.02 231.252 130.994C231.139 130.881 231.019 130.775 230.888 130.684Z" fill="#C43B72"/>
<path fill-rule="evenodd" clip-rule="evenodd" d="M240.625 127.933C240.625 129.95 238.996 131.584 236.988 131.584C234.98 131.584 233.352 129.95 233.352 127.933C233.352 125.916 234.98 124.281 236.988 124.281C238.996 124.281 240.625 125.916 240.625 127.933Z" fill="#F3BF4F"/>
<path fill-rule="evenodd" clip-rule="evenodd" d="M236.999 131.585C236.891 131.126 237.251 130.083 238.627 128.726C239.772 127.597 239.572 126.51 239.306 126.093C239.252 126.009 237.964 124.038 235.873 125.039C233.968 125.952 233.465 128.797 233.461 128.824C233.461 128.824 233.437 128.726 233.414 128.607C233.391 128.49 233.37 128.352 233.372 128.32C233.418 127.603 234.049 125.607 235.755 124.79C238.063 123.685 239.479 125.851 239.537 125.944C239.868 126.462 240.088 127.672 238.819 128.923C237.533 130.192 237.186 131.235 237.265 131.574C237.265 131.574 237.153 131.581 237.116 131.582L236.999 131.585Z" fill="#F8F7FD"/>
<path fill-rule="evenodd" clip-rule="evenodd" d="M236.971 131.373C236.971 131.373 234.129 135.973 233.909 136.623C233.725 137.164 233.715 138.859 235.272 138.08C237.151 137.141 239.59 131.893 236.971 131.373Z" fill="#D2E7ED"/>
<path fill-rule="evenodd" clip-rule="evenodd" d="M236.97 131.572C236.97 131.572 236.524 131.486 236.367 131.168C236.219 130.87 236.356 130.615 236.387 130.575C236.478 130.461 236.523 131.027 236.523 131.027C236.523 131.027 236.452 130.341 236.598 130.313C236.666 130.3 236.703 130.537 236.703 130.537C236.703 130.537 236.653 130.45 236.775 130.44C236.896 130.429 236.968 130.915 237.028 131.054C237.089 131.193 237.152 131.298 237.394 131.538C237.474 131.618 237.241 131.586 236.97 131.572Z" fill="#FF97A6"/>
</g>
<defs>
<clipPath id="clip0_2924_3678">
<rect width="343" height="172" fill="white" transform="translate(0.5)"/>
</clipPath>
</defs>
</svg>
