<svg width="115" height="132" viewBox="0 0 115 132" fill="none" xmlns="http://www.w3.org/2000/svg">
<g clip-path="url(#clip0_58230_74505)">
<path fill-rule="evenodd" clip-rule="evenodd" d="M36.2592 103.354C36.2592 103.354 27.3472 106.786 22.8912 108.502C17.3377 110.641 6.23077 114.918 6.23077 114.918C3.89998 115.816 1.28378 114.652 0.387326 112.318C0.188103 111.799 0.0859375 111.248 0.0859375 110.692V42.496C0.0859375 40.5663 1.30738 38.8487 3.12851 38.2175L36.2592 26.7344L72.4324 39.2721V39.185L102.86 30.6163C105.264 29.9393 107.761 31.3418 108.437 33.7489C108.549 34.1478 108.606 34.5603 108.606 34.9747V102.895C108.606 104.887 107.305 106.646 105.402 107.226L72.4324 117.285L36.2592 103.354Z" fill="#79B9D3"/>
<path fill-rule="evenodd" clip-rule="evenodd" d="M17.5655 32.6124C17.4971 32.6381 17.4366 32.6608 17.3841 32.6806C12.5957 34.4812 3.01896 38.0824 3.01896 38.0824C1.25414 38.7451 0.0849609 40.4344 0.0849609 42.3217V111.188C0.0849609 113.468 1.93018 115.315 4.20638 115.315C4.59962 115.315 4.99015 115.259 5.36622 115.148L5.73703 115.02L14.7803 107.097L52.4684 72.9141C52.4684 72.9141 17.7247 32.5525 17.5655 32.6124Z" fill="#CEE7F4"/>
<path fill-rule="evenodd" clip-rule="evenodd" d="M108.604 31.2598L22.8564 108.501L36.2576 103.36L72.4309 117.283L105.431 106.957C107.319 106.366 108.604 104.615 108.604 102.635V31.2598Z" fill="#155D72"/>
<path fill-rule="evenodd" clip-rule="evenodd" d="M108.539 30.7876L108.589 31.0217L108.606 31.2606L22.8494 108.5L5.73828 115.011L52.3272 72.8846L17.3973 32.6497L24.7247 30.7382L57.362 68.3322L97.216 32.297L106.434 29.6261C107.336 29.3649 108.278 29.8849 108.539 30.7876Z" fill="white"/>
<g style="mix-blend-mode:multiply">
<path fill-rule="evenodd" clip-rule="evenodd" d="M36.2568 26.7344L72.4301 39.2721V117.285L36.2568 103.354V26.7344Z" fill="#FDF5F5"/>
</g>
<path fill-rule="evenodd" clip-rule="evenodd" d="M42.0142 6.83836C51.6061 15.9562 51.6061 30.7391 42.0142 39.8569L28.3029 52.8905C26.2836 54.81 23.0096 54.81 20.9902 52.8905L7.27889 39.8569C-2.31301 30.7391 -2.31301 15.9562 7.27889 6.83836C16.8708 -2.27945 32.4223 -2.27945 42.0142 6.83836Z" fill="white"/>
<path fill-rule="evenodd" clip-rule="evenodd" d="M38.0542 10.4577C45.4 17.4405 45.4 28.7617 38.0542 35.7444L27.5536 45.726C26.0071 47.1961 23.4998 47.1961 21.9533 45.726L11.4527 35.7444C4.10691 28.7617 4.10691 17.4405 11.4527 10.4577C18.7985 3.47502 30.7084 3.47502 38.0542 10.4577Z" fill="#A5D2E7"/>
<path fill-rule="evenodd" clip-rule="evenodd" d="M38.0389 10.4587C42.9542 15.1311 44.5805 21.7459 42.9178 27.7037C32.2689 26.4316 24.0146 17.3577 24.0146 6.35352C24.0146 5.97758 24.0243 5.60389 24.0433 5.23269C29.086 5.05765 34.1892 6.79929 38.0389 10.4587Z" fill="#A5D2E7"/>
<path d="M25.4671 18.1116H24.5052V19.4515C22.1299 19.6106 20.4321 20.8836 20.4321 22.9856C20.4321 24.8196 21.6281 25.7408 23.9114 26.26L24.5052 26.3857V29.3419C23.5685 29.2079 22.9412 28.6887 22.8241 27.7842H20.591C20.6746 29.7606 22.1801 31.0671 24.5052 31.2346V32.5996H25.4671V31.2429C27.7671 31.1006 29.4148 29.8025 29.4148 27.801C29.4148 25.9921 28.2104 25.0122 26.0274 24.5181L25.4671 24.3841V21.3274C26.6045 21.453 27.2067 22.0476 27.3405 22.9018H29.582C29.5235 20.8082 27.8173 19.5771 25.4671 19.4431V18.1116ZM27.0729 28.0187C27.0729 28.6887 26.5209 29.233 25.4671 29.3586V26.6118C26.5962 26.9133 27.0729 27.3487 27.0729 28.0187ZM22.7656 22.726C22.7656 21.9639 23.3427 21.4447 24.5052 21.3274V24.1664C23.2088 23.8398 22.7656 23.4629 22.7656 22.726Z" fill="white"/>
<path fill-rule="evenodd" clip-rule="evenodd" d="M107.579 83.8071C117.171 92.9249 117.171 107.708 107.579 116.826L93.8674 129.859C91.848 131.779 88.574 131.779 86.5547 129.859L72.8433 116.826C63.2514 107.708 63.2514 92.9249 72.8433 83.8071C82.4352 74.6893 97.9868 74.6893 107.579 83.8071Z" fill="white"/>
<path fill-rule="evenodd" clip-rule="evenodd" d="M103.619 87.4265C110.964 94.4092 110.964 105.73 103.619 112.713L93.1181 122.695C91.5716 124.165 89.0642 124.165 87.5177 122.695L77.0172 112.713C69.6714 105.73 69.6714 94.4092 77.0172 87.4265C84.363 80.4438 96.2728 80.4438 103.619 87.4265Z" fill="#155D72"/>
<path fill-rule="evenodd" clip-rule="evenodd" d="M103.603 87.4274C108.519 92.0998 110.145 98.7147 108.482 104.672C97.8334 103.4 89.5791 94.3265 89.5791 83.3223C89.5791 82.9463 89.5887 82.5726 89.6078 82.2014C94.6505 82.0264 99.7536 83.768 103.603 87.4274Z" fill="#155D72"/>
<path d="M102.172 95.0783H101.229V96.4184C98.901 96.5776 97.2369 97.8507 97.2369 99.953C97.2369 101.787 98.4091 102.709 100.647 103.228L101.229 103.354V106.31C100.311 106.176 99.6962 105.657 99.5814 104.752H97.3926C97.4746 106.729 98.9502 108.036 101.229 108.203V109.568H102.172V108.211C104.426 108.069 106.041 106.771 106.041 104.769C106.041 102.96 104.861 101.98 102.721 101.486L102.172 101.352V98.2946C103.287 98.4202 103.877 99.0149 104.008 99.8692H106.205C106.148 97.7753 104.475 96.5441 102.172 96.41V95.0783ZM103.746 104.987C103.746 105.657 103.205 106.201 102.172 106.327V103.58C103.279 103.881 103.746 104.317 103.746 104.987ZM99.524 99.6933C99.524 98.9311 100.09 98.4119 101.229 98.2946V101.134C99.9585 100.807 99.524 100.43 99.524 99.6933Z" fill="white"/>
<path d="M90.8998 95.0783H89.9571V96.4184C87.6289 96.5776 85.9648 97.8507 85.9648 99.953C85.9648 101.787 87.1371 102.709 89.375 103.228L89.9571 103.354V106.31C89.0389 106.176 88.4241 105.657 88.3093 104.752H86.1206C86.2026 106.729 87.6781 108.036 89.9571 108.203V109.568H90.8998V108.211C93.1541 108.069 94.7691 106.771 94.7691 104.769C94.7691 102.96 93.5886 101.98 91.449 101.486L90.8998 101.352V98.2946C92.0147 98.4202 92.6049 99.0149 92.7361 99.8692H94.933C94.8756 97.7753 93.2033 96.5441 90.8998 96.41V95.0783ZM92.4737 104.987C92.4737 105.657 91.9327 106.201 90.8998 106.327V103.58C92.0065 103.881 92.4737 104.317 92.4737 104.987ZM88.252 99.6933C88.252 98.9311 88.8176 98.4119 89.9571 98.2946V101.134C88.6864 100.807 88.252 100.43 88.252 99.6933Z" fill="white"/>
<path d="M79.6277 95.0783H78.685V96.4184C76.3569 96.5776 74.6928 97.8507 74.6928 99.953C74.6928 101.787 75.865 102.709 78.103 103.228L78.685 103.354V106.31C77.7669 106.176 77.1521 105.657 77.0373 104.752H74.8485C74.9305 106.729 76.4061 108.036 78.685 108.203V109.568H79.6277V108.211C81.8821 108.069 83.497 106.771 83.497 104.769C83.497 102.96 82.3166 101.98 80.177 101.486L79.6277 101.352V98.2946C80.7426 98.4202 81.3328 99.0149 81.464 99.8692H83.661C83.6036 97.7753 81.9313 96.5441 79.6277 96.41V95.0783ZM81.2017 104.987C81.2017 105.657 80.6606 106.201 79.6277 106.327V103.58C80.7344 103.881 81.2017 104.317 81.2017 104.987ZM76.9799 99.6933C76.9799 98.9311 77.5455 98.4119 78.685 98.2946V101.134C77.4144 100.807 76.9799 100.43 76.9799 99.6933Z" fill="white"/>
</g>
<defs>
<clipPath id="clip0_58230_74505">
<rect width="115" height="132" fill="white"/>
</clipPath>
</defs>
</svg>
