<svg width="177" height="114" viewBox="0 0 177 114" fill="none" xmlns="http://www.w3.org/2000/svg">
<g clip-path="url(#clip0_58230_77189)">
<path d="M39.6197 26.3406C39.6197 26.3406 37.1975 10.6237 29.992 7.65132C22.7865 4.67893 15.6889 7.02629 15.6326 11.3244C15.5763 15.624 24.7442 21.3126 28.96 26.39C31.7934 29.8022 41.3929 31.3193 39.6197 26.3406Z" fill="#6F989F"/>
<path d="M20.796 11.1825C21.8984 11.2288 22.9992 11.2751 24.1016 11.3214C23.509 10.86 22.9054 10.414 22.2893 9.98649C22.1595 9.89698 22.0954 9.73648 22.1783 9.59141C22.2502 9.46486 22.4488 9.39078 22.5786 9.48184C24.627 10.9078 26.5504 12.5036 28.3236 14.2522C28.0421 13.1502 27.7591 12.0483 27.4776 10.9449C27.3854 10.5837 27.9499 10.4202 28.0421 10.7828C28.3955 12.1625 28.7489 13.5422 29.1007 14.9204C29.1117 14.9652 29.1132 15.0068 29.107 15.0439C29.2039 15.1442 29.2993 15.2445 29.3947 15.3448C30.4502 16.4622 31.4447 17.6335 32.3767 18.8543L32.3173 14.5917C32.3126 14.2182 32.899 14.2105 32.9052 14.584L32.974 19.4947C32.974 19.5426 32.9662 19.5842 32.949 19.6197C33.6214 20.5411 34.2578 21.4887 34.8551 22.4609C35.7339 23.8916 36.5283 25.3731 37.232 26.8948C37.2976 27.0368 37.2789 27.205 37.1319 27.293C37.0083 27.3671 36.7941 27.3377 36.7284 27.1942C36.0342 25.6926 35.2508 24.2296 34.386 22.8174C34.3125 22.8514 34.225 22.8529 34.1327 22.8005C33.2054 22.2696 32.1718 21.9254 31.1038 21.8128C30.9459 21.7958 30.8083 21.697 30.8067 21.5272C30.8052 21.3853 30.9381 21.217 31.096 21.234C32.0655 21.3374 33.0053 21.5967 33.8794 22.0134C33.3477 21.1862 32.7879 20.3775 32.2 19.5873C31.9013 19.1861 31.5948 18.7894 31.2805 18.399C31.2133 18.4113 31.1398 18.4021 31.0726 18.3712C29.2196 17.5486 27.365 16.7261 25.5121 15.9035C25.3666 15.8387 25.3275 15.6349 25.401 15.5084C25.4855 15.3618 25.6559 15.334 25.8013 15.3988L30.5425 17.5023C29.2055 15.9235 27.7544 14.4404 26.2032 13.0654C25.7372 12.6533 25.2634 12.2505 24.7803 11.8585C24.7349 11.8986 24.6708 11.9233 24.5895 11.9202C23.3276 11.8678 22.0657 11.8138 20.8038 11.7613C20.4269 11.7458 20.4175 11.1656 20.796 11.181V11.1825Z" fill="#CEE7F4"/>
<path d="M102.149 103.908C103.539 103.965 105 103.535 106.263 102.688C111.209 99.3695 123.009 89.9369 120.36 76.9053C119.065 70.5299 119.193 67.9712 120.003 64.4031C122.099 55.1804 123.062 47.967 116.354 49.1461C109.645 50.3252 105.279 63.7858 103.914 65.8337C101.502 69.4527 96.4023 68.9712 93.9332 76.8096C91.4657 84.648 93.3906 103.549 93.3906 103.549L102.149 103.908Z" fill="#6F989F"/>
<path d="M95.3936 87.6547C95.4906 87.5729 95.6376 87.5636 95.722 87.6315L102.307 92.9898C102.863 90.2443 103.642 86.9818 104.713 83.4955L101.229 73.6339C101.195 73.5366 101.268 73.4224 101.392 73.3792C101.516 73.336 101.644 73.3792 101.678 73.4764L104.951 82.7377C105.087 82.3087 105.228 81.8766 105.372 81.4414C106.524 77.9875 108.038 73.782 109.55 69.6923L108.522 64.8525C108.501 64.7522 108.587 64.6426 108.713 64.6102C108.84 64.5763 108.96 64.6318 108.982 64.7321L109.859 68.8605C112.824 60.8708 115.692 53.5479 115.736 53.4352C115.776 53.3303 115.909 53.2608 116.031 53.2794C116.153 53.2979 116.219 53.3966 116.178 53.5016C116.133 53.6158 113.178 61.164 110.166 69.2941L116.369 66.402C116.488 66.3464 116.624 66.3757 116.674 66.4668C116.724 66.5579 116.668 66.6751 116.549 66.7307L109.983 69.7926C108.477 73.8669 106.971 78.0508 105.823 81.4908C105.639 82.0417 105.464 82.5896 105.293 83.1328L114.622 79.4629C114.744 79.415 114.876 79.4521 114.916 79.5478C114.957 79.6419 114.89 79.7576 114.768 79.8055L105.151 83.5881C104.082 87.0744 103.306 90.3338 102.754 93.0716L114.139 88.3384C114.261 88.2874 114.394 88.3229 114.436 88.4171C114.48 88.5112 114.416 88.627 114.296 88.6779L102.666 93.513C101.778 98.0102 101.505 100.989 101.5 101.041C101.49 101.148 101.379 101.24 101.251 101.248C101.242 101.248 101.234 101.248 101.225 101.248C101.109 101.245 101.026 101.169 101.035 101.071C101.04 101.018 101.315 98.0179 102.21 93.4899L95.3733 87.9278C95.2889 87.8599 95.2998 87.738 95.3968 87.6562L95.3936 87.6547Z" fill="#CEE7F4"/>
<path d="M95.1231 103.345H40.2296C37.526 103.345 26.2111 103.68 28.7505 104.414C31.1054 105.096 47.3116 105.484 50.0152 105.484H99.4764C107.698 105.484 114.991 105.002 112.3 104.414C109.609 103.826 104.071 103.345 95.1231 103.345Z" fill="black" fill-opacity="0.15"/>
<path d="M26.3846 111.861H4.68361C3.61404 111.861 -0.858127 112.196 0.145766 112.931C1.07616 113.613 7.48263 114 8.55219 114H28.1062C31.3571 114 34.239 113.519 33.1757 112.931C32.1124 112.343 29.9217 111.861 26.3846 111.861Z" fill="black" fill-opacity="0.15"/>
<path d="M151.945 110.517H130.244C129.174 110.517 124.702 110.851 125.706 111.586C126.636 112.268 133.043 112.656 134.112 112.656H153.666C156.917 112.656 159.799 112.174 158.736 111.586C157.672 110.998 155.482 110.517 151.945 110.517Z" fill="black" fill-opacity="0.15"/>
<path d="M32.2796 103.884L105.212 103.884L105.212 7.62939e-05L32.2796 7.62939e-05L32.2796 103.884Z" fill="#EFF9FF"/>
<path d="M83.1091 16.3018L100.793 16.3018V14.5656L83.1091 14.5656V16.3018Z" fill="#79B9D3"/>
<path d="M54.2602 16.1123L80.499 16.1123V14.5659L54.2602 14.5659V16.1123Z" fill="#79B9D3"/>
<path d="M54.262 11.791L100.794 11.791V8.46676L54.262 8.46676V11.791Z" fill="#79B9D3"/>
<path d="M57.5352 26.1113L85.2627 26.1113V23.872L57.5352 23.872V26.1113Z" fill="#79B9D3"/>
<path d="M57.5352 30.1436L85.2627 30.1436V27.9042L57.5352 27.9042V30.1436Z" fill="#79B9D3"/>
<path d="M57.5352 34.1797H85.2627V31.9404L57.5352 31.9404V34.1797Z" fill="#79B9D3"/>
<path d="M57.5352 57.4844H85.2627V55.2451H57.5352V57.4844Z" fill="#79B9D3"/>
<path d="M57.5352 61.5176H85.2627V59.2783H57.5352V61.5176Z" fill="#79B9D3"/>
<path d="M57.5352 65.5498H85.2627V63.3105H57.5352V65.5498Z" fill="#79B9D3"/>
<path d="M57.5352 84H85.2627V81.7607H57.5352V84Z" fill="#79B9D3"/>
<path d="M57.5352 88.0352H85.2627V85.7958H57.5352V88.0352Z" fill="#79B9D3"/>
<path d="M57.5349 92.0684H68.5918V89.3799H57.5349V92.0684Z" fill="#79B9D3"/>
<path d="M57.535 38.2119H74.7231V35.971H57.535V38.2119Z" fill="#79B9D3"/>
<path d="M54.7328 24.1631H37.7183V40.1007H54.7328V24.1631Z" fill="white"/>
<path d="M54.7328 54.8945H37.7183V70.8321H54.7328V54.8945Z" fill="white"/>
<path d="M54.7328 80.7715H37.7183V96.7091H54.7328V80.7715Z" fill="white"/>
<path d="M100.837 26.6279H91.064V35.7827H100.837V26.6279Z" fill="white"/>
<path d="M100.837 58.207H91.064V67.3619H100.837V58.207Z" fill="white"/>
<path d="M100.837 84.2588H91.064V93.4136H100.837V84.2588Z" fill="white"/>
<path d="M101.75 22.0183C98.8603 24.5632 96.3631 27.7795 94.704 31.2658C93.708 30.4849 92.7494 29.6561 91.6392 29.0295C90.6353 28.4631 89.7315 29.9925 90.7338 30.5574C92.1364 31.3476 93.3045 32.4711 94.6071 33.4032C95.1278 33.7752 95.7267 33.3477 95.9237 32.8739C97.4342 29.2425 100.061 25.8704 103.017 23.2684C103.88 22.5091 102.609 21.2606 101.748 22.0168L101.75 22.0183Z" fill="#00A663"/>
<path fill-rule="evenodd" clip-rule="evenodd" d="M50.4819 93.6147H42.9111V87.1032L46.351 84.6406L50.3724 87.0063L50.4819 93.6147Z" fill="#CCCCCC"/>
<path fill-rule="evenodd" clip-rule="evenodd" d="M42.0698 87.0891L43.773 84.2715H45.9153L50.5976 86.967L42.0698 87.0891Z" fill="#EF5E4E"/>
<path fill-rule="evenodd" clip-rule="evenodd" d="M39.8135 87.0891L43.773 84.2715L43.7789 84.6404L46.9419 87.0891H39.8135Z" fill="#D55A4D"/>
<path fill-rule="evenodd" clip-rule="evenodd" d="M47.9096 93.6147H40.3389V87.1032L43.7787 84.6406L47.8002 87.0063L47.9096 93.6147Z" fill="#F7F7F7"/>
<path fill-rule="evenodd" clip-rule="evenodd" d="M44.8379 92.7715H47.337V89.4941H44.8379V92.7715Z" fill="white"/>
<path fill-rule="evenodd" clip-rule="evenodd" d="M45.0972 92.7713H47.1189V89.6904H45.0972V92.7713Z" fill="#D55A4D"/>
<path fill-rule="evenodd" clip-rule="evenodd" d="M45.2603 92.7713H46.8078V89.6904H45.2603V92.7713Z" fill="#EF5E4E"/>
<path fill-rule="evenodd" clip-rule="evenodd" d="M46.6602 91.3487C46.6602 91.4679 46.6029 91.5646 46.532 91.5646C46.4612 91.5646 46.4038 91.4679 46.4038 91.3487C46.4038 91.2295 46.4612 91.1328 46.532 91.1328C46.6029 91.1328 46.6602 91.2295 46.6602 91.3487Z" fill="#D55A4D"/>
<path fill-rule="evenodd" clip-rule="evenodd" d="M41.4746 92.8333H43.7943V87.2988H41.4746V92.8333Z" fill="#BCDCE5"/>
<path fill-rule="evenodd" clip-rule="evenodd" d="M41.8613 92.7776H43.7406V87.6582H41.8613V92.7776Z" fill="#E8F4F6"/>
<path fill-rule="evenodd" clip-rule="evenodd" d="M41.5499 92.7581H43.7191V87.3728H41.5499V92.7581ZM43.7944 92.9072H41.4747C41.4331 92.9072 41.3994 92.8738 41.3994 92.8326V87.2982C41.3994 87.257 41.4331 87.2236 41.4747 87.2236H43.7944C43.8359 87.2236 43.8696 87.257 43.8696 87.2982V92.8326C43.8696 92.8738 43.8359 92.9072 43.7944 92.9072Z" fill="white"/>
<path fill-rule="evenodd" clip-rule="evenodd" d="M43.7541 88.3826H41.5214C41.4936 88.3826 41.4712 88.3604 41.4712 88.3329C41.4712 88.3055 41.4936 88.2832 41.5214 88.2832H43.7541C43.7818 88.2832 43.8042 88.3055 43.8042 88.3329C43.8042 88.3604 43.7818 88.3826 43.7541 88.3826Z" fill="white"/>
<path fill-rule="evenodd" clip-rule="evenodd" d="M43.7541 89.5555H41.5214C41.4936 89.5555 41.4712 89.5333 41.4712 89.5058C41.4712 89.4783 41.4936 89.4561 41.5214 89.4561H43.7541C43.7818 89.4561 43.8042 89.4783 43.8042 89.5058C43.8042 89.5333 43.7818 89.5555 43.7541 89.5555Z" fill="white"/>
<path fill-rule="evenodd" clip-rule="evenodd" d="M47.1114 92.751H47.3369V93.6215H46.7378V92.816L47.1114 92.751Z" fill="#DBCFFD"/>
<path fill-rule="evenodd" clip-rule="evenodd" d="M44.7417 93.0412H47.1115V92.751H44.7417V93.0412Z" fill="#F8F7FD"/>
<path fill-rule="evenodd" clip-rule="evenodd" d="M44.5552 93.3312H46.9249V93.041H44.5552V93.3312Z" fill="#EEEAFE"/>
<path fill-rule="evenodd" clip-rule="evenodd" d="M44.3682 93.6213H46.7379V93.3311H44.3682V93.6213Z" fill="#F8F7FD"/>
<path fill-rule="evenodd" clip-rule="evenodd" d="M41.2099 92.9846C41.1376 92.9961 41.0669 93.0022 41.0004 93.0211C41.001 92.9926 41.0012 92.964 40.9994 92.935C40.9637 92.3688 40.4717 91.9384 39.9004 91.9737C39.3417 92.0083 38.9153 92.4755 38.93 93.0257C38.9037 93.0238 38.8771 93.0224 38.8501 93.0245C38.2531 93.0711 38.3122 93.6287 38.3122 93.6287L42.0875 93.6304C42.0875 93.6304 41.9427 92.8684 41.2099 92.9846Z" fill="#79B9D3"/>
<path fill-rule="evenodd" clip-rule="evenodd" d="M51.814 93.2251C51.7661 93.2247 51.7211 93.2392 51.6793 93.2564C51.63 93.146 51.5542 93.0508 51.46 92.9778C51.4687 92.9363 51.4725 92.8932 51.4696 92.8488C51.4526 92.5849 51.2229 92.3846 50.9567 92.4014C50.8577 92.4077 50.7678 92.4431 50.6946 92.4986C50.4992 92.2728 50.2038 92.1369 49.8812 92.1573C49.4658 92.1836 49.1274 92.4609 49.0051 92.8303C48.9816 92.8294 48.9579 92.8296 48.9339 92.8311C48.693 92.8464 48.4899 92.9845 48.3817 93.1798C48.2939 93.1243 48.1886 93.0961 48.0767 93.1017C47.5873 93.1263 47.6016 93.6369 47.6016 93.6369C47.6016 93.6369 48.5096 93.6439 49.6311 93.6375C50.8365 93.6307 52.2618 93.6156 52.2618 93.6156C52.2618 93.6156 52.226 93.228 51.814 93.2251Z" fill="#79B9D3"/>
<path fill-rule="evenodd" clip-rule="evenodd" d="M52.6113 93.6401H52.9385V91.7129H52.6113V93.6401Z" fill="#128046"/>
<path fill-rule="evenodd" clip-rule="evenodd" d="M54.2538 89.6533C54.2538 91.8393 53.5816 92.9609 52.7847 92.9609C51.9878 92.9609 51.3091 91.9171 51.3091 89.7311C51.3091 87.545 52.7847 83.9551 52.7847 83.9551C52.7847 83.9551 54.2538 87.4672 54.2538 89.6533Z" fill="#6F989F"/>
<mask id="mask0_58230_77189" style="mask-type:alpha" maskUnits="userSpaceOnUse" x="51" y="84" width="2" height="7">
<path d="M52.1225 90.0159C52.113 90.0159 52.1036 90.0154 52.0943 90.0144C51.7569 89.9764 51.5417 89.3145 51.6926 87.9959C51.8436 86.6773 52.7163 84.582 52.7163 84.582C52.7163 84.582 53.0956 86.7705 52.9446 88.0891C52.7978 89.371 52.4515 90.0159 52.1225 90.0159Z" fill="white"/>
</mask>
<g mask="url(#mask0_58230_77189)">
<path fill-rule="evenodd" clip-rule="evenodd" d="M51.5415 90.0159H53.0954V84.582H51.5415V90.0159Z" fill="#67CD6A"/>
</g>
<path fill-rule="evenodd" clip-rule="evenodd" d="M50.4819 66.9154H42.9111V60.404L46.351 57.9414L50.3724 60.3071L50.4819 66.9154Z" fill="#CCCCCC"/>
<path fill-rule="evenodd" clip-rule="evenodd" d="M42.0698 60.3899L43.773 57.5723H45.9153L50.5976 60.2678L42.0698 60.3899Z" fill="#EF5E4E"/>
<path fill-rule="evenodd" clip-rule="evenodd" d="M39.8135 60.3899L43.773 57.5723L43.7789 57.9412L46.9419 60.3899H39.8135Z" fill="#D55A4D"/>
<path fill-rule="evenodd" clip-rule="evenodd" d="M47.9096 66.9154H40.3389V60.404L43.7787 57.9414L47.8002 60.3071L47.9096 66.9154Z" fill="#F7F7F7"/>
<path fill-rule="evenodd" clip-rule="evenodd" d="M44.8379 66.0723H47.337V62.7949H44.8379V66.0723Z" fill="white"/>
<path fill-rule="evenodd" clip-rule="evenodd" d="M45.0972 66.0721H47.1189V62.9912H45.0972V66.0721Z" fill="#D55A4D"/>
<path fill-rule="evenodd" clip-rule="evenodd" d="M45.2603 66.0721H46.8078V62.9912H45.2603V66.0721Z" fill="#EF5E4E"/>
<path fill-rule="evenodd" clip-rule="evenodd" d="M46.6602 64.6495C46.6602 64.7687 46.6029 64.8654 46.532 64.8654C46.4612 64.8654 46.4038 64.7687 46.4038 64.6495C46.4038 64.5302 46.4612 64.4336 46.532 64.4336C46.6029 64.4336 46.6602 64.5302 46.6602 64.6495Z" fill="#D55A4D"/>
<path fill-rule="evenodd" clip-rule="evenodd" d="M41.4746 66.134H43.7943V60.5996H41.4746V66.134Z" fill="#BCDCE5"/>
<path fill-rule="evenodd" clip-rule="evenodd" d="M41.8613 66.0784H43.7406V60.959H41.8613V66.0784Z" fill="#E8F4F6"/>
<path fill-rule="evenodd" clip-rule="evenodd" d="M41.5499 66.0588H43.7191V60.6736H41.5499V66.0588ZM43.7944 66.208H41.4747C41.4331 66.208 41.3994 66.1746 41.3994 66.1334V60.599C41.3994 60.5578 41.4331 60.5244 41.4747 60.5244H43.7944C43.8359 60.5244 43.8696 60.5578 43.8696 60.599V66.1334C43.8696 66.1746 43.8359 66.208 43.7944 66.208Z" fill="white"/>
<path fill-rule="evenodd" clip-rule="evenodd" d="M43.7541 61.6834H41.5214C41.4936 61.6834 41.4712 61.6612 41.4712 61.6337C41.4712 61.6063 41.4936 61.584 41.5214 61.584H43.7541C43.7818 61.584 43.8042 61.6063 43.8042 61.6337C43.8042 61.6612 43.7818 61.6834 43.7541 61.6834Z" fill="white"/>
<path fill-rule="evenodd" clip-rule="evenodd" d="M43.7541 62.8563H41.5214C41.4936 62.8563 41.4712 62.834 41.4712 62.8066C41.4712 62.7791 41.4936 62.7568 41.5214 62.7568H43.7541C43.7818 62.7568 43.8042 62.7791 43.8042 62.8066C43.8042 62.834 43.7818 62.8563 43.7541 62.8563Z" fill="white"/>
<path fill-rule="evenodd" clip-rule="evenodd" d="M47.1114 66.0518H47.3369V66.9223H46.7378V66.1167L47.1114 66.0518Z" fill="#DBCFFD"/>
<path fill-rule="evenodd" clip-rule="evenodd" d="M44.7417 66.3419H47.1115V66.0518H44.7417V66.3419Z" fill="#F8F7FD"/>
<path fill-rule="evenodd" clip-rule="evenodd" d="M44.5552 66.632H46.9249V66.3418H44.5552V66.632Z" fill="#EEEAFE"/>
<path fill-rule="evenodd" clip-rule="evenodd" d="M44.3682 66.922H46.7379V66.6318H44.3682V66.922Z" fill="#F8F7FD"/>
<path fill-rule="evenodd" clip-rule="evenodd" d="M41.2099 66.2854C41.1376 66.2969 41.0669 66.303 41.0004 66.3219C41.001 66.2934 41.0012 66.2647 40.9994 66.2358C40.9637 65.6696 40.4717 65.2392 39.9004 65.2745C39.3417 65.309 38.9153 65.7763 38.93 66.3265C38.9037 66.3246 38.8771 66.3232 38.8501 66.3253C38.2531 66.3718 38.3122 66.9295 38.3122 66.9295L42.0875 66.9312C42.0875 66.9312 41.9427 66.1691 41.2099 66.2854Z" fill="#79B9D3"/>
<path fill-rule="evenodd" clip-rule="evenodd" d="M51.814 66.5259C51.7661 66.5255 51.7211 66.54 51.6793 66.5572C51.63 66.4468 51.5542 66.3515 51.46 66.2786C51.4687 66.2371 51.4725 66.1939 51.4696 66.1495C51.4526 65.8856 51.2229 65.6853 50.9567 65.7022C50.8577 65.7085 50.7678 65.7439 50.6946 65.7994C50.4992 65.5736 50.2038 65.4376 49.8812 65.4581C49.4658 65.4844 49.1274 65.7616 49.0051 66.131C48.9816 66.1301 48.9579 66.1303 48.9339 66.1319C48.693 66.1472 48.4899 66.2853 48.3817 66.4806C48.2939 66.4251 48.1886 66.3969 48.0767 66.4025C47.5873 66.4271 47.6016 66.9377 47.6016 66.9377C47.6016 66.9377 48.5096 66.9447 49.6311 66.9383C50.8365 66.9314 52.2618 66.9164 52.2618 66.9164C52.2618 66.9164 52.226 66.5288 51.814 66.5259Z" fill="#79B9D3"/>
<path fill-rule="evenodd" clip-rule="evenodd" d="M52.6113 66.9408H52.9385V65.0137H52.6113V66.9408Z" fill="#128046"/>
<path fill-rule="evenodd" clip-rule="evenodd" d="M54.2538 62.9541C54.2538 65.1401 53.5816 66.2617 52.7847 66.2617C51.9878 66.2617 51.3091 65.2179 51.3091 63.0319C51.3091 60.8458 52.7847 57.2559 52.7847 57.2559C52.7847 57.2559 54.2538 60.768 54.2538 62.9541Z" fill="#6F989F"/>
<mask id="mask1_58230_77189" style="mask-type:alpha" maskUnits="userSpaceOnUse" x="51" y="57" width="2" height="7">
<path d="M52.1225 63.3167C52.113 63.3167 52.1036 63.3162 52.0943 63.3152C51.7569 63.2772 51.5417 62.6153 51.6926 61.2967C51.8436 59.9781 52.7163 57.8828 52.7163 57.8828C52.7163 57.8828 53.0956 60.0713 52.9446 61.3899C52.7978 62.6718 52.4515 63.3167 52.1225 63.3167Z" fill="white"/>
</mask>
<g mask="url(#mask1_58230_77189)">
<path fill-rule="evenodd" clip-rule="evenodd" d="M51.5415 63.3167H53.0954V57.8828H51.5415V63.3167Z" fill="#67CD6A"/>
</g>
<path fill-rule="evenodd" clip-rule="evenodd" d="M51.2636 36.976H43.6929V30.4645L47.1327 28.002L51.1541 30.3676L51.2636 36.976Z" fill="#CCCCCC"/>
<path fill-rule="evenodd" clip-rule="evenodd" d="M42.8516 30.4505L44.5548 27.6328H46.697L51.3793 30.3284L42.8516 30.4505Z" fill="#EF5E4E"/>
<path fill-rule="evenodd" clip-rule="evenodd" d="M40.5952 30.4505L44.5547 27.6328L44.5607 28.0018L47.7236 30.4505H40.5952Z" fill="#D55A4D"/>
<path fill-rule="evenodd" clip-rule="evenodd" d="M48.6913 36.976H41.1206V30.4645L44.5605 28.002L48.5819 30.3676L48.6913 36.976Z" fill="#F7F7F7"/>
<path fill-rule="evenodd" clip-rule="evenodd" d="M45.6196 36.1329H48.1188V32.8555H45.6196V36.1329Z" fill="white"/>
<path fill-rule="evenodd" clip-rule="evenodd" d="M45.8789 36.1326H47.9006V33.0518H45.8789V36.1326Z" fill="#D55A4D"/>
<path fill-rule="evenodd" clip-rule="evenodd" d="M46.042 36.1326H47.5895V33.0518H46.042V36.1326Z" fill="#EF5E4E"/>
<path fill-rule="evenodd" clip-rule="evenodd" d="M47.442 34.7101C47.442 34.8293 47.3846 34.9259 47.3137 34.9259C47.2429 34.9259 47.1855 34.8293 47.1855 34.7101C47.1855 34.5908 47.2429 34.4941 47.3137 34.4941C47.3846 34.4941 47.442 34.5908 47.442 34.7101Z" fill="#D55A4D"/>
<path fill-rule="evenodd" clip-rule="evenodd" d="M42.2563 36.1946H44.576V30.6602H42.2563V36.1946Z" fill="#BCDCE5"/>
<path fill-rule="evenodd" clip-rule="evenodd" d="M42.6431 36.1389H44.5224V31.0195H42.6431V36.1389Z" fill="#E8F4F6"/>
<path fill-rule="evenodd" clip-rule="evenodd" d="M42.3316 36.1194H44.5008V30.7341H42.3316V36.1194ZM44.5761 36.2685H42.2564C42.2149 36.2685 42.1812 36.2351 42.1812 36.194V30.6595C42.1812 30.6184 42.2149 30.585 42.2564 30.585H44.5761C44.6176 30.585 44.6513 30.6184 44.6513 30.6595V36.194C44.6513 36.2351 44.6176 36.2685 44.5761 36.2685Z" fill="white"/>
<path fill-rule="evenodd" clip-rule="evenodd" d="M44.5358 31.744H42.3031C42.2754 31.744 42.2529 31.7217 42.2529 31.6942C42.2529 31.6668 42.2754 31.6445 42.3031 31.6445H44.5358C44.5635 31.6445 44.586 31.6668 44.586 31.6942C44.586 31.7217 44.5635 31.744 44.5358 31.744Z" fill="white"/>
<path fill-rule="evenodd" clip-rule="evenodd" d="M44.5358 32.9168H42.3031C42.2754 32.9168 42.2529 32.8946 42.2529 32.8671C42.2529 32.8396 42.2754 32.8174 42.3031 32.8174H44.5358C44.5635 32.8174 44.586 32.8396 44.586 32.8671C44.586 32.8946 44.5635 32.9168 44.5358 32.9168Z" fill="white"/>
<path fill-rule="evenodd" clip-rule="evenodd" d="M47.8931 36.1123H48.1187V36.9828H47.5195V36.1773L47.8931 36.1123Z" fill="#DBCFFD"/>
<path fill-rule="evenodd" clip-rule="evenodd" d="M45.5234 36.4025H47.8932V36.1123H45.5234V36.4025Z" fill="#F8F7FD"/>
<path fill-rule="evenodd" clip-rule="evenodd" d="M45.3369 36.6925H47.7067V36.4023H45.3369V36.6925Z" fill="#EEEAFE"/>
<path fill-rule="evenodd" clip-rule="evenodd" d="M45.1499 36.9826H47.5197V36.6924H45.1499V36.9826Z" fill="#F8F7FD"/>
<path fill-rule="evenodd" clip-rule="evenodd" d="M41.9916 36.346C41.9193 36.3575 41.8487 36.3635 41.7821 36.3824C41.7827 36.3539 41.7829 36.3253 41.7811 36.2963C41.7455 35.7301 41.2534 35.2997 40.6821 35.335C40.1234 35.3696 39.6971 35.8369 39.7118 36.387C39.6855 36.3851 39.6589 36.3838 39.6318 36.3858C39.0349 36.4324 39.0939 36.99 39.0939 36.99L42.8692 36.9917C42.8692 36.9917 42.7244 36.2297 41.9916 36.346Z" fill="#79B9D3"/>
<path fill-rule="evenodd" clip-rule="evenodd" d="M52.5957 36.5864C52.5478 36.586 52.5028 36.6006 52.461 36.6178C52.4117 36.5073 52.3359 36.4121 52.2417 36.3392C52.2505 36.2976 52.2543 36.2545 52.2514 36.2101C52.2344 35.9462 52.0047 35.7459 51.7384 35.7627C51.6395 35.769 51.5495 35.8044 51.4763 35.8599C51.281 35.6342 50.9855 35.4982 50.663 35.5186C50.2475 35.5449 49.9092 35.8222 49.7869 36.1916C49.7634 36.1907 49.7396 36.1909 49.7156 36.1924C49.4747 36.2077 49.2717 36.3459 49.1634 36.5411C49.0756 36.4857 48.9703 36.4574 48.8585 36.463C48.369 36.4877 48.3833 36.9982 48.3833 36.9982C48.3833 36.9982 49.2913 37.0052 50.4128 36.9988C51.6182 36.992 53.0436 36.977 53.0436 36.977C53.0436 36.977 53.0077 36.5894 52.5957 36.5864Z" fill="#79B9D3"/>
<path fill-rule="evenodd" clip-rule="evenodd" d="M53.3931 37.0014H53.7202V35.0742H53.3931V37.0014Z" fill="#128046"/>
<path fill-rule="evenodd" clip-rule="evenodd" d="M55.0356 33.0146C55.0356 35.2007 54.3634 36.3223 53.5664 36.3223C52.7695 36.3223 52.0908 35.2785 52.0908 33.0924C52.0908 30.9064 53.5664 27.3164 53.5664 27.3164C53.5664 27.3164 55.0356 30.8286 55.0356 33.0146Z" fill="#6F989F"/>
<mask id="mask2_58230_77189" style="mask-type:alpha" maskUnits="userSpaceOnUse" x="52" y="27" width="2" height="7">
<path d="M52.9042 33.3773C52.8948 33.3773 52.8854 33.3768 52.876 33.3757C52.5387 33.3377 52.3234 32.6758 52.4743 31.3572C52.6253 30.0386 53.498 27.9434 53.498 27.9434C53.498 27.9434 53.8773 30.1318 53.7263 31.4504C53.5795 32.7323 53.2333 33.3773 52.9042 33.3773Z" fill="white"/>
</mask>
<g mask="url(#mask2_58230_77189)">
<path fill-rule="evenodd" clip-rule="evenodd" d="M52.3232 33.3773H53.8771V27.9434H52.3232V33.3773Z" fill="#67CD6A"/>
</g>
<path d="M145.268 109.999C146.012 110.11 146.42 110.722 146.494 110.985C146.583 111.305 147.42 111.095 147.978 110.754C148.536 110.413 148.658 109.928 149.171 109.268C149.488 108.859 149.818 108.712 150.023 108.658C150.101 108.958 150.187 109.223 150.28 109.388C150.631 110.016 150.531 111.106 149.97 111.305C149.409 111.502 144.489 112.28 143.418 111.817C142.771 111.538 144.075 110.757 145.266 110.001L145.268 109.999Z" fill="#155D72"/>
<path d="M149.171 109.268C148.658 109.929 148.535 110.413 147.978 110.754C147.42 111.095 146.583 111.305 146.494 110.986C146.421 110.723 146.014 110.111 145.268 110C146.047 109.506 146.779 109.021 146.883 108.696C147.151 107.87 147.118 106.648 147.453 106.399C147.787 106.151 149.57 106.101 149.662 106.712C149.662 106.712 149.807 107.822 150.025 108.658C149.818 108.711 149.489 108.859 149.173 109.268H149.171Z" fill="#7363BA"/>
<path d="M133.074 109.999C133.818 110.11 134.226 110.722 134.3 110.985C134.389 111.305 135.226 111.095 135.784 110.754C136.342 110.413 136.464 109.928 136.977 109.268C137.294 108.859 137.624 108.712 137.831 108.658C137.909 108.958 137.995 109.223 138.087 109.388C138.439 110.016 138.339 111.106 137.778 111.305C137.216 111.502 132.297 112.28 131.226 111.817C130.578 111.538 131.882 110.757 133.074 110.001V109.999Z" fill="#155D72"/>
<path d="M136.979 109.268C136.466 109.929 136.342 110.413 135.786 110.754C135.227 111.095 134.391 111.305 134.302 110.986C134.228 110.723 133.822 110.111 133.076 110C133.854 109.506 134.586 109.021 134.691 108.696C134.958 107.87 134.926 106.648 135.26 106.399C135.595 106.151 137.377 106.101 137.47 106.712C137.47 106.712 137.615 107.822 137.832 108.658C137.626 108.711 137.296 108.859 136.979 109.268Z" fill="#7363BA"/>
<path d="M136.065 38.4402C134.542 37.096 126.467 42.8602 123.442 42.3401C119.923 41.7336 114.305 28.3779 110.785 30.5972C108.064 32.3133 115.825 47.2447 123.82 47.9994C131.857 48.7571 138.068 40.2088 136.065 38.4402Z" fill="#9388CD"/>
<path d="M101.803 28.8463L97.7769 26.3123L102.169 25.0684C102.87 25.6425 103.494 26.7953 101.803 28.8448V28.8463Z" fill="#155D72"/>
<path d="M110.075 29.3479C109.932 29.3819 109.833 29.3958 109.833 29.3958C109.833 29.3958 109.936 29.3433 110.075 29.3479Z" fill="#FFC253"/>
<path d="M101.803 28.8468C103.494 26.7973 102.87 25.6429 102.169 25.0703L109.974 22.8603C110.591 22.686 111.232 22.6088 111.872 22.6227C112.31 23.2848 112.601 24.0811 112.136 24.7385C111.145 26.146 108.973 27.2387 108.973 27.2387C108.973 27.2387 111.273 27.2773 111.278 28.2464C111.281 28.9641 110.486 29.2496 110.075 29.3484C109.936 29.3422 109.833 29.3962 109.833 29.3962C109.833 29.3962 109.931 29.3838 110.075 29.3484C110.324 29.3576 110.687 29.5582 110.785 30.5969C110.863 31.4225 110.05 32.5075 109.059 33.3702C108.86 33.2714 108.665 33.1634 108.476 33.0445L101.803 28.8468Z" fill="#FEDFB1"/>
<path d="M170.791 31.2359L174.298 31.7375C176.023 31.9844 177.217 33.5647 176.967 35.267L176.213 40.3877C175.963 42.0899 174.362 43.269 172.637 43.0221L169.13 42.5205L170.789 31.2344L170.791 31.2359Z" fill="#D2412B"/>
<path d="M110.99 33.9678C110.316 33.8721 109.666 33.6699 109.059 33.3705C110.051 32.5078 110.864 31.4229 110.785 30.5972C110.687 29.5586 110.324 29.358 110.076 29.3487C110.487 29.2499 111.281 28.966 111.278 28.2468C111.273 27.2776 108.973 27.239 108.973 27.239C108.973 27.239 111.145 26.1464 112.136 24.7389C112.601 24.0815 112.31 23.2851 111.872 22.623C112.132 22.6292 112.391 22.6447 112.649 22.6817L168.916 30.9676L167.257 42.2537L110.99 33.9678Z" fill="#EF5E4E"/>
<path d="M168.929 30.9727L167.269 42.2578L169.143 42.5263L170.803 31.2412L168.929 30.9727Z" fill="#FEDFB1"/>
<path d="M110.99 33.9674C110.316 33.8717 109.666 33.6696 109.059 33.3702C110.05 32.5075 110.864 31.4225 110.785 30.5969C110.767 30.3978 110.735 30.2373 110.699 30.0938C111.478 30.1941 112.243 30.3098 112.967 30.4441C118.219 31.4179 162.996 37.3472 167.881 38.0124L167.257 42.2518L110.99 33.9659V33.9674Z" fill="#F29892"/>
<path d="M175.117 32.7826C175.905 32.9817 176.534 33.7178 176.479 34.5435C176.459 34.8537 176.27 35.133 175.927 35.1515C175.641 35.167 175.291 34.92 175.311 34.6068C175.333 34.2827 175.178 33.9879 174.869 33.9107C174.143 33.7271 174.385 32.5989 175.117 32.7841V32.7826Z" fill="#F29892"/>
<path d="M140.832 33.0443C140.832 33.0443 140.741 31.1121 138.874 31.1846C137.007 31.2556 136.808 36.5151 136.608 37.2127C136.408 37.9103 135.104 40.8611 134.941 42.2037C134.779 43.5448 138.885 50.2443 142.932 50.4958C147.413 50.7752 149.022 44.9462 147.645 43.4445C146.267 41.9429 145.579 41.8164 145.579 41.8164C145.579 41.8164 145.784 39.1125 144.075 38.0893C142.1 36.9071 142.824 32.0612 140.83 33.0458L140.832 33.0443Z" fill="#D2412B"/>
<path d="M143.337 59.5305C141.901 57.0844 140.337 54.9824 140.337 54.9824C140.337 54.9824 130.714 56.6029 129.368 56.3868C126.205 71.2348 130.155 106.559 130.155 106.559L138.964 106.8C137.537 102.203 137.484 84.1584 137.09 73.218C138.61 84.217 143.035 106.21 143.061 106.8C143.061 106.8 150.698 107.112 151.089 106.229C151.652 104.957 146.562 65.0308 143.337 59.5305Z" fill="#FFBAC1"/>
<path d="M143.337 59.5305C143.756 58.1107 141.939 51.9699 142.447 49.1179C143.474 43.3614 142.175 40.0881 140.939 39.2918C139.144 38.1343 135.897 36.912 133.596 39.0356C129.237 43.062 130.78 43.1207 130.574 45.6903C130.314 48.9312 127.084 55.2818 125.978 57.89C131.582 61.6927 138.015 63.0184 143.337 59.5305Z" fill="#FFF6EA"/>
<path d="M140.223 35.9629L139.735 38.7208C139.69 39.1729 138.439 40.2131 137.781 39.5665C137.588 39.3767 137.932 38.7871 138.181 38.3396L138.974 36.1805L140.223 35.9629Z" fill="#9388CD"/>
<path d="M140.728 34.2343L140.619 35.2992C140.531 36.1433 139.792 36.8116 138.935 36.7421C138.144 36.6789 137.528 36.06 137.667 35.0877C137.79 34.2235 138.586 33.6571 138.905 33.3345C139.632 32.5999 140.764 32.9997 140.728 34.2327V34.2343Z" fill="#9388CD"/>
<path d="M139.191 34.889C139.191 34.889 138.659 34.8242 138.026 34.5264C138.026 34.5264 137.965 34.9816 138.159 35.1977C138.353 35.4138 138.785 35.2671 139.191 34.889Z" fill="white"/>
<path d="M140.436 35.2095C140.492 35.1338 140.536 35.0505 140.575 34.9641C140.649 34.8005 140.797 34.5752 140.988 34.802C141.266 35.1323 140.825 35.9811 140.386 35.8684C140.059 35.7836 140.294 35.4008 140.435 35.2095H140.436Z" fill="#9388CD"/>
<path d="M141.527 41.1965C140.12 39.735 132.356 44.9112 129.385 44.1488C125.928 43.2629 118.915 32.2654 116.963 34.2069C115.012 36.1468 119.872 48.7432 127.778 50.1352C135.726 51.535 143.379 43.1194 141.527 41.1965Z" fill="#9388CD"/>
<path d="M118.596 34.3018C118.596 34.3018 118.557 32.277 118.049 32.1412C117.54 32.0039 116.376 31.5532 116.382 31.7847C116.388 32.0162 117.279 32.257 117.279 32.257C117.279 32.257 116.042 32.0625 115.956 32.1783C115.87 32.294 116.044 32.4129 116.044 32.4129C116.044 32.4129 115.881 32.5132 115.867 32.6567C115.853 32.8002 116.829 33.1768 116.829 33.1768C116.829 33.1768 116.496 35.2124 117.822 35.2108C119.148 35.2108 118.596 34.3018 118.596 34.3018Z" fill="#9388CD"/>
<path d="M140.187 39.2733C140.092 39.1236 139.956 39.0063 139.803 38.9183C139.329 38.6451 138.13 37.9939 137.646 38.122C137.038 38.284 136.921 39.2084 137.495 39.6128C138.033 39.9924 140.886 40.3705 140.189 39.2748L140.187 39.2733Z" fill="#9388CD"/>
<path d="M139.163 36.9363C139.604 36.9363 139.778 36.7527 139.801 36.7264C139.862 36.6555 139.853 36.549 139.781 36.4888C139.71 36.4301 139.606 36.4379 139.543 36.5042C139.532 36.515 139.346 36.6709 138.81 36.5582C138.716 36.5397 138.627 36.5968 138.607 36.6879C138.586 36.7789 138.646 36.8684 138.738 36.8885C138.901 36.9224 139.043 36.9363 139.163 36.9363Z" fill="#5745A0"/>
<path d="M129.351 44.6427C130.807 44.6427 131.64 44.3479 131.686 44.3325C131.864 44.2677 131.955 44.0748 131.889 43.8988C131.823 43.7229 131.626 43.6349 131.449 43.6982C131.437 43.7028 130.155 44.1489 127.992 43.8819C127.804 43.8603 127.634 43.9899 127.611 44.1751C127.587 44.3603 127.72 44.5285 127.908 44.5516C128.439 44.618 128.923 44.6427 129.351 44.6427Z" fill="#5745A0"/>
<path d="M123.337 48.274C123.453 48.274 123.565 48.2169 123.631 48.112C123.73 47.9515 123.678 47.7447 123.515 47.6475C120.563 45.8804 118.444 41.1903 118.424 41.144C118.347 40.9743 118.146 40.8956 117.972 40.9712C117.799 41.0468 117.72 41.2459 117.797 41.4172C117.886 41.6178 120.025 46.3511 123.16 48.2262C123.217 48.2586 123.278 48.2756 123.337 48.2756V48.274Z" fill="#5745A0"/>
<path d="M136.105 66.0354C136.3 70.3582 137.402 73.9016 138.18 78.1395C138.25 78.5207 137.657 78.6843 137.587 78.3015C136.799 74.0096 135.687 70.4153 135.49 66.0354C135.473 65.645 136.087 65.6465 136.105 66.0354Z" fill="#FF8F9D"/>
<path d="M13.5952 37.3726C16.9525 36.0824 27.6262 45.8854 31.4995 47.2712C36.8036 49.1695 46.414 50.06 45.4445 54.1019C44.3953 58.4771 32.0343 56.7255 26.7803 53.5278C21.5278 50.3301 8.26925 39.419 13.5952 37.3726Z" fill="#FF4545"/>
<path d="M25.3526 111.297C24.735 111.036 24.6536 110.496 24.3878 109.985C24.3706 109.951 24.2627 109.215 24.2627 109.156C24.258 108.901 23.509 108.233 23.165 108.764C22.4895 109.812 21.6201 108.218 21.6639 108.653C21.7921 109.948 21.312 112.011 21.8015 112.15C22.846 112.445 27.7122 112.76 27.7998 112.255C27.853 111.952 26.4206 111.749 25.3526 111.297Z" fill="#073C4B"/>
<path d="M7.2369 111.297C6.61924 111.036 6.53793 110.496 6.2721 109.985C6.2549 109.951 6.147 109.215 6.147 109.156C6.14231 108.901 5.3933 108.233 5.04929 108.764C4.37377 109.812 3.50436 108.218 3.54814 108.653C3.67637 109.948 3.19631 112.011 3.68575 112.15C4.73029 112.445 9.59652 112.76 9.68408 112.255C9.73725 111.952 8.3049 111.749 7.2369 111.297Z" fill="#073C4B"/>
<path d="M21.2244 57.122L26.2438 109.051C26.2438 109.051 24.6895 109.599 22.7678 109.599C20.0125 109.599 20.4222 109.35 20.4222 109.35C20.4222 109.35 9.56704 59.6005 10.7836 57.3072C11.9986 55.0154 21.226 57.122 21.226 57.122H21.2244Z" fill="#3F5068"/>
<path d="M7.08063 57.8029C12.4769 55.3692 15.9405 58.7104 15.9405 58.7104L7.66232 109.35C7.66232 109.35 7.21823 109.829 5.445 109.829C3.11041 109.829 2.94466 109.364 2.94466 109.364C2.94466 109.364 1.68432 60.2367 7.08063 57.8029Z" fill="#3F5068"/>
<path d="M21.2243 57.1219C21.2243 57.1219 13.1556 55.2808 11.115 56.9167C9.94375 56.8935 8.58803 57.1235 7.08063 57.8025C1.68432 60.2363 2.94466 109.364 2.94466 109.364C2.94466 109.364 3.11041 109.828 5.445 109.828C7.2198 109.828 7.66232 109.35 7.66232 109.35L13.3057 74.8266C16.1892 89.9555 20.4205 109.35 20.4205 109.35C20.4205 109.35 20.0124 109.599 22.7661 109.599C24.6863 109.599 26.2422 109.051 26.2422 109.051L21.2227 57.1219H21.2243Z" fill="#155D72"/>
<path d="M21.9778 64.917L5.72314 68.7228C5.72314 68.7228 12.7738 68.9218 17.515 68.3539C19.8371 68.0761 21.3273 67.8492 22.2467 67.6903L21.9793 64.917H21.9778Z" fill="#BD3E2F"/>
<path d="M23.7511 65.4672C23.7511 65.4672 22.583 58.1258 19.8481 48.832C18.3078 43.5972 17.7199 37.6756 13.6449 35.856C9.69031 34.0905 3.83271 37.7929 3.83271 44.392C3.83271 50.9911 3.45898 69.023 3.45898 69.023C3.45898 69.023 11.0539 67.9905 13.5996 67.8377C20.7019 67.4118 23.7511 65.4672 23.7511 65.4672Z" fill="#FF6754"/>
<path d="M10.1094 33.9609C10.1094 33.9609 11.6715 34.4347 12.0499 35.1508C12.4284 35.8669 11.0007 36.3762 10.5879 36.0043C10.1751 35.6339 8.87877 34.1677 10.1094 33.9609Z" fill="#FF6754"/>
<path d="M8.38606 30.056C8.87706 29.931 8.77386 28.9988 9.97321 28.8105C11.1726 28.6223 10.4439 30.005 10.9271 30.198C11.0647 30.2535 11.196 29.9294 11.4822 30.4156C11.7668 30.9017 10.8239 32.928 8.83641 33.7275C8.38606 33.9096 7.67301 33.9127 7.46504 33.3802C7.25863 32.8478 7.55261 32.6595 7.55261 32.6595C7.55261 32.6595 6.8036 31.6811 7.19453 30.911C7.58701 30.1393 7.96543 30.1609 8.38606 30.0544V30.056Z" fill="#4D1E16"/>
<path d="M8.56416 32.7441L8.55322 35.8631C8.68301 36.2582 11.2037 36.641 11.665 35.9341C11.7995 35.7273 11.6196 35.3662 11.3069 35.0143L9.51645 33.1269L8.5626 32.7457L8.56416 32.7441Z" fill="#9388CD"/>
<path d="M10.2406 33.8879L10.9631 34.6488C10.6847 34.6874 10.2891 34.712 9.92164 34.621C9.26645 34.4589 8.95996 33.7969 8.95996 33.7969C9.15386 33.8879 9.74494 33.8972 10.2406 33.8879Z" fill="#5745A0"/>
<path d="M8.82236 31.6316L8.68945 32.965C8.70196 33.5376 8.9975 34.016 9.5229 34.2259C9.95135 34.3972 10.5284 34.3231 11.0631 34.1117C11.5088 33.9357 11.6276 33.4372 11.4681 32.8415C11.2602 32.0683 10.8458 31.414 10.605 31.0775C10.0546 30.3074 8.97091 30.5081 8.82236 31.63V31.6316Z" fill="#9388CD"/>
<path d="M11.024 32.1562C11.024 32.1562 11.1679 32.4865 10.9474 32.6949C10.7269 32.9032 10.1796 32.8723 9.87158 32.5251C9.87158 32.5251 10.3782 32.451 11.024 32.1562Z" fill="white"/>
<path d="M8.81581 32.3492C8.73606 32.2767 8.66882 32.1918 8.60783 32.1038C8.49055 31.9356 8.27476 31.7149 8.10901 32.0097C7.8682 32.4387 8.43583 33.2567 8.90337 33.036C9.25051 32.8724 9.01596 32.5329 8.81581 32.3492Z" fill="#9388CD"/>
<path d="M10.9535 37.0147C10.9535 37.0147 10.88 34.834 11.149 34.6272C11.4179 34.4189 12.6923 35.3201 12.2545 36.0223C11.8182 36.7245 11.8198 37.311 10.9535 37.0147Z" fill="#FF6754"/>
<path d="M10.7973 37.4287C10.7973 37.4287 7.7418 38.8532 5.93729 38.7421C5.45255 38.7112 5.94042 37.779 5.94042 37.779L10.7973 37.4287Z" fill="#FF4545"/>
<path d="M8.5658 35.1616L8.55954 34.3066C8.55954 34.3066 6.70187 34.9841 6.16709 35.1601C4.99276 35.5459 5.02872 36.2388 4.95835 37.8686C4.91613 38.83 8.76752 37.9457 10.1842 37.6756C11.0458 37.5105 12.4141 36.7358 11.5353 36.3237C10.6565 35.9132 8.5658 35.1601 8.5658 35.1601V35.1616Z" fill="#FF6754"/>
<path d="M6.23296 35.6628C6.08284 35.4884 7.78414 34.6427 8.5613 34.3818L8.56755 35.1612C8.56755 35.1612 6.40965 35.8665 6.23296 35.6628Z" fill="#FF4545"/>
<path d="M48.5521 46.2818L49.9478 47.8838L57.2764 41.6646L55.8807 40.0626L48.5521 46.2818Z" fill="#333333"/>
<path d="M56.0668 42.9281C49.8777 35.9972 50.5564 25.387 57.5789 19.2787C64.6015 13.1703 75.3519 13.8401 81.541 20.7711C87.7301 27.702 87.0514 38.3121 80.0289 44.4205C73.0063 50.5288 62.2559 49.859 56.0668 42.9281ZM79.9648 22.1415C74.5419 16.0671 65.1222 15.4806 58.9675 20.8328C52.8128 26.1849 52.2186 35.4817 57.6415 41.5561C63.0644 47.6305 72.4841 48.217 78.6388 42.8648C84.7935 37.5127 85.3877 28.2159 79.9632 22.1415H79.9648Z" fill="#333333"/>
<g opacity="0.5">
<path opacity="0.5" d="M80.4368 22.0247C75.0139 15.9503 65.4143 14.8978 59.2596 20.2499C53.1049 25.6021 51.4943 34.5439 57.5177 40.8791C63.1313 46.7822 72.956 48.1017 79.1107 42.7481C85.2654 37.3959 85.8596 28.0991 80.4352 22.0247H80.4368Z" fill="#8DE4E6"/>
</g>
<path d="M55.1489 41.2553C48.9597 34.3243 49.6384 23.7142 56.6609 17.6058C63.6835 11.4975 74.4339 12.1673 80.623 19.0982C86.8121 26.0291 86.1335 36.6393 79.1109 42.7476C72.0884 48.856 61.338 48.1862 55.1489 41.2553ZM79.0468 20.4686C73.6239 14.3942 64.2042 13.8078 58.0495 19.1599C51.8948 24.5121 51.3006 33.8089 56.7235 39.8833C62.1464 45.9577 71.5661 46.5441 77.7208 41.192C83.8755 35.8398 84.4697 26.5431 79.0452 20.4686H79.0468Z" fill="#707070"/>
<path d="M51.8118 45.0824C53.1597 46.6813 52.9376 49.078 51.3192 50.4083L39.7541 59.9119C38.1341 61.2422 35.7072 61.0231 34.3578 59.4258C33.0099 57.8269 33.2319 55.4302 34.8503 54.0999L46.4154 44.5963C48.0354 43.2659 50.4623 43.4851 51.8118 45.0824Z" fill="#919191"/>
<path d="M66.9966 20.7062C65.594 20.6692 64.2899 20.9624 63.0577 21.6368C61.8927 22.2742 60.9107 23.1678 59.9928 24.1123C59.2719 24.8546 60.5276 25.8562 61.2438 25.1216C62.7121 23.6107 64.5119 22.2233 66.7449 22.2819C67.1811 22.2927 67.5939 22.0828 67.6674 21.6183C67.7284 21.2356 67.4344 20.7186 66.995 20.7078L66.9966 20.7062Z" fill="white"/>
<path d="M70.4696 20.2168C70.3632 20.2291 70.2647 20.26 70.174 20.3094C70.0411 20.3279 69.9113 20.3758 69.805 20.4529C69.7159 20.5116 69.6471 20.5887 69.6002 20.6813C69.5361 20.7678 69.497 20.865 69.4829 20.9746C69.4594 21.1798 69.4938 21.4005 69.6283 21.5672C69.7612 21.7323 69.9395 21.8542 70.1553 21.8851C70.3617 21.9144 70.5243 21.8944 70.7182 21.8326C70.8324 21.7971 70.9481 21.7339 71.0372 21.6536C71.1263 21.595 71.1951 21.5178 71.242 21.4252C71.3062 21.3388 71.3452 21.2415 71.3593 21.132C71.3812 21.0239 71.3734 20.919 71.339 20.8187C71.3218 20.7168 71.2811 20.6227 71.2139 20.5393C71.0841 20.3773 70.9012 20.2446 70.6869 20.2214C70.615 20.2199 70.5431 20.2183 70.4711 20.2168H70.4696Z" fill="white"/>
<path d="M6.15974 39.0469C9.58893 37.9543 17.3667 46.8344 21.1493 48.4456C23.9859 49.654 30.2813 51.239 35.196 52.4227C39.2569 53.4011 40.2186 53.4135 39.099 56.6065C37.6088 60.8552 21.1149 57.9153 16.0626 54.4151C11.0103 50.9149 0.721208 40.7785 6.15974 39.0469Z" fill="#FF6754"/>
<path d="M39.063 54.5258C39.063 54.5258 40.9316 54.3776 41.5274 54.4795C42.1232 54.5813 42.7299 53.9949 42.7502 54.4008C42.7705 54.8066 42.156 55.2141 41.8011 55.1986C41.4461 55.1832 40.6971 55.6338 40.1482 55.5629C39.6009 55.4934 38.4266 54.6955 39.063 54.5258Z" fill="#9388CD"/>
<path d="M38.6113 56.3977C38.6113 56.3977 39.7153 57.5952 41.1367 57.4533C42.3986 57.3283 43.4619 57.2789 43.3744 56.4764C43.3009 55.8066 41.3838 55.7834 40.8584 55.4084C40.333 55.0318 38.9288 54.0843 38.3377 54.6306C37.7451 55.1784 37.9968 56.0134 38.6113 56.3992V56.3977Z" fill="#9388CD"/>
<path d="M23.215 49.7687C23.1947 49.7687 23.1743 49.7656 23.154 49.7594C23.1165 49.7486 22.2455 49.4816 21.6779 49.0588C21.1431 48.6606 19.3464 47.4429 19.3292 47.4306C19.2338 47.3658 19.2088 47.2361 19.2745 47.142C19.3402 47.0479 19.4715 47.0232 19.5669 47.088C19.6404 47.1389 21.3886 48.3242 21.9312 48.727C22.4394 49.1066 23.2682 49.3597 23.276 49.3613C23.387 49.3952 23.4496 49.5109 23.4152 49.6205C23.387 49.71 23.3041 49.7671 23.215 49.7671V49.7687Z" fill="#FF4545"/>
<path d="M18.6692 55.9926C18.6426 55.9926 18.6145 55.988 18.5894 55.9772C15.5574 54.7348 13.989 53.2594 11.8186 51.2177C11.3183 50.747 10.8007 50.2608 10.2174 49.7299C7.04624 46.844 4.93681 42.9719 4.91492 42.9333C4.86019 42.833 4.89928 42.7064 5.00092 42.6524C5.10256 42.5984 5.23079 42.637 5.28552 42.7373C5.30584 42.7759 7.38243 46.5878 10.5004 49.4244C11.0868 49.9568 11.6044 50.446 12.1064 50.9167C14.3237 53.0033 15.7889 54.3814 18.7489 55.5929C18.8553 55.6361 18.9069 55.758 18.8631 55.8645C18.8287 55.9448 18.7521 55.9926 18.6692 55.9926Z" fill="#FF4545"/>
<path fill-rule="evenodd" clip-rule="evenodd" d="M44.1266 5.76351C44.2532 5.69211 44.4086 5.69211 44.5352 5.76351L50.3 9.01471C50.4283 9.08707 50.5075 9.22173 50.5075 9.36757V9.9527C50.5075 13.6367 48.0331 16.8743 44.444 17.8863C44.3701 17.9072 44.2917 17.9072 44.2178 17.8863C40.6287 16.8743 38.1543 13.6367 38.1543 9.9527V9.36757C38.1543 9.22173 38.2335 9.08707 38.3618 9.01471L44.1266 5.76351ZM43.9783 14.4156L47.5349 10.0278L46.8918 9.52009L43.86 13.2603L41.7121 11.4938L41.1849 12.1182L43.9783 14.4156Z" fill="#6F989F"/>
</g>
<defs>
<clipPath id="clip0_58230_77189">
<rect width="177" height="114" fill="white"/>
</clipPath>
</defs>
</svg>
